G04 #@! TF.GenerationSoftware,KiCad,Pcbnew,(5.0.0)*
G04 #@! TF.CreationDate,2020-01-02T15:26:17+02:00*
G04 #@! TF.ProjectId,Socket,536F636B65742E6B696361645F706362,1.1*
G04 #@! TF.SameCoordinates,Original*
G04 #@! TF.FileFunction,Legend,Bot*
G04 #@! TF.FilePolarity,Positive*
%FSLAX46Y46*%
G04 Gerber Fmt 4.6, Leading zero omitted, Abs format (unit mm)*
G04 Created by KiCad (PCBNEW (5.0.0)) date 01/02/20 15:26:17*
%MOMM*%
%LPD*%
G01*
G04 APERTURE LIST*
%ADD10C,0.300000*%
%ADD11C,0.120000*%
%ADD12C,0.150000*%
G04 APERTURE END LIST*
D10*
X134063571Y-87461428D02*
X134063571Y-86747142D01*
X132563571Y-86747142D01*
X134063571Y-88604285D02*
X133277857Y-88604285D01*
X133135000Y-88532857D01*
X133063571Y-88390000D01*
X133063571Y-88104285D01*
X133135000Y-87961428D01*
X133992142Y-88604285D02*
X134063571Y-88461428D01*
X134063571Y-88104285D01*
X133992142Y-87961428D01*
X133849285Y-87890000D01*
X133706428Y-87890000D01*
X133563571Y-87961428D01*
X133492142Y-88104285D01*
X133492142Y-88461428D01*
X133420714Y-88604285D01*
X133063571Y-89961428D02*
X134063571Y-89961428D01*
X133063571Y-89318571D02*
X133849285Y-89318571D01*
X133992142Y-89390000D01*
X134063571Y-89532857D01*
X134063571Y-89747142D01*
X133992142Y-89890000D01*
X133920714Y-89961428D01*
X134063571Y-90675714D02*
X133063571Y-90675714D01*
X133349285Y-90675714D02*
X133206428Y-90747142D01*
X133135000Y-90818571D01*
X133063571Y-90961428D01*
X133063571Y-91104285D01*
X134063571Y-91604285D02*
X133063571Y-91604285D01*
X132563571Y-91604285D02*
X132635000Y-91532857D01*
X132706428Y-91604285D01*
X132635000Y-91675714D01*
X132563571Y-91604285D01*
X132706428Y-91604285D01*
X134063571Y-93461428D02*
X132563571Y-93461428D01*
X132563571Y-94032857D01*
X132635000Y-94175714D01*
X132706428Y-94247142D01*
X132849285Y-94318571D01*
X133063571Y-94318571D01*
X133206428Y-94247142D01*
X133277857Y-94175714D01*
X133349285Y-94032857D01*
X133349285Y-93461428D01*
X133992142Y-95532857D02*
X134063571Y-95390000D01*
X134063571Y-95104285D01*
X133992142Y-94961428D01*
X133849285Y-94890000D01*
X133277857Y-94890000D01*
X133135000Y-94961428D01*
X133063571Y-95104285D01*
X133063571Y-95390000D01*
X133135000Y-95532857D01*
X133277857Y-95604285D01*
X133420714Y-95604285D01*
X133563571Y-94890000D01*
X134063571Y-96461428D02*
X133992142Y-96318571D01*
X133849285Y-96247142D01*
X132563571Y-96247142D01*
X133063571Y-96818571D02*
X133063571Y-97390000D01*
X132563571Y-97032857D02*
X133849285Y-97032857D01*
X133992142Y-97104285D01*
X134063571Y-97247142D01*
X134063571Y-97390000D01*
X134063571Y-98104285D02*
X133992142Y-97961428D01*
X133920714Y-97890000D01*
X133777857Y-97818571D01*
X133349285Y-97818571D01*
X133206428Y-97890000D01*
X133135000Y-97961428D01*
X133063571Y-98104285D01*
X133063571Y-98318571D01*
X133135000Y-98461428D01*
X133206428Y-98532857D01*
X133349285Y-98604285D01*
X133777857Y-98604285D01*
X133920714Y-98532857D01*
X133992142Y-98461428D01*
X134063571Y-98318571D01*
X134063571Y-98104285D01*
X133063571Y-99247142D02*
X134063571Y-99247142D01*
X133206428Y-99247142D02*
X133135000Y-99318571D01*
X133063571Y-99461428D01*
X133063571Y-99675714D01*
X133135000Y-99818571D01*
X133277857Y-99890000D01*
X134063571Y-99890000D01*
X133992142Y-101175714D02*
X134063571Y-101032857D01*
X134063571Y-100747142D01*
X133992142Y-100604285D01*
X133849285Y-100532857D01*
X133277857Y-100532857D01*
X133135000Y-100604285D01*
X133063571Y-100747142D01*
X133063571Y-101032857D01*
X133135000Y-101175714D01*
X133277857Y-101247142D01*
X133420714Y-101247142D01*
X133563571Y-100532857D01*
X133063571Y-101890000D02*
X134063571Y-101890000D01*
X133206428Y-101890000D02*
X133135000Y-101961428D01*
X133063571Y-102104285D01*
X133063571Y-102318571D01*
X133135000Y-102461428D01*
X133277857Y-102532857D01*
X134063571Y-102532857D01*
X135256428Y-92068571D02*
X135185000Y-92140000D01*
X135113571Y-92282857D01*
X135113571Y-92640000D01*
X135185000Y-92782857D01*
X135256428Y-92854285D01*
X135399285Y-92925714D01*
X135542142Y-92925714D01*
X135756428Y-92854285D01*
X136613571Y-91997142D01*
X136613571Y-92925714D01*
X135113571Y-93854285D02*
X135113571Y-93997142D01*
X135185000Y-94140000D01*
X135256428Y-94211428D01*
X135399285Y-94282857D01*
X135685000Y-94354285D01*
X136042142Y-94354285D01*
X136327857Y-94282857D01*
X136470714Y-94211428D01*
X136542142Y-94140000D01*
X136613571Y-93997142D01*
X136613571Y-93854285D01*
X136542142Y-93711428D01*
X136470714Y-93640000D01*
X136327857Y-93568571D01*
X136042142Y-93497142D01*
X135685000Y-93497142D01*
X135399285Y-93568571D01*
X135256428Y-93640000D01*
X135185000Y-93711428D01*
X135113571Y-93854285D01*
X136613571Y-95782857D02*
X136613571Y-94925714D01*
X136613571Y-95354285D02*
X135113571Y-95354285D01*
X135327857Y-95211428D01*
X135470714Y-95068571D01*
X135542142Y-94925714D01*
X135756428Y-96640000D02*
X135685000Y-96497142D01*
X135613571Y-96425714D01*
X135470714Y-96354285D01*
X135399285Y-96354285D01*
X135256428Y-96425714D01*
X135185000Y-96497142D01*
X135113571Y-96640000D01*
X135113571Y-96925714D01*
X135185000Y-97068571D01*
X135256428Y-97140000D01*
X135399285Y-97211428D01*
X135470714Y-97211428D01*
X135613571Y-97140000D01*
X135685000Y-97068571D01*
X135756428Y-96925714D01*
X135756428Y-96640000D01*
X135827857Y-96497142D01*
X135899285Y-96425714D01*
X136042142Y-96354285D01*
X136327857Y-96354285D01*
X136470714Y-96425714D01*
X136542142Y-96497142D01*
X136613571Y-96640000D01*
X136613571Y-96925714D01*
X136542142Y-97068571D01*
X136470714Y-97140000D01*
X136327857Y-97211428D01*
X136042142Y-97211428D01*
X135899285Y-97140000D01*
X135827857Y-97068571D01*
X135756428Y-96925714D01*
X57703571Y-67392857D02*
X56989285Y-66892857D01*
X57703571Y-66535714D02*
X56203571Y-66535714D01*
X56203571Y-67107142D01*
X56275000Y-67250000D01*
X56346428Y-67321428D01*
X56489285Y-67392857D01*
X56703571Y-67392857D01*
X56846428Y-67321428D01*
X56917857Y-67250000D01*
X56989285Y-67107142D01*
X56989285Y-66535714D01*
X57632142Y-68607142D02*
X57703571Y-68464285D01*
X57703571Y-68178571D01*
X57632142Y-68035714D01*
X57489285Y-67964285D01*
X56917857Y-67964285D01*
X56775000Y-68035714D01*
X56703571Y-68178571D01*
X56703571Y-68464285D01*
X56775000Y-68607142D01*
X56917857Y-68678571D01*
X57060714Y-68678571D01*
X57203571Y-67964285D01*
X57703571Y-69321428D02*
X56703571Y-69321428D01*
X56846428Y-69321428D02*
X56775000Y-69392857D01*
X56703571Y-69535714D01*
X56703571Y-69750000D01*
X56775000Y-69892857D01*
X56917857Y-69964285D01*
X57703571Y-69964285D01*
X56917857Y-69964285D02*
X56775000Y-70035714D01*
X56703571Y-70178571D01*
X56703571Y-70392857D01*
X56775000Y-70535714D01*
X56917857Y-70607142D01*
X57703571Y-70607142D01*
X57703571Y-71535714D02*
X57632142Y-71392857D01*
X57560714Y-71321428D01*
X57417857Y-71250000D01*
X56989285Y-71250000D01*
X56846428Y-71321428D01*
X56775000Y-71392857D01*
X56703571Y-71535714D01*
X56703571Y-71750000D01*
X56775000Y-71892857D01*
X56846428Y-71964285D01*
X56989285Y-72035714D01*
X57417857Y-72035714D01*
X57560714Y-71964285D01*
X57632142Y-71892857D01*
X57703571Y-71750000D01*
X57703571Y-71535714D01*
X56703571Y-72464285D02*
X56703571Y-73035714D01*
X56203571Y-72678571D02*
X57489285Y-72678571D01*
X57632142Y-72750000D01*
X57703571Y-72892857D01*
X57703571Y-73035714D01*
X57632142Y-74107142D02*
X57703571Y-73964285D01*
X57703571Y-73678571D01*
X57632142Y-73535714D01*
X57489285Y-73464285D01*
X56917857Y-73464285D01*
X56775000Y-73535714D01*
X56703571Y-73678571D01*
X56703571Y-73964285D01*
X56775000Y-74107142D01*
X56917857Y-74178571D01*
X57060714Y-74178571D01*
X57203571Y-73464285D01*
X57632142Y-75892857D02*
X57703571Y-76035714D01*
X57703571Y-76321428D01*
X57632142Y-76464285D01*
X57489285Y-76535714D01*
X57417857Y-76535714D01*
X57275000Y-76464285D01*
X57203571Y-76321428D01*
X57203571Y-76107142D01*
X57132142Y-75964285D01*
X56989285Y-75892857D01*
X56917857Y-75892857D01*
X56775000Y-75964285D01*
X56703571Y-76107142D01*
X56703571Y-76321428D01*
X56775000Y-76464285D01*
X57703571Y-77392857D02*
X57632142Y-77250000D01*
X57560714Y-77178571D01*
X57417857Y-77107142D01*
X56989285Y-77107142D01*
X56846428Y-77178571D01*
X56775000Y-77250000D01*
X56703571Y-77392857D01*
X56703571Y-77607142D01*
X56775000Y-77750000D01*
X56846428Y-77821428D01*
X56989285Y-77892857D01*
X57417857Y-77892857D01*
X57560714Y-77821428D01*
X57632142Y-77750000D01*
X57703571Y-77607142D01*
X57703571Y-77392857D01*
X57632142Y-79178571D02*
X57703571Y-79035714D01*
X57703571Y-78750000D01*
X57632142Y-78607142D01*
X57560714Y-78535714D01*
X57417857Y-78464285D01*
X56989285Y-78464285D01*
X56846428Y-78535714D01*
X56775000Y-78607142D01*
X56703571Y-78750000D01*
X56703571Y-79035714D01*
X56775000Y-79178571D01*
X57703571Y-79821428D02*
X56203571Y-79821428D01*
X57132142Y-79964285D02*
X57703571Y-80392857D01*
X56703571Y-80392857D02*
X57275000Y-79821428D01*
X57632142Y-81607142D02*
X57703571Y-81464285D01*
X57703571Y-81178571D01*
X57632142Y-81035714D01*
X57489285Y-80964285D01*
X56917857Y-80964285D01*
X56775000Y-81035714D01*
X56703571Y-81178571D01*
X56703571Y-81464285D01*
X56775000Y-81607142D01*
X56917857Y-81678571D01*
X57060714Y-81678571D01*
X57203571Y-80964285D01*
X56703571Y-82107142D02*
X56703571Y-82678571D01*
X56203571Y-82321428D02*
X57489285Y-82321428D01*
X57632142Y-82392857D01*
X57703571Y-82535714D01*
X57703571Y-82678571D01*
X59253571Y-71428571D02*
X60253571Y-71785714D01*
X59253571Y-72142857D01*
X60110714Y-72714285D02*
X60182142Y-72785714D01*
X60253571Y-72714285D01*
X60182142Y-72642857D01*
X60110714Y-72714285D01*
X60253571Y-72714285D01*
X60253571Y-75357142D02*
X60253571Y-74500000D01*
X60253571Y-74928571D02*
X58753571Y-74928571D01*
X58967857Y-74785714D01*
X59110714Y-74642857D01*
X59182142Y-74500000D01*
X60110714Y-76000000D02*
X60182142Y-76071428D01*
X60253571Y-76000000D01*
X60182142Y-75928571D01*
X60110714Y-76000000D01*
X60253571Y-76000000D01*
X60253571Y-77500000D02*
X60253571Y-76642857D01*
X60253571Y-77071428D02*
X58753571Y-77071428D01*
X58967857Y-76928571D01*
X59110714Y-76785714D01*
X59182142Y-76642857D01*
D11*
G04 #@! TO.C,C311*
X116128000Y-80942000D02*
X116128000Y-81942000D01*
X114428000Y-81942000D02*
X114428000Y-80942000D01*
G04 #@! TO.C,C307*
X97900000Y-73958000D02*
X98900000Y-73958000D01*
X98900000Y-75658000D02*
X97900000Y-75658000D01*
G04 #@! TO.C,C306*
X95175571Y-78164775D02*
X96175571Y-78164775D01*
X96175571Y-79864775D02*
X95175571Y-79864775D01*
G04 #@! TO.C,C304*
X113400000Y-74068000D02*
X113400000Y-73068000D01*
X115100000Y-73068000D02*
X115100000Y-74068000D01*
G04 #@! TO.C,C303*
X109500000Y-75650000D02*
X108500000Y-75650000D01*
X108500000Y-73950000D02*
X109500000Y-73950000D01*
G04 #@! TO.C,C302*
X113334000Y-80942000D02*
X113334000Y-81942000D01*
X111634000Y-81942000D02*
X111634000Y-80942000D01*
G04 #@! TO.C,C301*
X109500000Y-78900000D02*
X108500000Y-78900000D01*
X108500000Y-77200000D02*
X109500000Y-77200000D01*
G04 #@! TO.C,C308*
X97900000Y-71708000D02*
X98900000Y-71708000D01*
X98900000Y-73408000D02*
X97900000Y-73408000D01*
G04 #@! TO.C,C305*
X89175571Y-79864775D02*
X88175571Y-79864775D01*
X88175571Y-78164775D02*
X89175571Y-78164775D01*
G04 #@! TO.C,C202*
X71540000Y-79265000D02*
X69540000Y-79265000D01*
X69540000Y-77215000D02*
X71540000Y-77215000D01*
G04 #@! TO.C,D301*
X127886000Y-93900000D02*
X120586000Y-93900000D01*
X127886000Y-98200000D02*
X120586000Y-98200000D01*
X127886000Y-93900000D02*
X127886000Y-98200000D01*
G04 #@! TO.C,D304*
X114378000Y-93900000D02*
X107078000Y-93900000D01*
X114378000Y-98200000D02*
X107078000Y-98200000D01*
X114378000Y-93900000D02*
X114378000Y-98200000D01*
G04 #@! TO.C,Q301*
X121524000Y-91311000D02*
X121524000Y-89851000D01*
X118364000Y-91311000D02*
X118364000Y-88151000D01*
X118364000Y-91311000D02*
X119294000Y-91311000D01*
X121524000Y-91311000D02*
X120594000Y-91311000D01*
G04 #@! TO.C,Q302*
X108641000Y-91692000D02*
X108641000Y-90232000D01*
X105481000Y-91692000D02*
X105481000Y-88532000D01*
X105481000Y-91692000D02*
X106411000Y-91692000D01*
X108641000Y-91692000D02*
X107711000Y-91692000D01*
D12*
G04 #@! TO.C,R301*
X115794000Y-88421000D02*
X114594000Y-88421000D01*
X114594000Y-90171000D02*
X115794000Y-90171000D01*
G04 #@! TO.C,R303*
X114594000Y-92921000D02*
X115794000Y-92921000D01*
X115794000Y-91171000D02*
X114594000Y-91171000D01*
G04 #@! TO.C,R309*
X103038688Y-88466636D02*
X101838688Y-88466636D01*
X101838688Y-90216636D02*
X103038688Y-90216636D01*
G04 #@! TO.C,R310*
X101588688Y-92966636D02*
X102788688Y-92966636D01*
X102788688Y-91216636D02*
X101588688Y-91216636D01*
G04 #@! TO.C,R312*
X92775571Y-75639775D02*
X91575571Y-75639775D01*
X91575571Y-77389775D02*
X92775571Y-77389775D01*
D11*
G04 #@! TO.C,Q304*
X124531000Y-73662000D02*
X124531000Y-75122000D01*
X127691000Y-73662000D02*
X127691000Y-76822000D01*
X127691000Y-73662000D02*
X126761000Y-73662000D01*
X124531000Y-73662000D02*
X125461000Y-73662000D01*
D12*
G04 #@! TO.C,R316*
X129897000Y-78556000D02*
X129897000Y-79756000D01*
X131647000Y-79756000D02*
X131647000Y-78556000D01*
G04 #@! TO.C,R317*
X138787000Y-78556000D02*
X138787000Y-79756000D01*
X140537000Y-79756000D02*
X140537000Y-78556000D01*
G04 #@! TO.C,R319*
X127162000Y-70979000D02*
X128362000Y-70979000D01*
X128362000Y-69229000D02*
X127162000Y-69229000D01*
G04 #@! TO.C,R321*
X125346000Y-79269000D02*
X126546000Y-79269000D01*
X126546000Y-77519000D02*
X125346000Y-77519000D01*
D11*
G04 #@! TO.C,C101*
X88109000Y-96952000D02*
X88109000Y-98952000D01*
X86059000Y-98952000D02*
X86059000Y-96952000D01*
G04 #@! TO.C,C102*
X85061000Y-96920000D02*
X85061000Y-98920000D01*
X83011000Y-98920000D02*
X83011000Y-96920000D01*
G04 #@! TO.C,C201*
X71540000Y-82265000D02*
X69540000Y-82265000D01*
X69540000Y-80215000D02*
X71540000Y-80215000D01*
G04 #@! TO.C,C203*
X71540000Y-76265000D02*
X69540000Y-76265000D01*
X69540000Y-74215000D02*
X71540000Y-74215000D01*
G04 #@! TO.C,C204*
X71540000Y-73265000D02*
X69540000Y-73265000D01*
X69540000Y-71215000D02*
X71540000Y-71215000D01*
D12*
G04 #@! TO.C,L201*
X73675000Y-87325000D02*
X73675000Y-85325000D01*
X71525000Y-85325000D02*
X71525000Y-87325000D01*
G04 #@! TO.C,L301*
X73125000Y-68650000D02*
X75125000Y-68650000D01*
X75125000Y-66500000D02*
X73125000Y-66500000D01*
D11*
G04 #@! TO.C,C105*
X95457000Y-89300000D02*
X95457000Y-87300000D01*
X97507000Y-87300000D02*
X97507000Y-89300000D01*
G04 #@! TO.C,C106*
X91647000Y-89268000D02*
X91647000Y-87268000D01*
X93697000Y-87268000D02*
X93697000Y-89268000D01*
D12*
G04 #@! TO.C,L302*
X101356000Y-84803000D02*
X103356000Y-84803000D01*
X103356000Y-82653000D02*
X101356000Y-82653000D01*
G04 #@! TO.C,R101*
X83100000Y-87125000D02*
X81900000Y-87125000D01*
X81900000Y-88875000D02*
X83100000Y-88875000D01*
G04 #@! TO.C,R102*
X76125000Y-93150000D02*
X76125000Y-94350000D01*
X77875000Y-94350000D02*
X77875000Y-93150000D01*
G04 #@! TO.C,C311*
X119319047Y-82957142D02*
X119366666Y-83004761D01*
X119509523Y-83052380D01*
X119604761Y-83052380D01*
X119747619Y-83004761D01*
X119842857Y-82909523D01*
X119890476Y-82814285D01*
X119938095Y-82623809D01*
X119938095Y-82480952D01*
X119890476Y-82290476D01*
X119842857Y-82195238D01*
X119747619Y-82100000D01*
X119604761Y-82052380D01*
X119509523Y-82052380D01*
X119366666Y-82100000D01*
X119319047Y-82147619D01*
X118985714Y-82052380D02*
X118366666Y-82052380D01*
X118700000Y-82433333D01*
X118557142Y-82433333D01*
X118461904Y-82480952D01*
X118414285Y-82528571D01*
X118366666Y-82623809D01*
X118366666Y-82861904D01*
X118414285Y-82957142D01*
X118461904Y-83004761D01*
X118557142Y-83052380D01*
X118842857Y-83052380D01*
X118938095Y-83004761D01*
X118985714Y-82957142D01*
X117414285Y-83052380D02*
X117985714Y-83052380D01*
X117700000Y-83052380D02*
X117700000Y-82052380D01*
X117795238Y-82195238D01*
X117890476Y-82290476D01*
X117985714Y-82338095D01*
X116461904Y-83052380D02*
X117033333Y-83052380D01*
X116747619Y-83052380D02*
X116747619Y-82052380D01*
X116842857Y-82195238D01*
X116938095Y-82290476D01*
X117033333Y-82338095D01*
G04 #@! TO.C,C307*
X99719047Y-71157142D02*
X99766666Y-71204761D01*
X99909523Y-71252380D01*
X100004761Y-71252380D01*
X100147619Y-71204761D01*
X100242857Y-71109523D01*
X100290476Y-71014285D01*
X100338095Y-70823809D01*
X100338095Y-70680952D01*
X100290476Y-70490476D01*
X100242857Y-70395238D01*
X100147619Y-70300000D01*
X100004761Y-70252380D01*
X99909523Y-70252380D01*
X99766666Y-70300000D01*
X99719047Y-70347619D01*
X99385714Y-70252380D02*
X98766666Y-70252380D01*
X99100000Y-70633333D01*
X98957142Y-70633333D01*
X98861904Y-70680952D01*
X98814285Y-70728571D01*
X98766666Y-70823809D01*
X98766666Y-71061904D01*
X98814285Y-71157142D01*
X98861904Y-71204761D01*
X98957142Y-71252380D01*
X99242857Y-71252380D01*
X99338095Y-71204761D01*
X99385714Y-71157142D01*
X98147619Y-70252380D02*
X98052380Y-70252380D01*
X97957142Y-70300000D01*
X97909523Y-70347619D01*
X97861904Y-70442857D01*
X97814285Y-70633333D01*
X97814285Y-70871428D01*
X97861904Y-71061904D01*
X97909523Y-71157142D01*
X97957142Y-71204761D01*
X98052380Y-71252380D01*
X98147619Y-71252380D01*
X98242857Y-71204761D01*
X98290476Y-71157142D01*
X98338095Y-71061904D01*
X98385714Y-70871428D01*
X98385714Y-70633333D01*
X98338095Y-70442857D01*
X98290476Y-70347619D01*
X98242857Y-70300000D01*
X98147619Y-70252380D01*
X97480952Y-70252380D02*
X96814285Y-70252380D01*
X97242857Y-71252380D01*
G04 #@! TO.C,C306*
X98979047Y-81287142D02*
X99026666Y-81334761D01*
X99169523Y-81382380D01*
X99264761Y-81382380D01*
X99407619Y-81334761D01*
X99502857Y-81239523D01*
X99550476Y-81144285D01*
X99598095Y-80953809D01*
X99598095Y-80810952D01*
X99550476Y-80620476D01*
X99502857Y-80525238D01*
X99407619Y-80430000D01*
X99264761Y-80382380D01*
X99169523Y-80382380D01*
X99026666Y-80430000D01*
X98979047Y-80477619D01*
X98645714Y-80382380D02*
X98026666Y-80382380D01*
X98360000Y-80763333D01*
X98217142Y-80763333D01*
X98121904Y-80810952D01*
X98074285Y-80858571D01*
X98026666Y-80953809D01*
X98026666Y-81191904D01*
X98074285Y-81287142D01*
X98121904Y-81334761D01*
X98217142Y-81382380D01*
X98502857Y-81382380D01*
X98598095Y-81334761D01*
X98645714Y-81287142D01*
X97407619Y-80382380D02*
X97312380Y-80382380D01*
X97217142Y-80430000D01*
X97169523Y-80477619D01*
X97121904Y-80572857D01*
X97074285Y-80763333D01*
X97074285Y-81001428D01*
X97121904Y-81191904D01*
X97169523Y-81287142D01*
X97217142Y-81334761D01*
X97312380Y-81382380D01*
X97407619Y-81382380D01*
X97502857Y-81334761D01*
X97550476Y-81287142D01*
X97598095Y-81191904D01*
X97645714Y-81001428D01*
X97645714Y-80763333D01*
X97598095Y-80572857D01*
X97550476Y-80477619D01*
X97502857Y-80430000D01*
X97407619Y-80382380D01*
X96217142Y-80382380D02*
X96407619Y-80382380D01*
X96502857Y-80430000D01*
X96550476Y-80477619D01*
X96645714Y-80620476D01*
X96693333Y-80810952D01*
X96693333Y-81191904D01*
X96645714Y-81287142D01*
X96598095Y-81334761D01*
X96502857Y-81382380D01*
X96312380Y-81382380D01*
X96217142Y-81334761D01*
X96169523Y-81287142D01*
X96121904Y-81191904D01*
X96121904Y-80953809D01*
X96169523Y-80858571D01*
X96217142Y-80810952D01*
X96312380Y-80763333D01*
X96502857Y-80763333D01*
X96598095Y-80810952D01*
X96645714Y-80858571D01*
X96693333Y-80953809D01*
G04 #@! TO.C,C304*
X113719047Y-70757142D02*
X113766666Y-70804761D01*
X113909523Y-70852380D01*
X114004761Y-70852380D01*
X114147619Y-70804761D01*
X114242857Y-70709523D01*
X114290476Y-70614285D01*
X114338095Y-70423809D01*
X114338095Y-70280952D01*
X114290476Y-70090476D01*
X114242857Y-69995238D01*
X114147619Y-69900000D01*
X114004761Y-69852380D01*
X113909523Y-69852380D01*
X113766666Y-69900000D01*
X113719047Y-69947619D01*
X113385714Y-69852380D02*
X112766666Y-69852380D01*
X113100000Y-70233333D01*
X112957142Y-70233333D01*
X112861904Y-70280952D01*
X112814285Y-70328571D01*
X112766666Y-70423809D01*
X112766666Y-70661904D01*
X112814285Y-70757142D01*
X112861904Y-70804761D01*
X112957142Y-70852380D01*
X113242857Y-70852380D01*
X113338095Y-70804761D01*
X113385714Y-70757142D01*
X112147619Y-69852380D02*
X112052380Y-69852380D01*
X111957142Y-69900000D01*
X111909523Y-69947619D01*
X111861904Y-70042857D01*
X111814285Y-70233333D01*
X111814285Y-70471428D01*
X111861904Y-70661904D01*
X111909523Y-70757142D01*
X111957142Y-70804761D01*
X112052380Y-70852380D01*
X112147619Y-70852380D01*
X112242857Y-70804761D01*
X112290476Y-70757142D01*
X112338095Y-70661904D01*
X112385714Y-70471428D01*
X112385714Y-70233333D01*
X112338095Y-70042857D01*
X112290476Y-69947619D01*
X112242857Y-69900000D01*
X112147619Y-69852380D01*
X110957142Y-70185714D02*
X110957142Y-70852380D01*
X111195238Y-69804761D02*
X111433333Y-70519047D01*
X110814285Y-70519047D01*
G04 #@! TO.C,C303*
X105819047Y-75437142D02*
X105866666Y-75484761D01*
X106009523Y-75532380D01*
X106104761Y-75532380D01*
X106247619Y-75484761D01*
X106342857Y-75389523D01*
X106390476Y-75294285D01*
X106438095Y-75103809D01*
X106438095Y-74960952D01*
X106390476Y-74770476D01*
X106342857Y-74675238D01*
X106247619Y-74580000D01*
X106104761Y-74532380D01*
X106009523Y-74532380D01*
X105866666Y-74580000D01*
X105819047Y-74627619D01*
X105485714Y-74532380D02*
X104866666Y-74532380D01*
X105200000Y-74913333D01*
X105057142Y-74913333D01*
X104961904Y-74960952D01*
X104914285Y-75008571D01*
X104866666Y-75103809D01*
X104866666Y-75341904D01*
X104914285Y-75437142D01*
X104961904Y-75484761D01*
X105057142Y-75532380D01*
X105342857Y-75532380D01*
X105438095Y-75484761D01*
X105485714Y-75437142D01*
X104247619Y-74532380D02*
X104152380Y-74532380D01*
X104057142Y-74580000D01*
X104009523Y-74627619D01*
X103961904Y-74722857D01*
X103914285Y-74913333D01*
X103914285Y-75151428D01*
X103961904Y-75341904D01*
X104009523Y-75437142D01*
X104057142Y-75484761D01*
X104152380Y-75532380D01*
X104247619Y-75532380D01*
X104342857Y-75484761D01*
X104390476Y-75437142D01*
X104438095Y-75341904D01*
X104485714Y-75151428D01*
X104485714Y-74913333D01*
X104438095Y-74722857D01*
X104390476Y-74627619D01*
X104342857Y-74580000D01*
X104247619Y-74532380D01*
X103580952Y-74532380D02*
X102961904Y-74532380D01*
X103295238Y-74913333D01*
X103152380Y-74913333D01*
X103057142Y-74960952D01*
X103009523Y-75008571D01*
X102961904Y-75103809D01*
X102961904Y-75341904D01*
X103009523Y-75437142D01*
X103057142Y-75484761D01*
X103152380Y-75532380D01*
X103438095Y-75532380D01*
X103533333Y-75484761D01*
X103580952Y-75437142D01*
G04 #@! TO.C,C302*
X113119047Y-85257142D02*
X113166666Y-85304761D01*
X113309523Y-85352380D01*
X113404761Y-85352380D01*
X113547619Y-85304761D01*
X113642857Y-85209523D01*
X113690476Y-85114285D01*
X113738095Y-84923809D01*
X113738095Y-84780952D01*
X113690476Y-84590476D01*
X113642857Y-84495238D01*
X113547619Y-84400000D01*
X113404761Y-84352380D01*
X113309523Y-84352380D01*
X113166666Y-84400000D01*
X113119047Y-84447619D01*
X112785714Y-84352380D02*
X112166666Y-84352380D01*
X112500000Y-84733333D01*
X112357142Y-84733333D01*
X112261904Y-84780952D01*
X112214285Y-84828571D01*
X112166666Y-84923809D01*
X112166666Y-85161904D01*
X112214285Y-85257142D01*
X112261904Y-85304761D01*
X112357142Y-85352380D01*
X112642857Y-85352380D01*
X112738095Y-85304761D01*
X112785714Y-85257142D01*
X111547619Y-84352380D02*
X111452380Y-84352380D01*
X111357142Y-84400000D01*
X111309523Y-84447619D01*
X111261904Y-84542857D01*
X111214285Y-84733333D01*
X111214285Y-84971428D01*
X111261904Y-85161904D01*
X111309523Y-85257142D01*
X111357142Y-85304761D01*
X111452380Y-85352380D01*
X111547619Y-85352380D01*
X111642857Y-85304761D01*
X111690476Y-85257142D01*
X111738095Y-85161904D01*
X111785714Y-84971428D01*
X111785714Y-84733333D01*
X111738095Y-84542857D01*
X111690476Y-84447619D01*
X111642857Y-84400000D01*
X111547619Y-84352380D01*
X110833333Y-84447619D02*
X110785714Y-84400000D01*
X110690476Y-84352380D01*
X110452380Y-84352380D01*
X110357142Y-84400000D01*
X110309523Y-84447619D01*
X110261904Y-84542857D01*
X110261904Y-84638095D01*
X110309523Y-84780952D01*
X110880952Y-85352380D01*
X110261904Y-85352380D01*
G04 #@! TO.C,C301*
X108257142Y-80080952D02*
X108304761Y-80033333D01*
X108352380Y-79890476D01*
X108352380Y-79795238D01*
X108304761Y-79652380D01*
X108209523Y-79557142D01*
X108114285Y-79509523D01*
X107923809Y-79461904D01*
X107780952Y-79461904D01*
X107590476Y-79509523D01*
X107495238Y-79557142D01*
X107400000Y-79652380D01*
X107352380Y-79795238D01*
X107352380Y-79890476D01*
X107400000Y-80033333D01*
X107447619Y-80080952D01*
X107352380Y-80414285D02*
X107352380Y-81033333D01*
X107733333Y-80700000D01*
X107733333Y-80842857D01*
X107780952Y-80938095D01*
X107828571Y-80985714D01*
X107923809Y-81033333D01*
X108161904Y-81033333D01*
X108257142Y-80985714D01*
X108304761Y-80938095D01*
X108352380Y-80842857D01*
X108352380Y-80557142D01*
X108304761Y-80461904D01*
X108257142Y-80414285D01*
X107352380Y-81652380D02*
X107352380Y-81747619D01*
X107400000Y-81842857D01*
X107447619Y-81890476D01*
X107542857Y-81938095D01*
X107733333Y-81985714D01*
X107971428Y-81985714D01*
X108161904Y-81938095D01*
X108257142Y-81890476D01*
X108304761Y-81842857D01*
X108352380Y-81747619D01*
X108352380Y-81652380D01*
X108304761Y-81557142D01*
X108257142Y-81509523D01*
X108161904Y-81461904D01*
X107971428Y-81414285D01*
X107733333Y-81414285D01*
X107542857Y-81461904D01*
X107447619Y-81509523D01*
X107400000Y-81557142D01*
X107352380Y-81652380D01*
X108352380Y-82938095D02*
X108352380Y-82366666D01*
X108352380Y-82652380D02*
X107352380Y-82652380D01*
X107495238Y-82557142D01*
X107590476Y-82461904D01*
X107638095Y-82366666D01*
G04 #@! TO.C,C308*
X99719047Y-69657142D02*
X99766666Y-69704761D01*
X99909523Y-69752380D01*
X100004761Y-69752380D01*
X100147619Y-69704761D01*
X100242857Y-69609523D01*
X100290476Y-69514285D01*
X100338095Y-69323809D01*
X100338095Y-69180952D01*
X100290476Y-68990476D01*
X100242857Y-68895238D01*
X100147619Y-68800000D01*
X100004761Y-68752380D01*
X99909523Y-68752380D01*
X99766666Y-68800000D01*
X99719047Y-68847619D01*
X99385714Y-68752380D02*
X98766666Y-68752380D01*
X99100000Y-69133333D01*
X98957142Y-69133333D01*
X98861904Y-69180952D01*
X98814285Y-69228571D01*
X98766666Y-69323809D01*
X98766666Y-69561904D01*
X98814285Y-69657142D01*
X98861904Y-69704761D01*
X98957142Y-69752380D01*
X99242857Y-69752380D01*
X99338095Y-69704761D01*
X99385714Y-69657142D01*
X98147619Y-68752380D02*
X98052380Y-68752380D01*
X97957142Y-68800000D01*
X97909523Y-68847619D01*
X97861904Y-68942857D01*
X97814285Y-69133333D01*
X97814285Y-69371428D01*
X97861904Y-69561904D01*
X97909523Y-69657142D01*
X97957142Y-69704761D01*
X98052380Y-69752380D01*
X98147619Y-69752380D01*
X98242857Y-69704761D01*
X98290476Y-69657142D01*
X98338095Y-69561904D01*
X98385714Y-69371428D01*
X98385714Y-69133333D01*
X98338095Y-68942857D01*
X98290476Y-68847619D01*
X98242857Y-68800000D01*
X98147619Y-68752380D01*
X97242857Y-69180952D02*
X97338095Y-69133333D01*
X97385714Y-69085714D01*
X97433333Y-68990476D01*
X97433333Y-68942857D01*
X97385714Y-68847619D01*
X97338095Y-68800000D01*
X97242857Y-68752380D01*
X97052380Y-68752380D01*
X96957142Y-68800000D01*
X96909523Y-68847619D01*
X96861904Y-68942857D01*
X96861904Y-68990476D01*
X96909523Y-69085714D01*
X96957142Y-69133333D01*
X97052380Y-69180952D01*
X97242857Y-69180952D01*
X97338095Y-69228571D01*
X97385714Y-69276190D01*
X97433333Y-69371428D01*
X97433333Y-69561904D01*
X97385714Y-69657142D01*
X97338095Y-69704761D01*
X97242857Y-69752380D01*
X97052380Y-69752380D01*
X96957142Y-69704761D01*
X96909523Y-69657142D01*
X96861904Y-69561904D01*
X96861904Y-69371428D01*
X96909523Y-69276190D01*
X96957142Y-69228571D01*
X97052380Y-69180952D01*
G04 #@! TO.C,C305*
X87719047Y-81457142D02*
X87766666Y-81504761D01*
X87909523Y-81552380D01*
X88004761Y-81552380D01*
X88147619Y-81504761D01*
X88242857Y-81409523D01*
X88290476Y-81314285D01*
X88338095Y-81123809D01*
X88338095Y-80980952D01*
X88290476Y-80790476D01*
X88242857Y-80695238D01*
X88147619Y-80600000D01*
X88004761Y-80552380D01*
X87909523Y-80552380D01*
X87766666Y-80600000D01*
X87719047Y-80647619D01*
X87385714Y-80552380D02*
X86766666Y-80552380D01*
X87100000Y-80933333D01*
X86957142Y-80933333D01*
X86861904Y-80980952D01*
X86814285Y-81028571D01*
X86766666Y-81123809D01*
X86766666Y-81361904D01*
X86814285Y-81457142D01*
X86861904Y-81504761D01*
X86957142Y-81552380D01*
X87242857Y-81552380D01*
X87338095Y-81504761D01*
X87385714Y-81457142D01*
X86147619Y-80552380D02*
X86052380Y-80552380D01*
X85957142Y-80600000D01*
X85909523Y-80647619D01*
X85861904Y-80742857D01*
X85814285Y-80933333D01*
X85814285Y-81171428D01*
X85861904Y-81361904D01*
X85909523Y-81457142D01*
X85957142Y-81504761D01*
X86052380Y-81552380D01*
X86147619Y-81552380D01*
X86242857Y-81504761D01*
X86290476Y-81457142D01*
X86338095Y-81361904D01*
X86385714Y-81171428D01*
X86385714Y-80933333D01*
X86338095Y-80742857D01*
X86290476Y-80647619D01*
X86242857Y-80600000D01*
X86147619Y-80552380D01*
X84909523Y-80552380D02*
X85385714Y-80552380D01*
X85433333Y-81028571D01*
X85385714Y-80980952D01*
X85290476Y-80933333D01*
X85052380Y-80933333D01*
X84957142Y-80980952D01*
X84909523Y-81028571D01*
X84861904Y-81123809D01*
X84861904Y-81361904D01*
X84909523Y-81457142D01*
X84957142Y-81504761D01*
X85052380Y-81552380D01*
X85290476Y-81552380D01*
X85385714Y-81504761D01*
X85433333Y-81457142D01*
G04 #@! TO.C,C202*
X64519047Y-78807142D02*
X64566666Y-78854761D01*
X64709523Y-78902380D01*
X64804761Y-78902380D01*
X64947619Y-78854761D01*
X65042857Y-78759523D01*
X65090476Y-78664285D01*
X65138095Y-78473809D01*
X65138095Y-78330952D01*
X65090476Y-78140476D01*
X65042857Y-78045238D01*
X64947619Y-77950000D01*
X64804761Y-77902380D01*
X64709523Y-77902380D01*
X64566666Y-77950000D01*
X64519047Y-77997619D01*
X64138095Y-77997619D02*
X64090476Y-77950000D01*
X63995238Y-77902380D01*
X63757142Y-77902380D01*
X63661904Y-77950000D01*
X63614285Y-77997619D01*
X63566666Y-78092857D01*
X63566666Y-78188095D01*
X63614285Y-78330952D01*
X64185714Y-78902380D01*
X63566666Y-78902380D01*
X62947619Y-77902380D02*
X62852380Y-77902380D01*
X62757142Y-77950000D01*
X62709523Y-77997619D01*
X62661904Y-78092857D01*
X62614285Y-78283333D01*
X62614285Y-78521428D01*
X62661904Y-78711904D01*
X62709523Y-78807142D01*
X62757142Y-78854761D01*
X62852380Y-78902380D01*
X62947619Y-78902380D01*
X63042857Y-78854761D01*
X63090476Y-78807142D01*
X63138095Y-78711904D01*
X63185714Y-78521428D01*
X63185714Y-78283333D01*
X63138095Y-78092857D01*
X63090476Y-77997619D01*
X63042857Y-77950000D01*
X62947619Y-77902380D01*
X62233333Y-77997619D02*
X62185714Y-77950000D01*
X62090476Y-77902380D01*
X61852380Y-77902380D01*
X61757142Y-77950000D01*
X61709523Y-77997619D01*
X61661904Y-78092857D01*
X61661904Y-78188095D01*
X61709523Y-78330952D01*
X62280952Y-78902380D01*
X61661904Y-78902380D01*
G04 #@! TO.C,D301*
X124990476Y-99652380D02*
X124990476Y-98652380D01*
X124752380Y-98652380D01*
X124609523Y-98700000D01*
X124514285Y-98795238D01*
X124466666Y-98890476D01*
X124419047Y-99080952D01*
X124419047Y-99223809D01*
X124466666Y-99414285D01*
X124514285Y-99509523D01*
X124609523Y-99604761D01*
X124752380Y-99652380D01*
X124990476Y-99652380D01*
X124085714Y-98652380D02*
X123466666Y-98652380D01*
X123800000Y-99033333D01*
X123657142Y-99033333D01*
X123561904Y-99080952D01*
X123514285Y-99128571D01*
X123466666Y-99223809D01*
X123466666Y-99461904D01*
X123514285Y-99557142D01*
X123561904Y-99604761D01*
X123657142Y-99652380D01*
X123942857Y-99652380D01*
X124038095Y-99604761D01*
X124085714Y-99557142D01*
X122847619Y-98652380D02*
X122752380Y-98652380D01*
X122657142Y-98700000D01*
X122609523Y-98747619D01*
X122561904Y-98842857D01*
X122514285Y-99033333D01*
X122514285Y-99271428D01*
X122561904Y-99461904D01*
X122609523Y-99557142D01*
X122657142Y-99604761D01*
X122752380Y-99652380D01*
X122847619Y-99652380D01*
X122942857Y-99604761D01*
X122990476Y-99557142D01*
X123038095Y-99461904D01*
X123085714Y-99271428D01*
X123085714Y-99033333D01*
X123038095Y-98842857D01*
X122990476Y-98747619D01*
X122942857Y-98700000D01*
X122847619Y-98652380D01*
X121561904Y-99652380D02*
X122133333Y-99652380D01*
X121847619Y-99652380D02*
X121847619Y-98652380D01*
X121942857Y-98795238D01*
X122038095Y-98890476D01*
X122133333Y-98938095D01*
G04 #@! TO.C,D304*
X110790476Y-99652380D02*
X110790476Y-98652380D01*
X110552380Y-98652380D01*
X110409523Y-98700000D01*
X110314285Y-98795238D01*
X110266666Y-98890476D01*
X110219047Y-99080952D01*
X110219047Y-99223809D01*
X110266666Y-99414285D01*
X110314285Y-99509523D01*
X110409523Y-99604761D01*
X110552380Y-99652380D01*
X110790476Y-99652380D01*
X109885714Y-98652380D02*
X109266666Y-98652380D01*
X109600000Y-99033333D01*
X109457142Y-99033333D01*
X109361904Y-99080952D01*
X109314285Y-99128571D01*
X109266666Y-99223809D01*
X109266666Y-99461904D01*
X109314285Y-99557142D01*
X109361904Y-99604761D01*
X109457142Y-99652380D01*
X109742857Y-99652380D01*
X109838095Y-99604761D01*
X109885714Y-99557142D01*
X108647619Y-98652380D02*
X108552380Y-98652380D01*
X108457142Y-98700000D01*
X108409523Y-98747619D01*
X108361904Y-98842857D01*
X108314285Y-99033333D01*
X108314285Y-99271428D01*
X108361904Y-99461904D01*
X108409523Y-99557142D01*
X108457142Y-99604761D01*
X108552380Y-99652380D01*
X108647619Y-99652380D01*
X108742857Y-99604761D01*
X108790476Y-99557142D01*
X108838095Y-99461904D01*
X108885714Y-99271428D01*
X108885714Y-99033333D01*
X108838095Y-98842857D01*
X108790476Y-98747619D01*
X108742857Y-98700000D01*
X108647619Y-98652380D01*
X107457142Y-98985714D02*
X107457142Y-99652380D01*
X107695238Y-98604761D02*
X107933333Y-99319047D01*
X107314285Y-99319047D01*
G04 #@! TO.C,Q301*
X123147619Y-89752380D02*
X123100000Y-89657142D01*
X123004761Y-89561904D01*
X122861904Y-89419047D01*
X122814285Y-89323809D01*
X122814285Y-89228571D01*
X123052380Y-89276190D02*
X123004761Y-89180952D01*
X122909523Y-89085714D01*
X122719047Y-89038095D01*
X122385714Y-89038095D01*
X122195238Y-89085714D01*
X122100000Y-89180952D01*
X122052380Y-89276190D01*
X122052380Y-89466666D01*
X122100000Y-89561904D01*
X122195238Y-89657142D01*
X122385714Y-89704761D01*
X122719047Y-89704761D01*
X122909523Y-89657142D01*
X123004761Y-89561904D01*
X123052380Y-89466666D01*
X123052380Y-89276190D01*
X122052380Y-90038095D02*
X122052380Y-90657142D01*
X122433333Y-90323809D01*
X122433333Y-90466666D01*
X122480952Y-90561904D01*
X122528571Y-90609523D01*
X122623809Y-90657142D01*
X122861904Y-90657142D01*
X122957142Y-90609523D01*
X123004761Y-90561904D01*
X123052380Y-90466666D01*
X123052380Y-90180952D01*
X123004761Y-90085714D01*
X122957142Y-90038095D01*
X122052380Y-91276190D02*
X122052380Y-91371428D01*
X122100000Y-91466666D01*
X122147619Y-91514285D01*
X122242857Y-91561904D01*
X122433333Y-91609523D01*
X122671428Y-91609523D01*
X122861904Y-91561904D01*
X122957142Y-91514285D01*
X123004761Y-91466666D01*
X123052380Y-91371428D01*
X123052380Y-91276190D01*
X123004761Y-91180952D01*
X122957142Y-91133333D01*
X122861904Y-91085714D01*
X122671428Y-91038095D01*
X122433333Y-91038095D01*
X122242857Y-91085714D01*
X122147619Y-91133333D01*
X122100000Y-91180952D01*
X122052380Y-91276190D01*
X123052380Y-92561904D02*
X123052380Y-91990476D01*
X123052380Y-92276190D02*
X122052380Y-92276190D01*
X122195238Y-92180952D01*
X122290476Y-92085714D01*
X122338095Y-91990476D01*
G04 #@! TO.C,Q302*
X110148619Y-90011380D02*
X110101000Y-89916142D01*
X110005761Y-89820904D01*
X109862904Y-89678047D01*
X109815285Y-89582809D01*
X109815285Y-89487571D01*
X110053380Y-89535190D02*
X110005761Y-89439952D01*
X109910523Y-89344714D01*
X109720047Y-89297095D01*
X109386714Y-89297095D01*
X109196238Y-89344714D01*
X109101000Y-89439952D01*
X109053380Y-89535190D01*
X109053380Y-89725666D01*
X109101000Y-89820904D01*
X109196238Y-89916142D01*
X109386714Y-89963761D01*
X109720047Y-89963761D01*
X109910523Y-89916142D01*
X110005761Y-89820904D01*
X110053380Y-89725666D01*
X110053380Y-89535190D01*
X109053380Y-90297095D02*
X109053380Y-90916142D01*
X109434333Y-90582809D01*
X109434333Y-90725666D01*
X109481952Y-90820904D01*
X109529571Y-90868523D01*
X109624809Y-90916142D01*
X109862904Y-90916142D01*
X109958142Y-90868523D01*
X110005761Y-90820904D01*
X110053380Y-90725666D01*
X110053380Y-90439952D01*
X110005761Y-90344714D01*
X109958142Y-90297095D01*
X109053380Y-91535190D02*
X109053380Y-91630428D01*
X109101000Y-91725666D01*
X109148619Y-91773285D01*
X109243857Y-91820904D01*
X109434333Y-91868523D01*
X109672428Y-91868523D01*
X109862904Y-91820904D01*
X109958142Y-91773285D01*
X110005761Y-91725666D01*
X110053380Y-91630428D01*
X110053380Y-91535190D01*
X110005761Y-91439952D01*
X109958142Y-91392333D01*
X109862904Y-91344714D01*
X109672428Y-91297095D01*
X109434333Y-91297095D01*
X109243857Y-91344714D01*
X109148619Y-91392333D01*
X109101000Y-91439952D01*
X109053380Y-91535190D01*
X109148619Y-92249476D02*
X109101000Y-92297095D01*
X109053380Y-92392333D01*
X109053380Y-92630428D01*
X109101000Y-92725666D01*
X109148619Y-92773285D01*
X109243857Y-92820904D01*
X109339095Y-92820904D01*
X109481952Y-92773285D01*
X110053380Y-92201857D01*
X110053380Y-92820904D01*
G04 #@! TO.C,R301*
X116819047Y-88052380D02*
X117152380Y-87576190D01*
X117390476Y-88052380D02*
X117390476Y-87052380D01*
X117009523Y-87052380D01*
X116914285Y-87100000D01*
X116866666Y-87147619D01*
X116819047Y-87242857D01*
X116819047Y-87385714D01*
X116866666Y-87480952D01*
X116914285Y-87528571D01*
X117009523Y-87576190D01*
X117390476Y-87576190D01*
X116485714Y-87052380D02*
X115866666Y-87052380D01*
X116200000Y-87433333D01*
X116057142Y-87433333D01*
X115961904Y-87480952D01*
X115914285Y-87528571D01*
X115866666Y-87623809D01*
X115866666Y-87861904D01*
X115914285Y-87957142D01*
X115961904Y-88004761D01*
X116057142Y-88052380D01*
X116342857Y-88052380D01*
X116438095Y-88004761D01*
X116485714Y-87957142D01*
X115247619Y-87052380D02*
X115152380Y-87052380D01*
X115057142Y-87100000D01*
X115009523Y-87147619D01*
X114961904Y-87242857D01*
X114914285Y-87433333D01*
X114914285Y-87671428D01*
X114961904Y-87861904D01*
X115009523Y-87957142D01*
X115057142Y-88004761D01*
X115152380Y-88052380D01*
X115247619Y-88052380D01*
X115342857Y-88004761D01*
X115390476Y-87957142D01*
X115438095Y-87861904D01*
X115485714Y-87671428D01*
X115485714Y-87433333D01*
X115438095Y-87242857D01*
X115390476Y-87147619D01*
X115342857Y-87100000D01*
X115247619Y-87052380D01*
X113961904Y-88052380D02*
X114533333Y-88052380D01*
X114247619Y-88052380D02*
X114247619Y-87052380D01*
X114342857Y-87195238D01*
X114438095Y-87290476D01*
X114533333Y-87338095D01*
G04 #@! TO.C,R303*
X116952380Y-93880952D02*
X116476190Y-93547619D01*
X116952380Y-93309523D02*
X115952380Y-93309523D01*
X115952380Y-93690476D01*
X116000000Y-93785714D01*
X116047619Y-93833333D01*
X116142857Y-93880952D01*
X116285714Y-93880952D01*
X116380952Y-93833333D01*
X116428571Y-93785714D01*
X116476190Y-93690476D01*
X116476190Y-93309523D01*
X115952380Y-94214285D02*
X115952380Y-94833333D01*
X116333333Y-94500000D01*
X116333333Y-94642857D01*
X116380952Y-94738095D01*
X116428571Y-94785714D01*
X116523809Y-94833333D01*
X116761904Y-94833333D01*
X116857142Y-94785714D01*
X116904761Y-94738095D01*
X116952380Y-94642857D01*
X116952380Y-94357142D01*
X116904761Y-94261904D01*
X116857142Y-94214285D01*
X115952380Y-95452380D02*
X115952380Y-95547619D01*
X116000000Y-95642857D01*
X116047619Y-95690476D01*
X116142857Y-95738095D01*
X116333333Y-95785714D01*
X116571428Y-95785714D01*
X116761904Y-95738095D01*
X116857142Y-95690476D01*
X116904761Y-95642857D01*
X116952380Y-95547619D01*
X116952380Y-95452380D01*
X116904761Y-95357142D01*
X116857142Y-95309523D01*
X116761904Y-95261904D01*
X116571428Y-95214285D01*
X116333333Y-95214285D01*
X116142857Y-95261904D01*
X116047619Y-95309523D01*
X116000000Y-95357142D01*
X115952380Y-95452380D01*
X115952380Y-96119047D02*
X115952380Y-96738095D01*
X116333333Y-96404761D01*
X116333333Y-96547619D01*
X116380952Y-96642857D01*
X116428571Y-96690476D01*
X116523809Y-96738095D01*
X116761904Y-96738095D01*
X116857142Y-96690476D01*
X116904761Y-96642857D01*
X116952380Y-96547619D01*
X116952380Y-96261904D01*
X116904761Y-96166666D01*
X116857142Y-96119047D01*
G04 #@! TO.C,R309*
X103619047Y-87952380D02*
X103952380Y-87476190D01*
X104190476Y-87952380D02*
X104190476Y-86952380D01*
X103809523Y-86952380D01*
X103714285Y-87000000D01*
X103666666Y-87047619D01*
X103619047Y-87142857D01*
X103619047Y-87285714D01*
X103666666Y-87380952D01*
X103714285Y-87428571D01*
X103809523Y-87476190D01*
X104190476Y-87476190D01*
X103285714Y-86952380D02*
X102666666Y-86952380D01*
X103000000Y-87333333D01*
X102857142Y-87333333D01*
X102761904Y-87380952D01*
X102714285Y-87428571D01*
X102666666Y-87523809D01*
X102666666Y-87761904D01*
X102714285Y-87857142D01*
X102761904Y-87904761D01*
X102857142Y-87952380D01*
X103142857Y-87952380D01*
X103238095Y-87904761D01*
X103285714Y-87857142D01*
X102047619Y-86952380D02*
X101952380Y-86952380D01*
X101857142Y-87000000D01*
X101809523Y-87047619D01*
X101761904Y-87142857D01*
X101714285Y-87333333D01*
X101714285Y-87571428D01*
X101761904Y-87761904D01*
X101809523Y-87857142D01*
X101857142Y-87904761D01*
X101952380Y-87952380D01*
X102047619Y-87952380D01*
X102142857Y-87904761D01*
X102190476Y-87857142D01*
X102238095Y-87761904D01*
X102285714Y-87571428D01*
X102285714Y-87333333D01*
X102238095Y-87142857D01*
X102190476Y-87047619D01*
X102142857Y-87000000D01*
X102047619Y-86952380D01*
X101238095Y-87952380D02*
X101047619Y-87952380D01*
X100952380Y-87904761D01*
X100904761Y-87857142D01*
X100809523Y-87714285D01*
X100761904Y-87523809D01*
X100761904Y-87142857D01*
X100809523Y-87047619D01*
X100857142Y-87000000D01*
X100952380Y-86952380D01*
X101142857Y-86952380D01*
X101238095Y-87000000D01*
X101285714Y-87047619D01*
X101333333Y-87142857D01*
X101333333Y-87380952D01*
X101285714Y-87476190D01*
X101238095Y-87523809D01*
X101142857Y-87571428D01*
X100952380Y-87571428D01*
X100857142Y-87523809D01*
X100809523Y-87476190D01*
X100761904Y-87380952D01*
G04 #@! TO.C,R310*
X104019047Y-94452380D02*
X104352380Y-93976190D01*
X104590476Y-94452380D02*
X104590476Y-93452380D01*
X104209523Y-93452380D01*
X104114285Y-93500000D01*
X104066666Y-93547619D01*
X104019047Y-93642857D01*
X104019047Y-93785714D01*
X104066666Y-93880952D01*
X104114285Y-93928571D01*
X104209523Y-93976190D01*
X104590476Y-93976190D01*
X103685714Y-93452380D02*
X103066666Y-93452380D01*
X103400000Y-93833333D01*
X103257142Y-93833333D01*
X103161904Y-93880952D01*
X103114285Y-93928571D01*
X103066666Y-94023809D01*
X103066666Y-94261904D01*
X103114285Y-94357142D01*
X103161904Y-94404761D01*
X103257142Y-94452380D01*
X103542857Y-94452380D01*
X103638095Y-94404761D01*
X103685714Y-94357142D01*
X102114285Y-94452380D02*
X102685714Y-94452380D01*
X102400000Y-94452380D02*
X102400000Y-93452380D01*
X102495238Y-93595238D01*
X102590476Y-93690476D01*
X102685714Y-93738095D01*
X101495238Y-93452380D02*
X101400000Y-93452380D01*
X101304761Y-93500000D01*
X101257142Y-93547619D01*
X101209523Y-93642857D01*
X101161904Y-93833333D01*
X101161904Y-94071428D01*
X101209523Y-94261904D01*
X101257142Y-94357142D01*
X101304761Y-94404761D01*
X101400000Y-94452380D01*
X101495238Y-94452380D01*
X101590476Y-94404761D01*
X101638095Y-94357142D01*
X101685714Y-94261904D01*
X101733333Y-94071428D01*
X101733333Y-93833333D01*
X101685714Y-93642857D01*
X101638095Y-93547619D01*
X101590476Y-93500000D01*
X101495238Y-93452380D01*
G04 #@! TO.C,R312*
X92319047Y-75152380D02*
X92652380Y-74676190D01*
X92890476Y-75152380D02*
X92890476Y-74152380D01*
X92509523Y-74152380D01*
X92414285Y-74200000D01*
X92366666Y-74247619D01*
X92319047Y-74342857D01*
X92319047Y-74485714D01*
X92366666Y-74580952D01*
X92414285Y-74628571D01*
X92509523Y-74676190D01*
X92890476Y-74676190D01*
X91985714Y-74152380D02*
X91366666Y-74152380D01*
X91700000Y-74533333D01*
X91557142Y-74533333D01*
X91461904Y-74580952D01*
X91414285Y-74628571D01*
X91366666Y-74723809D01*
X91366666Y-74961904D01*
X91414285Y-75057142D01*
X91461904Y-75104761D01*
X91557142Y-75152380D01*
X91842857Y-75152380D01*
X91938095Y-75104761D01*
X91985714Y-75057142D01*
X90414285Y-75152380D02*
X90985714Y-75152380D01*
X90700000Y-75152380D02*
X90700000Y-74152380D01*
X90795238Y-74295238D01*
X90890476Y-74390476D01*
X90985714Y-74438095D01*
X90033333Y-74247619D02*
X89985714Y-74200000D01*
X89890476Y-74152380D01*
X89652380Y-74152380D01*
X89557142Y-74200000D01*
X89509523Y-74247619D01*
X89461904Y-74342857D01*
X89461904Y-74438095D01*
X89509523Y-74580952D01*
X90080952Y-75152380D01*
X89461904Y-75152380D01*
G04 #@! TO.C,Q304*
X124147619Y-73252380D02*
X124100000Y-73157142D01*
X124004761Y-73061904D01*
X123861904Y-72919047D01*
X123814285Y-72823809D01*
X123814285Y-72728571D01*
X124052380Y-72776190D02*
X124004761Y-72680952D01*
X123909523Y-72585714D01*
X123719047Y-72538095D01*
X123385714Y-72538095D01*
X123195238Y-72585714D01*
X123100000Y-72680952D01*
X123052380Y-72776190D01*
X123052380Y-72966666D01*
X123100000Y-73061904D01*
X123195238Y-73157142D01*
X123385714Y-73204761D01*
X123719047Y-73204761D01*
X123909523Y-73157142D01*
X124004761Y-73061904D01*
X124052380Y-72966666D01*
X124052380Y-72776190D01*
X123052380Y-73538095D02*
X123052380Y-74157142D01*
X123433333Y-73823809D01*
X123433333Y-73966666D01*
X123480952Y-74061904D01*
X123528571Y-74109523D01*
X123623809Y-74157142D01*
X123861904Y-74157142D01*
X123957142Y-74109523D01*
X124004761Y-74061904D01*
X124052380Y-73966666D01*
X124052380Y-73680952D01*
X124004761Y-73585714D01*
X123957142Y-73538095D01*
X123052380Y-74776190D02*
X123052380Y-74871428D01*
X123100000Y-74966666D01*
X123147619Y-75014285D01*
X123242857Y-75061904D01*
X123433333Y-75109523D01*
X123671428Y-75109523D01*
X123861904Y-75061904D01*
X123957142Y-75014285D01*
X124004761Y-74966666D01*
X124052380Y-74871428D01*
X124052380Y-74776190D01*
X124004761Y-74680952D01*
X123957142Y-74633333D01*
X123861904Y-74585714D01*
X123671428Y-74538095D01*
X123433333Y-74538095D01*
X123242857Y-74585714D01*
X123147619Y-74633333D01*
X123100000Y-74680952D01*
X123052380Y-74776190D01*
X123385714Y-75966666D02*
X124052380Y-75966666D01*
X123004761Y-75728571D02*
X123719047Y-75490476D01*
X123719047Y-76109523D01*
G04 #@! TO.C,R316*
X131352380Y-82480952D02*
X130876190Y-82147619D01*
X131352380Y-81909523D02*
X130352380Y-81909523D01*
X130352380Y-82290476D01*
X130400000Y-82385714D01*
X130447619Y-82433333D01*
X130542857Y-82480952D01*
X130685714Y-82480952D01*
X130780952Y-82433333D01*
X130828571Y-82385714D01*
X130876190Y-82290476D01*
X130876190Y-81909523D01*
X130352380Y-82814285D02*
X130352380Y-83433333D01*
X130733333Y-83100000D01*
X130733333Y-83242857D01*
X130780952Y-83338095D01*
X130828571Y-83385714D01*
X130923809Y-83433333D01*
X131161904Y-83433333D01*
X131257142Y-83385714D01*
X131304761Y-83338095D01*
X131352380Y-83242857D01*
X131352380Y-82957142D01*
X131304761Y-82861904D01*
X131257142Y-82814285D01*
X131352380Y-84385714D02*
X131352380Y-83814285D01*
X131352380Y-84100000D02*
X130352380Y-84100000D01*
X130495238Y-84004761D01*
X130590476Y-83909523D01*
X130638095Y-83814285D01*
X130352380Y-85242857D02*
X130352380Y-85052380D01*
X130400000Y-84957142D01*
X130447619Y-84909523D01*
X130590476Y-84814285D01*
X130780952Y-84766666D01*
X131161904Y-84766666D01*
X131257142Y-84814285D01*
X131304761Y-84861904D01*
X131352380Y-84957142D01*
X131352380Y-85147619D01*
X131304761Y-85242857D01*
X131257142Y-85290476D01*
X131161904Y-85338095D01*
X130923809Y-85338095D01*
X130828571Y-85290476D01*
X130780952Y-85242857D01*
X130733333Y-85147619D01*
X130733333Y-84957142D01*
X130780952Y-84861904D01*
X130828571Y-84814285D01*
X130923809Y-84766666D01*
G04 #@! TO.C,R317*
X140252380Y-82580952D02*
X139776190Y-82247619D01*
X140252380Y-82009523D02*
X139252380Y-82009523D01*
X139252380Y-82390476D01*
X139300000Y-82485714D01*
X139347619Y-82533333D01*
X139442857Y-82580952D01*
X139585714Y-82580952D01*
X139680952Y-82533333D01*
X139728571Y-82485714D01*
X139776190Y-82390476D01*
X139776190Y-82009523D01*
X139252380Y-82914285D02*
X139252380Y-83533333D01*
X139633333Y-83200000D01*
X139633333Y-83342857D01*
X139680952Y-83438095D01*
X139728571Y-83485714D01*
X139823809Y-83533333D01*
X140061904Y-83533333D01*
X140157142Y-83485714D01*
X140204761Y-83438095D01*
X140252380Y-83342857D01*
X140252380Y-83057142D01*
X140204761Y-82961904D01*
X140157142Y-82914285D01*
X140252380Y-84485714D02*
X140252380Y-83914285D01*
X140252380Y-84200000D02*
X139252380Y-84200000D01*
X139395238Y-84104761D01*
X139490476Y-84009523D01*
X139538095Y-83914285D01*
X139252380Y-84819047D02*
X139252380Y-85485714D01*
X140252380Y-85057142D01*
G04 #@! TO.C,R319*
X128881047Y-68852380D02*
X129214380Y-68376190D01*
X129452476Y-68852380D02*
X129452476Y-67852380D01*
X129071523Y-67852380D01*
X128976285Y-67900000D01*
X128928666Y-67947619D01*
X128881047Y-68042857D01*
X128881047Y-68185714D01*
X128928666Y-68280952D01*
X128976285Y-68328571D01*
X129071523Y-68376190D01*
X129452476Y-68376190D01*
X128547714Y-67852380D02*
X127928666Y-67852380D01*
X128262000Y-68233333D01*
X128119142Y-68233333D01*
X128023904Y-68280952D01*
X127976285Y-68328571D01*
X127928666Y-68423809D01*
X127928666Y-68661904D01*
X127976285Y-68757142D01*
X128023904Y-68804761D01*
X128119142Y-68852380D01*
X128404857Y-68852380D01*
X128500095Y-68804761D01*
X128547714Y-68757142D01*
X126976285Y-68852380D02*
X127547714Y-68852380D01*
X127262000Y-68852380D02*
X127262000Y-67852380D01*
X127357238Y-67995238D01*
X127452476Y-68090476D01*
X127547714Y-68138095D01*
X126500095Y-68852380D02*
X126309619Y-68852380D01*
X126214380Y-68804761D01*
X126166761Y-68757142D01*
X126071523Y-68614285D01*
X126023904Y-68423809D01*
X126023904Y-68042857D01*
X126071523Y-67947619D01*
X126119142Y-67900000D01*
X126214380Y-67852380D01*
X126404857Y-67852380D01*
X126500095Y-67900000D01*
X126547714Y-67947619D01*
X126595333Y-68042857D01*
X126595333Y-68280952D01*
X126547714Y-68376190D01*
X126500095Y-68423809D01*
X126404857Y-68471428D01*
X126214380Y-68471428D01*
X126119142Y-68423809D01*
X126071523Y-68376190D01*
X126023904Y-68280952D01*
G04 #@! TO.C,R321*
X127065047Y-80946380D02*
X127398380Y-80470190D01*
X127636476Y-80946380D02*
X127636476Y-79946380D01*
X127255523Y-79946380D01*
X127160285Y-79994000D01*
X127112666Y-80041619D01*
X127065047Y-80136857D01*
X127065047Y-80279714D01*
X127112666Y-80374952D01*
X127160285Y-80422571D01*
X127255523Y-80470190D01*
X127636476Y-80470190D01*
X126731714Y-79946380D02*
X126112666Y-79946380D01*
X126446000Y-80327333D01*
X126303142Y-80327333D01*
X126207904Y-80374952D01*
X126160285Y-80422571D01*
X126112666Y-80517809D01*
X126112666Y-80755904D01*
X126160285Y-80851142D01*
X126207904Y-80898761D01*
X126303142Y-80946380D01*
X126588857Y-80946380D01*
X126684095Y-80898761D01*
X126731714Y-80851142D01*
X125731714Y-80041619D02*
X125684095Y-79994000D01*
X125588857Y-79946380D01*
X125350761Y-79946380D01*
X125255523Y-79994000D01*
X125207904Y-80041619D01*
X125160285Y-80136857D01*
X125160285Y-80232095D01*
X125207904Y-80374952D01*
X125779333Y-80946380D01*
X125160285Y-80946380D01*
X124207904Y-80946380D02*
X124779333Y-80946380D01*
X124493619Y-80946380D02*
X124493619Y-79946380D01*
X124588857Y-80089238D01*
X124684095Y-80184476D01*
X124779333Y-80232095D01*
G04 #@! TO.C,C101*
X89607142Y-96880952D02*
X89654761Y-96833333D01*
X89702380Y-96690476D01*
X89702380Y-96595238D01*
X89654761Y-96452380D01*
X89559523Y-96357142D01*
X89464285Y-96309523D01*
X89273809Y-96261904D01*
X89130952Y-96261904D01*
X88940476Y-96309523D01*
X88845238Y-96357142D01*
X88750000Y-96452380D01*
X88702380Y-96595238D01*
X88702380Y-96690476D01*
X88750000Y-96833333D01*
X88797619Y-96880952D01*
X89702380Y-97833333D02*
X89702380Y-97261904D01*
X89702380Y-97547619D02*
X88702380Y-97547619D01*
X88845238Y-97452380D01*
X88940476Y-97357142D01*
X88988095Y-97261904D01*
X88702380Y-98452380D02*
X88702380Y-98547619D01*
X88750000Y-98642857D01*
X88797619Y-98690476D01*
X88892857Y-98738095D01*
X89083333Y-98785714D01*
X89321428Y-98785714D01*
X89511904Y-98738095D01*
X89607142Y-98690476D01*
X89654761Y-98642857D01*
X89702380Y-98547619D01*
X89702380Y-98452380D01*
X89654761Y-98357142D01*
X89607142Y-98309523D01*
X89511904Y-98261904D01*
X89321428Y-98214285D01*
X89083333Y-98214285D01*
X88892857Y-98261904D01*
X88797619Y-98309523D01*
X88750000Y-98357142D01*
X88702380Y-98452380D01*
X89702380Y-99738095D02*
X89702380Y-99166666D01*
X89702380Y-99452380D02*
X88702380Y-99452380D01*
X88845238Y-99357142D01*
X88940476Y-99261904D01*
X88988095Y-99166666D01*
G04 #@! TO.C,C102*
X82257142Y-96880952D02*
X82304761Y-96833333D01*
X82352380Y-96690476D01*
X82352380Y-96595238D01*
X82304761Y-96452380D01*
X82209523Y-96357142D01*
X82114285Y-96309523D01*
X81923809Y-96261904D01*
X81780952Y-96261904D01*
X81590476Y-96309523D01*
X81495238Y-96357142D01*
X81400000Y-96452380D01*
X81352380Y-96595238D01*
X81352380Y-96690476D01*
X81400000Y-96833333D01*
X81447619Y-96880952D01*
X82352380Y-97833333D02*
X82352380Y-97261904D01*
X82352380Y-97547619D02*
X81352380Y-97547619D01*
X81495238Y-97452380D01*
X81590476Y-97357142D01*
X81638095Y-97261904D01*
X81352380Y-98452380D02*
X81352380Y-98547619D01*
X81400000Y-98642857D01*
X81447619Y-98690476D01*
X81542857Y-98738095D01*
X81733333Y-98785714D01*
X81971428Y-98785714D01*
X82161904Y-98738095D01*
X82257142Y-98690476D01*
X82304761Y-98642857D01*
X82352380Y-98547619D01*
X82352380Y-98452380D01*
X82304761Y-98357142D01*
X82257142Y-98309523D01*
X82161904Y-98261904D01*
X81971428Y-98214285D01*
X81733333Y-98214285D01*
X81542857Y-98261904D01*
X81447619Y-98309523D01*
X81400000Y-98357142D01*
X81352380Y-98452380D01*
X81447619Y-99166666D02*
X81400000Y-99214285D01*
X81352380Y-99309523D01*
X81352380Y-99547619D01*
X81400000Y-99642857D01*
X81447619Y-99690476D01*
X81542857Y-99738095D01*
X81638095Y-99738095D01*
X81780952Y-99690476D01*
X82352380Y-99119047D01*
X82352380Y-99738095D01*
G04 #@! TO.C,C201*
X64519047Y-81557142D02*
X64566666Y-81604761D01*
X64709523Y-81652380D01*
X64804761Y-81652380D01*
X64947619Y-81604761D01*
X65042857Y-81509523D01*
X65090476Y-81414285D01*
X65138095Y-81223809D01*
X65138095Y-81080952D01*
X65090476Y-80890476D01*
X65042857Y-80795238D01*
X64947619Y-80700000D01*
X64804761Y-80652380D01*
X64709523Y-80652380D01*
X64566666Y-80700000D01*
X64519047Y-80747619D01*
X64138095Y-80747619D02*
X64090476Y-80700000D01*
X63995238Y-80652380D01*
X63757142Y-80652380D01*
X63661904Y-80700000D01*
X63614285Y-80747619D01*
X63566666Y-80842857D01*
X63566666Y-80938095D01*
X63614285Y-81080952D01*
X64185714Y-81652380D01*
X63566666Y-81652380D01*
X62947619Y-80652380D02*
X62852380Y-80652380D01*
X62757142Y-80700000D01*
X62709523Y-80747619D01*
X62661904Y-80842857D01*
X62614285Y-81033333D01*
X62614285Y-81271428D01*
X62661904Y-81461904D01*
X62709523Y-81557142D01*
X62757142Y-81604761D01*
X62852380Y-81652380D01*
X62947619Y-81652380D01*
X63042857Y-81604761D01*
X63090476Y-81557142D01*
X63138095Y-81461904D01*
X63185714Y-81271428D01*
X63185714Y-81033333D01*
X63138095Y-80842857D01*
X63090476Y-80747619D01*
X63042857Y-80700000D01*
X62947619Y-80652380D01*
X61661904Y-81652380D02*
X62233333Y-81652380D01*
X61947619Y-81652380D02*
X61947619Y-80652380D01*
X62042857Y-80795238D01*
X62138095Y-80890476D01*
X62233333Y-80938095D01*
G04 #@! TO.C,C203*
X64519047Y-75807142D02*
X64566666Y-75854761D01*
X64709523Y-75902380D01*
X64804761Y-75902380D01*
X64947619Y-75854761D01*
X65042857Y-75759523D01*
X65090476Y-75664285D01*
X65138095Y-75473809D01*
X65138095Y-75330952D01*
X65090476Y-75140476D01*
X65042857Y-75045238D01*
X64947619Y-74950000D01*
X64804761Y-74902380D01*
X64709523Y-74902380D01*
X64566666Y-74950000D01*
X64519047Y-74997619D01*
X64138095Y-74997619D02*
X64090476Y-74950000D01*
X63995238Y-74902380D01*
X63757142Y-74902380D01*
X63661904Y-74950000D01*
X63614285Y-74997619D01*
X63566666Y-75092857D01*
X63566666Y-75188095D01*
X63614285Y-75330952D01*
X64185714Y-75902380D01*
X63566666Y-75902380D01*
X62947619Y-74902380D02*
X62852380Y-74902380D01*
X62757142Y-74950000D01*
X62709523Y-74997619D01*
X62661904Y-75092857D01*
X62614285Y-75283333D01*
X62614285Y-75521428D01*
X62661904Y-75711904D01*
X62709523Y-75807142D01*
X62757142Y-75854761D01*
X62852380Y-75902380D01*
X62947619Y-75902380D01*
X63042857Y-75854761D01*
X63090476Y-75807142D01*
X63138095Y-75711904D01*
X63185714Y-75521428D01*
X63185714Y-75283333D01*
X63138095Y-75092857D01*
X63090476Y-74997619D01*
X63042857Y-74950000D01*
X62947619Y-74902380D01*
X62280952Y-74902380D02*
X61661904Y-74902380D01*
X61995238Y-75283333D01*
X61852380Y-75283333D01*
X61757142Y-75330952D01*
X61709523Y-75378571D01*
X61661904Y-75473809D01*
X61661904Y-75711904D01*
X61709523Y-75807142D01*
X61757142Y-75854761D01*
X61852380Y-75902380D01*
X62138095Y-75902380D01*
X62233333Y-75854761D01*
X62280952Y-75807142D01*
G04 #@! TO.C,C204*
X64519047Y-72557142D02*
X64566666Y-72604761D01*
X64709523Y-72652380D01*
X64804761Y-72652380D01*
X64947619Y-72604761D01*
X65042857Y-72509523D01*
X65090476Y-72414285D01*
X65138095Y-72223809D01*
X65138095Y-72080952D01*
X65090476Y-71890476D01*
X65042857Y-71795238D01*
X64947619Y-71700000D01*
X64804761Y-71652380D01*
X64709523Y-71652380D01*
X64566666Y-71700000D01*
X64519047Y-71747619D01*
X64138095Y-71747619D02*
X64090476Y-71700000D01*
X63995238Y-71652380D01*
X63757142Y-71652380D01*
X63661904Y-71700000D01*
X63614285Y-71747619D01*
X63566666Y-71842857D01*
X63566666Y-71938095D01*
X63614285Y-72080952D01*
X64185714Y-72652380D01*
X63566666Y-72652380D01*
X62947619Y-71652380D02*
X62852380Y-71652380D01*
X62757142Y-71700000D01*
X62709523Y-71747619D01*
X62661904Y-71842857D01*
X62614285Y-72033333D01*
X62614285Y-72271428D01*
X62661904Y-72461904D01*
X62709523Y-72557142D01*
X62757142Y-72604761D01*
X62852380Y-72652380D01*
X62947619Y-72652380D01*
X63042857Y-72604761D01*
X63090476Y-72557142D01*
X63138095Y-72461904D01*
X63185714Y-72271428D01*
X63185714Y-72033333D01*
X63138095Y-71842857D01*
X63090476Y-71747619D01*
X63042857Y-71700000D01*
X62947619Y-71652380D01*
X61757142Y-71985714D02*
X61757142Y-72652380D01*
X61995238Y-71604761D02*
X62233333Y-72319047D01*
X61614285Y-72319047D01*
G04 #@! TO.C,L201*
X70812380Y-85205952D02*
X70812380Y-84729761D01*
X69812380Y-84729761D01*
X69907619Y-85491666D02*
X69860000Y-85539285D01*
X69812380Y-85634523D01*
X69812380Y-85872619D01*
X69860000Y-85967857D01*
X69907619Y-86015476D01*
X70002857Y-86063095D01*
X70098095Y-86063095D01*
X70240952Y-86015476D01*
X70812380Y-85444047D01*
X70812380Y-86063095D01*
X69812380Y-86682142D02*
X69812380Y-86777380D01*
X69860000Y-86872619D01*
X69907619Y-86920238D01*
X70002857Y-86967857D01*
X70193333Y-87015476D01*
X70431428Y-87015476D01*
X70621904Y-86967857D01*
X70717142Y-86920238D01*
X70764761Y-86872619D01*
X70812380Y-86777380D01*
X70812380Y-86682142D01*
X70764761Y-86586904D01*
X70717142Y-86539285D01*
X70621904Y-86491666D01*
X70431428Y-86444047D01*
X70193333Y-86444047D01*
X70002857Y-86491666D01*
X69907619Y-86539285D01*
X69860000Y-86586904D01*
X69812380Y-86682142D01*
X70812380Y-87967857D02*
X70812380Y-87396428D01*
X70812380Y-87682142D02*
X69812380Y-87682142D01*
X69955238Y-87586904D01*
X70050476Y-87491666D01*
X70098095Y-87396428D01*
G04 #@! TO.C,L301*
X73819047Y-65952380D02*
X74295238Y-65952380D01*
X74295238Y-64952380D01*
X73580952Y-64952380D02*
X72961904Y-64952380D01*
X73295238Y-65333333D01*
X73152380Y-65333333D01*
X73057142Y-65380952D01*
X73009523Y-65428571D01*
X72961904Y-65523809D01*
X72961904Y-65761904D01*
X73009523Y-65857142D01*
X73057142Y-65904761D01*
X73152380Y-65952380D01*
X73438095Y-65952380D01*
X73533333Y-65904761D01*
X73580952Y-65857142D01*
X72342857Y-64952380D02*
X72247619Y-64952380D01*
X72152380Y-65000000D01*
X72104761Y-65047619D01*
X72057142Y-65142857D01*
X72009523Y-65333333D01*
X72009523Y-65571428D01*
X72057142Y-65761904D01*
X72104761Y-65857142D01*
X72152380Y-65904761D01*
X72247619Y-65952380D01*
X72342857Y-65952380D01*
X72438095Y-65904761D01*
X72485714Y-65857142D01*
X72533333Y-65761904D01*
X72580952Y-65571428D01*
X72580952Y-65333333D01*
X72533333Y-65142857D01*
X72485714Y-65047619D01*
X72438095Y-65000000D01*
X72342857Y-64952380D01*
X71057142Y-65952380D02*
X71628571Y-65952380D01*
X71342857Y-65952380D02*
X71342857Y-64952380D01*
X71438095Y-65095238D01*
X71533333Y-65190476D01*
X71628571Y-65238095D01*
G04 #@! TO.C,C105*
X98857142Y-86130952D02*
X98904761Y-86083333D01*
X98952380Y-85940476D01*
X98952380Y-85845238D01*
X98904761Y-85702380D01*
X98809523Y-85607142D01*
X98714285Y-85559523D01*
X98523809Y-85511904D01*
X98380952Y-85511904D01*
X98190476Y-85559523D01*
X98095238Y-85607142D01*
X98000000Y-85702380D01*
X97952380Y-85845238D01*
X97952380Y-85940476D01*
X98000000Y-86083333D01*
X98047619Y-86130952D01*
X98952380Y-87083333D02*
X98952380Y-86511904D01*
X98952380Y-86797619D02*
X97952380Y-86797619D01*
X98095238Y-86702380D01*
X98190476Y-86607142D01*
X98238095Y-86511904D01*
X97952380Y-87702380D02*
X97952380Y-87797619D01*
X98000000Y-87892857D01*
X98047619Y-87940476D01*
X98142857Y-87988095D01*
X98333333Y-88035714D01*
X98571428Y-88035714D01*
X98761904Y-87988095D01*
X98857142Y-87940476D01*
X98904761Y-87892857D01*
X98952380Y-87797619D01*
X98952380Y-87702380D01*
X98904761Y-87607142D01*
X98857142Y-87559523D01*
X98761904Y-87511904D01*
X98571428Y-87464285D01*
X98333333Y-87464285D01*
X98142857Y-87511904D01*
X98047619Y-87559523D01*
X98000000Y-87607142D01*
X97952380Y-87702380D01*
X97952380Y-88940476D02*
X97952380Y-88464285D01*
X98428571Y-88416666D01*
X98380952Y-88464285D01*
X98333333Y-88559523D01*
X98333333Y-88797619D01*
X98380952Y-88892857D01*
X98428571Y-88940476D01*
X98523809Y-88988095D01*
X98761904Y-88988095D01*
X98857142Y-88940476D01*
X98904761Y-88892857D01*
X98952380Y-88797619D01*
X98952380Y-88559523D01*
X98904761Y-88464285D01*
X98857142Y-88416666D01*
G04 #@! TO.C,C106*
X91057142Y-85080952D02*
X91104761Y-85033333D01*
X91152380Y-84890476D01*
X91152380Y-84795238D01*
X91104761Y-84652380D01*
X91009523Y-84557142D01*
X90914285Y-84509523D01*
X90723809Y-84461904D01*
X90580952Y-84461904D01*
X90390476Y-84509523D01*
X90295238Y-84557142D01*
X90200000Y-84652380D01*
X90152380Y-84795238D01*
X90152380Y-84890476D01*
X90200000Y-85033333D01*
X90247619Y-85080952D01*
X91152380Y-86033333D02*
X91152380Y-85461904D01*
X91152380Y-85747619D02*
X90152380Y-85747619D01*
X90295238Y-85652380D01*
X90390476Y-85557142D01*
X90438095Y-85461904D01*
X90152380Y-86652380D02*
X90152380Y-86747619D01*
X90200000Y-86842857D01*
X90247619Y-86890476D01*
X90342857Y-86938095D01*
X90533333Y-86985714D01*
X90771428Y-86985714D01*
X90961904Y-86938095D01*
X91057142Y-86890476D01*
X91104761Y-86842857D01*
X91152380Y-86747619D01*
X91152380Y-86652380D01*
X91104761Y-86557142D01*
X91057142Y-86509523D01*
X90961904Y-86461904D01*
X90771428Y-86414285D01*
X90533333Y-86414285D01*
X90342857Y-86461904D01*
X90247619Y-86509523D01*
X90200000Y-86557142D01*
X90152380Y-86652380D01*
X90152380Y-87842857D02*
X90152380Y-87652380D01*
X90200000Y-87557142D01*
X90247619Y-87509523D01*
X90390476Y-87414285D01*
X90580952Y-87366666D01*
X90961904Y-87366666D01*
X91057142Y-87414285D01*
X91104761Y-87461904D01*
X91152380Y-87557142D01*
X91152380Y-87747619D01*
X91104761Y-87842857D01*
X91057142Y-87890476D01*
X90961904Y-87938095D01*
X90723809Y-87938095D01*
X90628571Y-87890476D01*
X90580952Y-87842857D01*
X90533333Y-87747619D01*
X90533333Y-87557142D01*
X90580952Y-87461904D01*
X90628571Y-87414285D01*
X90723809Y-87366666D01*
G04 #@! TO.C,L302*
X103369047Y-82262380D02*
X103845238Y-82262380D01*
X103845238Y-81262380D01*
X103130952Y-81262380D02*
X102511904Y-81262380D01*
X102845238Y-81643333D01*
X102702380Y-81643333D01*
X102607142Y-81690952D01*
X102559523Y-81738571D01*
X102511904Y-81833809D01*
X102511904Y-82071904D01*
X102559523Y-82167142D01*
X102607142Y-82214761D01*
X102702380Y-82262380D01*
X102988095Y-82262380D01*
X103083333Y-82214761D01*
X103130952Y-82167142D01*
X101892857Y-81262380D02*
X101797619Y-81262380D01*
X101702380Y-81310000D01*
X101654761Y-81357619D01*
X101607142Y-81452857D01*
X101559523Y-81643333D01*
X101559523Y-81881428D01*
X101607142Y-82071904D01*
X101654761Y-82167142D01*
X101702380Y-82214761D01*
X101797619Y-82262380D01*
X101892857Y-82262380D01*
X101988095Y-82214761D01*
X102035714Y-82167142D01*
X102083333Y-82071904D01*
X102130952Y-81881428D01*
X102130952Y-81643333D01*
X102083333Y-81452857D01*
X102035714Y-81357619D01*
X101988095Y-81310000D01*
X101892857Y-81262380D01*
X101178571Y-81357619D02*
X101130952Y-81310000D01*
X101035714Y-81262380D01*
X100797619Y-81262380D01*
X100702380Y-81310000D01*
X100654761Y-81357619D01*
X100607142Y-81452857D01*
X100607142Y-81548095D01*
X100654761Y-81690952D01*
X101226190Y-82262380D01*
X100607142Y-82262380D01*
G04 #@! TO.C,TP101*
X87014285Y-91352380D02*
X86442857Y-91352380D01*
X86728571Y-92352380D02*
X86728571Y-91352380D01*
X86109523Y-92352380D02*
X86109523Y-91352380D01*
X85728571Y-91352380D01*
X85633333Y-91400000D01*
X85585714Y-91447619D01*
X85538095Y-91542857D01*
X85538095Y-91685714D01*
X85585714Y-91780952D01*
X85633333Y-91828571D01*
X85728571Y-91876190D01*
X86109523Y-91876190D01*
X84585714Y-92352380D02*
X85157142Y-92352380D01*
X84871428Y-92352380D02*
X84871428Y-91352380D01*
X84966666Y-91495238D01*
X85061904Y-91590476D01*
X85157142Y-91638095D01*
X83966666Y-91352380D02*
X83871428Y-91352380D01*
X83776190Y-91400000D01*
X83728571Y-91447619D01*
X83680952Y-91542857D01*
X83633333Y-91733333D01*
X83633333Y-91971428D01*
X83680952Y-92161904D01*
X83728571Y-92257142D01*
X83776190Y-92304761D01*
X83871428Y-92352380D01*
X83966666Y-92352380D01*
X84061904Y-92304761D01*
X84109523Y-92257142D01*
X84157142Y-92161904D01*
X84204761Y-91971428D01*
X84204761Y-91733333D01*
X84157142Y-91542857D01*
X84109523Y-91447619D01*
X84061904Y-91400000D01*
X83966666Y-91352380D01*
X82680952Y-92352380D02*
X83252380Y-92352380D01*
X82966666Y-92352380D02*
X82966666Y-91352380D01*
X83061904Y-91495238D01*
X83157142Y-91590476D01*
X83252380Y-91638095D01*
G04 #@! TO.C,TP104*
X91552380Y-93185714D02*
X91552380Y-93757142D01*
X92552380Y-93471428D02*
X91552380Y-93471428D01*
X92552380Y-94090476D02*
X91552380Y-94090476D01*
X91552380Y-94471428D01*
X91600000Y-94566666D01*
X91647619Y-94614285D01*
X91742857Y-94661904D01*
X91885714Y-94661904D01*
X91980952Y-94614285D01*
X92028571Y-94566666D01*
X92076190Y-94471428D01*
X92076190Y-94090476D01*
X92552380Y-95614285D02*
X92552380Y-95042857D01*
X92552380Y-95328571D02*
X91552380Y-95328571D01*
X91695238Y-95233333D01*
X91790476Y-95138095D01*
X91838095Y-95042857D01*
X91552380Y-96233333D02*
X91552380Y-96328571D01*
X91600000Y-96423809D01*
X91647619Y-96471428D01*
X91742857Y-96519047D01*
X91933333Y-96566666D01*
X92171428Y-96566666D01*
X92361904Y-96519047D01*
X92457142Y-96471428D01*
X92504761Y-96423809D01*
X92552380Y-96328571D01*
X92552380Y-96233333D01*
X92504761Y-96138095D01*
X92457142Y-96090476D01*
X92361904Y-96042857D01*
X92171428Y-95995238D01*
X91933333Y-95995238D01*
X91742857Y-96042857D01*
X91647619Y-96090476D01*
X91600000Y-96138095D01*
X91552380Y-96233333D01*
X91885714Y-97423809D02*
X92552380Y-97423809D01*
X91504761Y-97185714D02*
X92219047Y-96947619D01*
X92219047Y-97566666D01*
G04 #@! TO.C,TP108*
X89214285Y-84052380D02*
X88642857Y-84052380D01*
X88928571Y-85052380D02*
X88928571Y-84052380D01*
X88309523Y-85052380D02*
X88309523Y-84052380D01*
X87928571Y-84052380D01*
X87833333Y-84100000D01*
X87785714Y-84147619D01*
X87738095Y-84242857D01*
X87738095Y-84385714D01*
X87785714Y-84480952D01*
X87833333Y-84528571D01*
X87928571Y-84576190D01*
X88309523Y-84576190D01*
X86785714Y-85052380D02*
X87357142Y-85052380D01*
X87071428Y-85052380D02*
X87071428Y-84052380D01*
X87166666Y-84195238D01*
X87261904Y-84290476D01*
X87357142Y-84338095D01*
X86166666Y-84052380D02*
X86071428Y-84052380D01*
X85976190Y-84100000D01*
X85928571Y-84147619D01*
X85880952Y-84242857D01*
X85833333Y-84433333D01*
X85833333Y-84671428D01*
X85880952Y-84861904D01*
X85928571Y-84957142D01*
X85976190Y-85004761D01*
X86071428Y-85052380D01*
X86166666Y-85052380D01*
X86261904Y-85004761D01*
X86309523Y-84957142D01*
X86357142Y-84861904D01*
X86404761Y-84671428D01*
X86404761Y-84433333D01*
X86357142Y-84242857D01*
X86309523Y-84147619D01*
X86261904Y-84100000D01*
X86166666Y-84052380D01*
X85261904Y-84480952D02*
X85357142Y-84433333D01*
X85404761Y-84385714D01*
X85452380Y-84290476D01*
X85452380Y-84242857D01*
X85404761Y-84147619D01*
X85357142Y-84100000D01*
X85261904Y-84052380D01*
X85071428Y-84052380D01*
X84976190Y-84100000D01*
X84928571Y-84147619D01*
X84880952Y-84242857D01*
X84880952Y-84290476D01*
X84928571Y-84385714D01*
X84976190Y-84433333D01*
X85071428Y-84480952D01*
X85261904Y-84480952D01*
X85357142Y-84528571D01*
X85404761Y-84576190D01*
X85452380Y-84671428D01*
X85452380Y-84861904D01*
X85404761Y-84957142D01*
X85357142Y-85004761D01*
X85261904Y-85052380D01*
X85071428Y-85052380D01*
X84976190Y-85004761D01*
X84928571Y-84957142D01*
X84880952Y-84861904D01*
X84880952Y-84671428D01*
X84928571Y-84576190D01*
X84976190Y-84528571D01*
X85071428Y-84480952D01*
G04 #@! TO.C,R101*
X84219047Y-86752380D02*
X84552380Y-86276190D01*
X84790476Y-86752380D02*
X84790476Y-85752380D01*
X84409523Y-85752380D01*
X84314285Y-85800000D01*
X84266666Y-85847619D01*
X84219047Y-85942857D01*
X84219047Y-86085714D01*
X84266666Y-86180952D01*
X84314285Y-86228571D01*
X84409523Y-86276190D01*
X84790476Y-86276190D01*
X83266666Y-86752380D02*
X83838095Y-86752380D01*
X83552380Y-86752380D02*
X83552380Y-85752380D01*
X83647619Y-85895238D01*
X83742857Y-85990476D01*
X83838095Y-86038095D01*
X82647619Y-85752380D02*
X82552380Y-85752380D01*
X82457142Y-85800000D01*
X82409523Y-85847619D01*
X82361904Y-85942857D01*
X82314285Y-86133333D01*
X82314285Y-86371428D01*
X82361904Y-86561904D01*
X82409523Y-86657142D01*
X82457142Y-86704761D01*
X82552380Y-86752380D01*
X82647619Y-86752380D01*
X82742857Y-86704761D01*
X82790476Y-86657142D01*
X82838095Y-86561904D01*
X82885714Y-86371428D01*
X82885714Y-86133333D01*
X82838095Y-85942857D01*
X82790476Y-85847619D01*
X82742857Y-85800000D01*
X82647619Y-85752380D01*
X81361904Y-86752380D02*
X81933333Y-86752380D01*
X81647619Y-86752380D02*
X81647619Y-85752380D01*
X81742857Y-85895238D01*
X81838095Y-85990476D01*
X81933333Y-86038095D01*
G04 #@! TO.C,R102*
X79452380Y-92630952D02*
X78976190Y-92297619D01*
X79452380Y-92059523D02*
X78452380Y-92059523D01*
X78452380Y-92440476D01*
X78500000Y-92535714D01*
X78547619Y-92583333D01*
X78642857Y-92630952D01*
X78785714Y-92630952D01*
X78880952Y-92583333D01*
X78928571Y-92535714D01*
X78976190Y-92440476D01*
X78976190Y-92059523D01*
X79452380Y-93583333D02*
X79452380Y-93011904D01*
X79452380Y-93297619D02*
X78452380Y-93297619D01*
X78595238Y-93202380D01*
X78690476Y-93107142D01*
X78738095Y-93011904D01*
X78452380Y-94202380D02*
X78452380Y-94297619D01*
X78500000Y-94392857D01*
X78547619Y-94440476D01*
X78642857Y-94488095D01*
X78833333Y-94535714D01*
X79071428Y-94535714D01*
X79261904Y-94488095D01*
X79357142Y-94440476D01*
X79404761Y-94392857D01*
X79452380Y-94297619D01*
X79452380Y-94202380D01*
X79404761Y-94107142D01*
X79357142Y-94059523D01*
X79261904Y-94011904D01*
X79071428Y-93964285D01*
X78833333Y-93964285D01*
X78642857Y-94011904D01*
X78547619Y-94059523D01*
X78500000Y-94107142D01*
X78452380Y-94202380D01*
X78547619Y-94916666D02*
X78500000Y-94964285D01*
X78452380Y-95059523D01*
X78452380Y-95297619D01*
X78500000Y-95392857D01*
X78547619Y-95440476D01*
X78642857Y-95488095D01*
X78738095Y-95488095D01*
X78880952Y-95440476D01*
X79452380Y-94869047D01*
X79452380Y-95488095D01*
G04 #@! TD*
M02*
