G04 #@! TF.GenerationSoftware,KiCad,Pcbnew,(5.0.0)*
G04 #@! TF.CreationDate,2020-01-02T15:26:17+02:00*
G04 #@! TF.ProjectId,Socket,536F636B65742E6B696361645F706362,1.1*
G04 #@! TF.SameCoordinates,Original*
G04 #@! TF.FileFunction,Legend,Top*
G04 #@! TF.FilePolarity,Positive*
%FSLAX46Y46*%
G04 Gerber Fmt 4.6, Leading zero omitted, Abs format (unit mm)*
G04 Created by KiCad (PCBNEW (5.0.0)) date 01/02/20 15:26:17*
%MOMM*%
%LPD*%
G01*
G04 APERTURE LIST*
%ADD10C,0.150000*%
%ADD11C,0.300000*%
%ADD12C,0.500000*%
%ADD13C,0.120000*%
G04 APERTURE END LIST*
D10*
X53700000Y-82500000D02*
X53700000Y-67200000D01*
X81700000Y-82500000D02*
X53700000Y-82500000D01*
X81700000Y-67200000D02*
X81700000Y-82500000D01*
X53700000Y-67200000D02*
X81700000Y-67200000D01*
D11*
X74802857Y-84478571D02*
X75731428Y-84478571D01*
X75231428Y-85050000D01*
X75445714Y-85050000D01*
X75588571Y-85121428D01*
X75660000Y-85192857D01*
X75731428Y-85335714D01*
X75731428Y-85692857D01*
X75660000Y-85835714D01*
X75588571Y-85907142D01*
X75445714Y-85978571D01*
X75017142Y-85978571D01*
X74874285Y-85907142D01*
X74802857Y-85835714D01*
X76160000Y-84478571D02*
X76660000Y-85978571D01*
X77160000Y-84478571D01*
X77517142Y-84478571D02*
X78445714Y-84478571D01*
X77945714Y-85050000D01*
X78160000Y-85050000D01*
X78302857Y-85121428D01*
X78374285Y-85192857D01*
X78445714Y-85335714D01*
X78445714Y-85692857D01*
X78374285Y-85835714D01*
X78302857Y-85907142D01*
X78160000Y-85978571D01*
X77731428Y-85978571D01*
X77588571Y-85907142D01*
X77517142Y-85835714D01*
X75611428Y-88678571D02*
X74754285Y-88678571D01*
X75182857Y-88678571D02*
X75182857Y-87178571D01*
X75040000Y-87392857D01*
X74897142Y-87535714D01*
X74754285Y-87607142D01*
X76182857Y-87321428D02*
X76254285Y-87250000D01*
X76397142Y-87178571D01*
X76754285Y-87178571D01*
X76897142Y-87250000D01*
X76968571Y-87321428D01*
X77040000Y-87464285D01*
X77040000Y-87607142D01*
X76968571Y-87821428D01*
X76111428Y-88678571D01*
X77040000Y-88678571D01*
X77468571Y-87178571D02*
X77968571Y-88678571D01*
X78468571Y-87178571D01*
X105500000Y-73535714D02*
X105571428Y-73607142D01*
X105500000Y-73678571D01*
X105428571Y-73607142D01*
X105500000Y-73535714D01*
X105500000Y-73678571D01*
X135719428Y-83428571D02*
X135648000Y-83357142D01*
X135576571Y-83214285D01*
X135576571Y-82857142D01*
X135648000Y-82714285D01*
X135719428Y-82642857D01*
X135862285Y-82571428D01*
X136005142Y-82571428D01*
X136219428Y-82642857D01*
X137076571Y-83500000D01*
X137076571Y-82571428D01*
X134536571Y-82571428D02*
X134536571Y-83428571D01*
X134536571Y-83000000D02*
X133036571Y-83000000D01*
X133250857Y-83142857D01*
X133393714Y-83285714D01*
X133465142Y-83428571D01*
X83221428Y-70578571D02*
X82721428Y-69864285D01*
X82364285Y-70578571D02*
X82364285Y-69078571D01*
X82935714Y-69078571D01*
X83078571Y-69150000D01*
X83150000Y-69221428D01*
X83221428Y-69364285D01*
X83221428Y-69578571D01*
X83150000Y-69721428D01*
X83078571Y-69792857D01*
X82935714Y-69864285D01*
X82364285Y-69864285D01*
X84364285Y-69792857D02*
X83864285Y-69792857D01*
X83864285Y-70578571D02*
X83864285Y-69078571D01*
X84578571Y-69078571D01*
X84026571Y-58082571D02*
X84026571Y-56582571D01*
X85812285Y-56511142D02*
X84526571Y-58439714D01*
X86598000Y-56582571D02*
X86883714Y-56582571D01*
X87026571Y-56654000D01*
X87169428Y-56796857D01*
X87240857Y-57082571D01*
X87240857Y-57582571D01*
X87169428Y-57868285D01*
X87026571Y-58011142D01*
X86883714Y-58082571D01*
X86598000Y-58082571D01*
X86455142Y-58011142D01*
X86312285Y-57868285D01*
X86240857Y-57582571D01*
X86240857Y-57082571D01*
X86312285Y-56796857D01*
X86455142Y-56654000D01*
X86598000Y-56582571D01*
X139957142Y-80655714D02*
X140028571Y-80441428D01*
X140028571Y-80084285D01*
X139957142Y-79941428D01*
X139885714Y-79870000D01*
X139742857Y-79798571D01*
X139600000Y-79798571D01*
X139457142Y-79870000D01*
X139385714Y-79941428D01*
X139314285Y-80084285D01*
X139242857Y-80370000D01*
X139171428Y-80512857D01*
X139100000Y-80584285D01*
X138957142Y-80655714D01*
X138814285Y-80655714D01*
X138671428Y-80584285D01*
X138600000Y-80512857D01*
X138528571Y-80370000D01*
X138528571Y-80012857D01*
X138600000Y-79798571D01*
X138528571Y-79298571D02*
X140028571Y-78941428D01*
X138957142Y-78655714D01*
X140028571Y-78370000D01*
X138528571Y-78012857D01*
X140068571Y-75224285D02*
X140068571Y-75938571D01*
X138568571Y-75938571D01*
X139282857Y-74724285D02*
X139282857Y-74224285D01*
X140068571Y-74010000D02*
X140068571Y-74724285D01*
X138568571Y-74724285D01*
X138568571Y-74010000D01*
X140068571Y-73367142D02*
X138568571Y-73367142D01*
X138568571Y-73010000D01*
X138640000Y-72795714D01*
X138782857Y-72652857D01*
X138925714Y-72581428D01*
X139211428Y-72510000D01*
X139425714Y-72510000D01*
X139711428Y-72581428D01*
X139854285Y-72652857D01*
X139997142Y-72795714D01*
X140068571Y-73010000D01*
X140068571Y-73367142D01*
X132766857Y-65956571D02*
X132266857Y-65242285D01*
X131909714Y-65956571D02*
X131909714Y-64456571D01*
X132481142Y-64456571D01*
X132624000Y-64528000D01*
X132695428Y-64599428D01*
X132766857Y-64742285D01*
X132766857Y-64956571D01*
X132695428Y-65099428D01*
X132624000Y-65170857D01*
X132481142Y-65242285D01*
X131909714Y-65242285D01*
X133266857Y-64456571D02*
X134266857Y-65956571D01*
X134266857Y-64456571D02*
X133266857Y-65956571D01*
X135766857Y-64456571D02*
X136624000Y-64456571D01*
X136195428Y-65956571D02*
X136195428Y-64456571D01*
X136981142Y-64456571D02*
X137981142Y-65956571D01*
X137981142Y-64456571D02*
X136981142Y-65956571D01*
X138568571Y-70412857D02*
X139782857Y-70412857D01*
X139925714Y-70341428D01*
X139997142Y-70270000D01*
X140068571Y-70127142D01*
X140068571Y-69841428D01*
X139997142Y-69698571D01*
X139925714Y-69627142D01*
X139782857Y-69555714D01*
X138568571Y-69555714D01*
X139640000Y-68912857D02*
X139640000Y-68198571D01*
X140068571Y-69055714D02*
X138568571Y-68555714D01*
X140068571Y-68055714D01*
X140068571Y-66698571D02*
X139354285Y-67198571D01*
X140068571Y-67555714D02*
X138568571Y-67555714D01*
X138568571Y-66984285D01*
X138640000Y-66841428D01*
X138711428Y-66770000D01*
X138854285Y-66698571D01*
X139068571Y-66698571D01*
X139211428Y-66770000D01*
X139282857Y-66841428D01*
X139354285Y-66984285D01*
X139354285Y-67555714D01*
X138568571Y-66270000D02*
X138568571Y-65412857D01*
X140068571Y-65841428D02*
X138568571Y-65841428D01*
X131178571Y-62178571D02*
X131321428Y-62178571D01*
X131464285Y-62250000D01*
X131535714Y-62321428D01*
X131607142Y-62464285D01*
X131678571Y-62750000D01*
X131678571Y-63107142D01*
X131607142Y-63392857D01*
X131535714Y-63535714D01*
X131464285Y-63607142D01*
X131321428Y-63678571D01*
X131178571Y-63678571D01*
X131035714Y-63607142D01*
X130964285Y-63535714D01*
X130892857Y-63392857D01*
X130821428Y-63107142D01*
X130821428Y-62750000D01*
X130892857Y-62464285D01*
X130964285Y-62321428D01*
X131035714Y-62250000D01*
X131178571Y-62178571D01*
X131678571Y-60928571D02*
X130821428Y-60928571D01*
X131250000Y-60928571D02*
X131250000Y-59428571D01*
X131107142Y-59642857D01*
X130964285Y-59785714D01*
X130821428Y-59857142D01*
X124464285Y-57642857D02*
X124678571Y-57714285D01*
X124750000Y-57785714D01*
X124821428Y-57928571D01*
X124821428Y-58142857D01*
X124750000Y-58285714D01*
X124678571Y-58357142D01*
X124535714Y-58428571D01*
X123964285Y-58428571D01*
X123964285Y-56928571D01*
X124464285Y-56928571D01*
X124607142Y-57000000D01*
X124678571Y-57071428D01*
X124750000Y-57214285D01*
X124750000Y-57357142D01*
X124678571Y-57500000D01*
X124607142Y-57571428D01*
X124464285Y-57642857D01*
X123964285Y-57642857D01*
X125750000Y-56928571D02*
X126035714Y-56928571D01*
X126178571Y-57000000D01*
X126321428Y-57142857D01*
X126392857Y-57428571D01*
X126392857Y-57928571D01*
X126321428Y-58214285D01*
X126178571Y-58357142D01*
X126035714Y-58428571D01*
X125750000Y-58428571D01*
X125607142Y-58357142D01*
X125464285Y-58214285D01*
X125392857Y-57928571D01*
X125392857Y-57428571D01*
X125464285Y-57142857D01*
X125607142Y-57000000D01*
X125750000Y-56928571D01*
X127321428Y-56928571D02*
X127607142Y-56928571D01*
X127750000Y-57000000D01*
X127892857Y-57142857D01*
X127964285Y-57428571D01*
X127964285Y-57928571D01*
X127892857Y-58214285D01*
X127750000Y-58357142D01*
X127607142Y-58428571D01*
X127321428Y-58428571D01*
X127178571Y-58357142D01*
X127035714Y-58214285D01*
X126964285Y-57928571D01*
X126964285Y-57428571D01*
X127035714Y-57142857D01*
X127178571Y-57000000D01*
X127321428Y-56928571D01*
X128392857Y-56928571D02*
X129250000Y-56928571D01*
X128821428Y-58428571D02*
X128821428Y-56928571D01*
X111785714Y-58428571D02*
X111785714Y-56928571D01*
X113357142Y-58285714D02*
X113285714Y-58357142D01*
X113071428Y-58428571D01*
X112928571Y-58428571D01*
X112714285Y-58357142D01*
X112571428Y-58214285D01*
X112500000Y-58071428D01*
X112428571Y-57785714D01*
X112428571Y-57571428D01*
X112500000Y-57285714D01*
X112571428Y-57142857D01*
X112714285Y-57000000D01*
X112928571Y-56928571D01*
X113071428Y-56928571D01*
X113285714Y-57000000D01*
X113357142Y-57071428D01*
X113928571Y-58357142D02*
X114142857Y-58428571D01*
X114500000Y-58428571D01*
X114642857Y-58357142D01*
X114714285Y-58285714D01*
X114785714Y-58142857D01*
X114785714Y-58000000D01*
X114714285Y-57857142D01*
X114642857Y-57785714D01*
X114500000Y-57714285D01*
X114214285Y-57642857D01*
X114071428Y-57571428D01*
X114000000Y-57500000D01*
X113928571Y-57357142D01*
X113928571Y-57214285D01*
X114000000Y-57071428D01*
X114071428Y-57000000D01*
X114214285Y-56928571D01*
X114571428Y-56928571D01*
X114785714Y-57000000D01*
X115428571Y-58428571D02*
X115428571Y-56928571D01*
X116000000Y-56928571D01*
X116142857Y-57000000D01*
X116214285Y-57071428D01*
X116285714Y-57214285D01*
X116285714Y-57428571D01*
X116214285Y-57571428D01*
X116142857Y-57642857D01*
X116000000Y-57714285D01*
X115428571Y-57714285D01*
D12*
X122078857Y-146724857D02*
X122221714Y-146582000D01*
X122507428Y-146439142D01*
X123221714Y-146439142D01*
X123507428Y-146582000D01*
X123650285Y-146724857D01*
X123793142Y-147010571D01*
X123793142Y-147296285D01*
X123650285Y-147724857D01*
X121936000Y-149439142D01*
X123793142Y-149439142D01*
X109823142Y-149439142D02*
X108108857Y-149439142D01*
X108966000Y-149439142D02*
X108966000Y-146439142D01*
X108680285Y-146867714D01*
X108394571Y-147153428D01*
X108108857Y-147296285D01*
D11*
X58578571Y-135622857D02*
X59078571Y-135622857D01*
X59292857Y-136408571D02*
X58578571Y-136408571D01*
X58578571Y-134908571D01*
X59292857Y-134908571D01*
X60578571Y-136408571D02*
X60578571Y-135622857D01*
X60507142Y-135480000D01*
X60364285Y-135408571D01*
X60078571Y-135408571D01*
X59935714Y-135480000D01*
X60578571Y-136337142D02*
X60435714Y-136408571D01*
X60078571Y-136408571D01*
X59935714Y-136337142D01*
X59864285Y-136194285D01*
X59864285Y-136051428D01*
X59935714Y-135908571D01*
X60078571Y-135837142D01*
X60435714Y-135837142D01*
X60578571Y-135765714D01*
X61292857Y-136408571D02*
X61292857Y-135408571D01*
X61292857Y-135694285D02*
X61364285Y-135551428D01*
X61435714Y-135480000D01*
X61578571Y-135408571D01*
X61721428Y-135408571D01*
X62007142Y-135408571D02*
X62578571Y-135408571D01*
X62221428Y-134908571D02*
X62221428Y-136194285D01*
X62292857Y-136337142D01*
X62435714Y-136408571D01*
X62578571Y-136408571D01*
X63078571Y-136408571D02*
X63078571Y-134908571D01*
X63721428Y-136408571D02*
X63721428Y-135622857D01*
X63650000Y-135480000D01*
X63507142Y-135408571D01*
X63292857Y-135408571D01*
X63150000Y-135480000D01*
X63078571Y-135551428D01*
X60071142Y-83451000D02*
X59928285Y-83379571D01*
X59714000Y-83379571D01*
X59499714Y-83451000D01*
X59356857Y-83593857D01*
X59285428Y-83736714D01*
X59214000Y-84022428D01*
X59214000Y-84236714D01*
X59285428Y-84522428D01*
X59356857Y-84665285D01*
X59499714Y-84808142D01*
X59714000Y-84879571D01*
X59856857Y-84879571D01*
X60071142Y-84808142D01*
X60142571Y-84736714D01*
X60142571Y-84236714D01*
X59856857Y-84236714D01*
X60785428Y-84879571D02*
X60785428Y-83379571D01*
X61642571Y-84879571D01*
X61642571Y-83379571D01*
X62356857Y-84879571D02*
X62356857Y-83379571D01*
X62714000Y-83379571D01*
X62928285Y-83451000D01*
X63071142Y-83593857D01*
X63142571Y-83736714D01*
X63214000Y-84022428D01*
X63214000Y-84236714D01*
X63142571Y-84522428D01*
X63071142Y-84665285D01*
X62928285Y-84808142D01*
X62714000Y-84879571D01*
X62356857Y-84879571D01*
D12*
X74771142Y-146724857D02*
X74771142Y-149724857D01*
X73056857Y-146724857D01*
X73056857Y-149724857D01*
X96788571Y-144337142D02*
X95360000Y-144337142D01*
X95360000Y-141337142D01*
D13*
G04 #@! TO.C,K401*
X116922000Y-98098000D02*
X129622000Y-98098000D01*
X116922000Y-128578000D02*
X116922000Y-98098000D01*
X129622000Y-128578000D02*
X116922000Y-128578000D01*
X129622000Y-98098000D02*
X129622000Y-128578000D01*
X125812000Y-103178000D02*
X125812000Y-104448000D01*
X120732000Y-103178000D02*
X125812000Y-103178000D01*
X120732000Y-105718000D02*
X120732000Y-103178000D01*
X125812000Y-105718000D02*
X120732000Y-105718000D01*
X125812000Y-104448000D02*
X125812000Y-105718000D01*
X127082000Y-104448000D02*
X125812000Y-104448000D01*
X127082000Y-103178000D02*
X127082000Y-104448000D01*
X119462000Y-104448000D02*
X119462000Y-103178000D01*
X120732000Y-104448000D02*
X119462000Y-104448000D01*
X124542000Y-103178000D02*
X123272000Y-105718000D01*
G04 #@! TO.C,K402*
X102578000Y-98098000D02*
X115278000Y-98098000D01*
X102578000Y-128578000D02*
X102578000Y-98098000D01*
X115278000Y-128578000D02*
X102578000Y-128578000D01*
X115278000Y-98098000D02*
X115278000Y-128578000D01*
X111468000Y-103178000D02*
X111468000Y-104448000D01*
X106388000Y-103178000D02*
X111468000Y-103178000D01*
X106388000Y-105718000D02*
X106388000Y-103178000D01*
X111468000Y-105718000D02*
X106388000Y-105718000D01*
X111468000Y-104448000D02*
X111468000Y-105718000D01*
X112738000Y-104448000D02*
X111468000Y-104448000D01*
X112738000Y-103178000D02*
X112738000Y-104448000D01*
X105118000Y-104448000D02*
X105118000Y-103178000D01*
X106388000Y-104448000D02*
X105118000Y-104448000D01*
X110198000Y-103178000D02*
X108928000Y-105718000D01*
D10*
G04 #@! TO.C,U301*
X107425000Y-73325000D02*
X106400000Y-73325000D01*
X117775000Y-72325000D02*
X116700000Y-72325000D01*
X117775000Y-82675000D02*
X116700000Y-82675000D01*
X107425000Y-82675000D02*
X108500000Y-82675000D01*
X107425000Y-72325000D02*
X108500000Y-72325000D01*
X107425000Y-82675000D02*
X107425000Y-81600000D01*
X117775000Y-82675000D02*
X117775000Y-81600000D01*
X117775000Y-72325000D02*
X117775000Y-73400000D01*
X107425000Y-72325000D02*
X107425000Y-73325000D01*
D13*
G04 #@! TO.C,P307*
X79090000Y-64290000D02*
X79090000Y-62900000D01*
X80480000Y-64290000D02*
X79090000Y-64290000D01*
X81750000Y-61630000D02*
X81750000Y-64290000D01*
X79090000Y-61630000D02*
X81750000Y-61630000D01*
X79090000Y-58970000D02*
X79090000Y-61630000D01*
X92030000Y-58970000D02*
X79090000Y-58970000D01*
X92030000Y-64290000D02*
X92030000Y-58970000D01*
X81750000Y-64290000D02*
X92030000Y-64290000D01*
G04 #@! TO.C,C103*
X64314000Y-96587000D02*
X65679000Y-96587000D01*
X60559000Y-96587000D02*
X61924000Y-96587000D01*
X64314000Y-104207000D02*
X65679000Y-104207000D01*
X60559000Y-104207000D02*
X61924000Y-104207000D01*
X65679000Y-104207000D02*
X65679000Y-96587000D01*
X60559000Y-104207000D02*
X60559000Y-96587000D01*
G04 #@! TO.C,C104*
X64314000Y-106994000D02*
X65679000Y-106994000D01*
X60559000Y-106994000D02*
X61924000Y-106994000D01*
X64314000Y-114614000D02*
X65679000Y-114614000D01*
X60559000Y-114614000D02*
X61924000Y-114614000D01*
X65679000Y-114614000D02*
X65679000Y-106994000D01*
X60559000Y-114614000D02*
X60559000Y-106994000D01*
D10*
G04 #@! TO.C,U201*
X81370000Y-81750000D02*
X76290000Y-81750000D01*
X76290000Y-81750000D02*
X76290000Y-71590000D01*
X76290000Y-71590000D02*
X81370000Y-71590000D01*
X81370000Y-71590000D02*
X81370000Y-81750000D01*
G04 #@! TO.C,R302*
X124006000Y-97049000D02*
X122806000Y-97049000D01*
X122806000Y-95299000D02*
X124006000Y-95299000D01*
G04 #@! TO.C,R304*
X109850000Y-97049000D02*
X108650000Y-97049000D01*
X108650000Y-95299000D02*
X109850000Y-95299000D01*
G04 #@! TO.C,F101*
X91081960Y-132242000D02*
G75*
G03X91081960Y-132242000I-4749800J0D01*
G01*
X90312340Y-129293060D02*
X90162480Y-129422600D01*
X90391080Y-129112720D02*
X90312340Y-129293060D01*
X90431720Y-128823160D02*
X90391080Y-129112720D01*
X90352980Y-128531060D02*
X90431720Y-128823160D01*
X90182800Y-128312620D02*
X90352980Y-128531060D01*
X89921180Y-128162760D02*
X90182800Y-128312620D01*
X89662100Y-128132280D02*
X89921180Y-128162760D01*
X89413180Y-128183080D02*
X89662100Y-128132280D01*
X89253160Y-128271980D02*
X89413180Y-128183080D01*
X89110920Y-128391360D02*
X89253160Y-128271980D01*
G04 #@! TO.C,R305*
X126605000Y-66745000D02*
X126605000Y-67945000D01*
X124855000Y-67945000D02*
X124855000Y-66745000D01*
G04 #@! TO.C,R306*
X128284000Y-67945000D02*
X128284000Y-66745000D01*
X130034000Y-66745000D02*
X130034000Y-67945000D01*
G04 #@! TO.C,R307*
X115010000Y-64205000D02*
X115010000Y-65405000D01*
X113260000Y-65405000D02*
X113260000Y-64205000D01*
G04 #@! TO.C,R308*
X117550000Y-64205000D02*
X117550000Y-65405000D01*
X115800000Y-65405000D02*
X115800000Y-64205000D01*
G04 #@! TO.C,R311*
X120090000Y-64205000D02*
X120090000Y-65405000D01*
X118340000Y-65405000D02*
X118340000Y-64205000D01*
G04 #@! TO.C,R313*
X101675000Y-79200000D02*
X101675000Y-80400000D01*
X99925000Y-80400000D02*
X99925000Y-79200000D01*
G04 #@! TO.C,R314*
X96075000Y-76858000D02*
X96075000Y-75658000D01*
X97825000Y-75658000D02*
X97825000Y-76858000D01*
G04 #@! TO.C,R315*
X99000000Y-73433000D02*
X97800000Y-73433000D01*
X97800000Y-71683000D02*
X99000000Y-71683000D01*
D13*
G04 #@! TO.C,Y301*
X89100571Y-84039775D02*
X95350571Y-84039775D01*
X89100571Y-78989775D02*
X95350571Y-78989775D01*
X95350571Y-84039775D02*
G75*
G03X95350571Y-78989775I0J2525000D01*
G01*
X89100571Y-84039775D02*
G75*
G02X89100571Y-78989775I0J2525000D01*
G01*
G04 #@! TO.C,Y302*
X93750000Y-74676000D02*
X93950000Y-74676000D01*
X92850000Y-74076000D02*
X93750000Y-74676000D01*
X93750000Y-72776000D02*
X93950000Y-72776000D01*
X92850000Y-73376000D02*
X93750000Y-72776000D01*
X92850000Y-74956000D02*
X92850000Y-72496000D01*
X85950000Y-74956000D02*
X92850000Y-74956000D01*
X85950000Y-72496000D02*
X85950000Y-74956000D01*
X92850000Y-72496000D02*
X85950000Y-72496000D01*
D10*
G04 #@! TO.C,RV101*
X71654000Y-127556000D02*
X71654000Y-131056000D01*
X80654000Y-127556000D02*
X80654000Y-131056000D01*
X71654000Y-127556000D02*
X80654000Y-127556000D01*
X71654000Y-131056000D02*
X80654000Y-131056000D01*
D13*
G04 #@! TO.C,Q303*
X135761000Y-89718000D02*
X134301000Y-89718000D01*
X135761000Y-86558000D02*
X132601000Y-86558000D01*
X135761000Y-86558000D02*
X135761000Y-87488000D01*
X135761000Y-89718000D02*
X135761000Y-88788000D01*
D10*
G04 #@! TO.C,R318*
X138279000Y-87122000D02*
X138279000Y-85922000D01*
X140029000Y-85922000D02*
X140029000Y-87122000D01*
G04 #@! TO.C,R320*
X131939000Y-85379000D02*
X131939000Y-86579000D01*
X130189000Y-86579000D02*
X130189000Y-85379000D01*
D13*
G04 #@! TO.C,P303*
X122270000Y-64290000D02*
X122270000Y-62900000D01*
X123660000Y-64290000D02*
X122270000Y-64290000D01*
X124930000Y-61630000D02*
X124930000Y-64290000D01*
X122270000Y-61630000D02*
X124930000Y-61630000D01*
X122270000Y-58970000D02*
X122270000Y-61630000D01*
X130130000Y-58970000D02*
X122270000Y-58970000D01*
X130130000Y-64290000D02*
X130130000Y-58970000D01*
X124930000Y-64290000D02*
X130130000Y-64290000D01*
G04 #@! TO.C,P304*
X107030000Y-61750000D02*
X107030000Y-60360000D01*
X108420000Y-61750000D02*
X107030000Y-61750000D01*
X109690000Y-58970000D02*
X109690000Y-61750000D01*
X119970000Y-58970000D02*
X109690000Y-58970000D01*
X119970000Y-61750000D02*
X119970000Y-58970000D01*
X109690000Y-61750000D02*
X119970000Y-61750000D01*
G04 #@! TO.C,P305*
X137750000Y-66590000D02*
X137750000Y-67980000D01*
X136360000Y-66590000D02*
X137750000Y-66590000D01*
X135090000Y-69370000D02*
X135090000Y-66590000D01*
X132430000Y-69370000D02*
X135090000Y-69370000D01*
X132430000Y-66590000D02*
X132430000Y-69370000D01*
X135090000Y-66590000D02*
X132430000Y-66590000D01*
G04 #@! TO.C,C309*
X75130000Y-62510000D02*
X73130000Y-62510000D01*
X73130000Y-64560000D02*
X75130000Y-64560000D01*
G04 #@! TO.C,C310*
X75130000Y-59335000D02*
X73130000Y-59335000D01*
X73130000Y-61385000D02*
X75130000Y-61385000D01*
G04 #@! TO.C,P306*
X132430000Y-71670000D02*
X133820000Y-71670000D01*
X132430000Y-73060000D02*
X132430000Y-71670000D01*
X135090000Y-74330000D02*
X132430000Y-74330000D01*
X135090000Y-71670000D02*
X135090000Y-74330000D01*
X137750000Y-71670000D02*
X135090000Y-71670000D01*
X137750000Y-82070000D02*
X137750000Y-71670000D01*
X132430000Y-82070000D02*
X137750000Y-82070000D01*
X132430000Y-74330000D02*
X132430000Y-82070000D01*
D10*
G04 #@! TO.C,U102*
X92814000Y-90588000D02*
X92814000Y-102268000D01*
X92814000Y-90588000D02*
X101314000Y-90588000D01*
X92814000Y-102268000D02*
X101314000Y-102268000D01*
X101314000Y-90588000D02*
X101314000Y-102268000D01*
G04 #@! TO.C,U101*
X67070000Y-127140000D02*
X67070000Y-90140000D01*
X67070000Y-90140000D02*
X91070000Y-90140000D01*
X91070000Y-127140000D02*
X91070000Y-90140000D01*
X67070000Y-127140000D02*
X91070000Y-127140000D01*
D13*
G04 #@! TO.C,D101*
X69540000Y-82910000D02*
X69540000Y-83710000D01*
X74190000Y-82910000D02*
X69540000Y-82910000D01*
X74190000Y-86110000D02*
X69540000Y-86110000D01*
G04 #@! TO.C,D102*
X69540000Y-86660000D02*
X69540000Y-87460000D01*
X74190000Y-86660000D02*
X69540000Y-86660000D01*
X74190000Y-89860000D02*
X69540000Y-89860000D01*
G04 #@! TO.C,D302*
X121000000Y-91600000D02*
X121000000Y-92400000D01*
X125650000Y-91600000D02*
X121000000Y-91600000D01*
X125650000Y-94800000D02*
X121000000Y-94800000D01*
G04 #@! TO.C,D303*
X106850000Y-91600000D02*
X106850000Y-92400000D01*
X111500000Y-91600000D02*
X106850000Y-91600000D01*
X111500000Y-94800000D02*
X106850000Y-94800000D01*
G04 #@! TO.C,K401*
D10*
X126419523Y-97552380D02*
X126419523Y-96552380D01*
X126990952Y-97552380D02*
X126562380Y-96980952D01*
X126990952Y-96552380D02*
X126419523Y-97123809D01*
X127848095Y-96885714D02*
X127848095Y-97552380D01*
X127610000Y-96504761D02*
X127371904Y-97219047D01*
X127990952Y-97219047D01*
X128562380Y-96552380D02*
X128657619Y-96552380D01*
X128752857Y-96600000D01*
X128800476Y-96647619D01*
X128848095Y-96742857D01*
X128895714Y-96933333D01*
X128895714Y-97171428D01*
X128848095Y-97361904D01*
X128800476Y-97457142D01*
X128752857Y-97504761D01*
X128657619Y-97552380D01*
X128562380Y-97552380D01*
X128467142Y-97504761D01*
X128419523Y-97457142D01*
X128371904Y-97361904D01*
X128324285Y-97171428D01*
X128324285Y-96933333D01*
X128371904Y-96742857D01*
X128419523Y-96647619D01*
X128467142Y-96600000D01*
X128562380Y-96552380D01*
X129848095Y-97552380D02*
X129276666Y-97552380D01*
X129562380Y-97552380D02*
X129562380Y-96552380D01*
X129467142Y-96695238D01*
X129371904Y-96790476D01*
X129276666Y-96838095D01*
G04 #@! TO.C,K402*
X112019523Y-97702380D02*
X112019523Y-96702380D01*
X112590952Y-97702380D02*
X112162380Y-97130952D01*
X112590952Y-96702380D02*
X112019523Y-97273809D01*
X113448095Y-97035714D02*
X113448095Y-97702380D01*
X113210000Y-96654761D02*
X112971904Y-97369047D01*
X113590952Y-97369047D01*
X114162380Y-96702380D02*
X114257619Y-96702380D01*
X114352857Y-96750000D01*
X114400476Y-96797619D01*
X114448095Y-96892857D01*
X114495714Y-97083333D01*
X114495714Y-97321428D01*
X114448095Y-97511904D01*
X114400476Y-97607142D01*
X114352857Y-97654761D01*
X114257619Y-97702380D01*
X114162380Y-97702380D01*
X114067142Y-97654761D01*
X114019523Y-97607142D01*
X113971904Y-97511904D01*
X113924285Y-97321428D01*
X113924285Y-97083333D01*
X113971904Y-96892857D01*
X114019523Y-96797619D01*
X114067142Y-96750000D01*
X114162380Y-96702380D01*
X114876666Y-96797619D02*
X114924285Y-96750000D01*
X115019523Y-96702380D01*
X115257619Y-96702380D01*
X115352857Y-96750000D01*
X115400476Y-96797619D01*
X115448095Y-96892857D01*
X115448095Y-96988095D01*
X115400476Y-97130952D01*
X114829047Y-97702380D01*
X115448095Y-97702380D01*
G04 #@! TO.C,U301*
X110885714Y-69752380D02*
X110885714Y-70561904D01*
X110933333Y-70657142D01*
X110980952Y-70704761D01*
X111076190Y-70752380D01*
X111266666Y-70752380D01*
X111361904Y-70704761D01*
X111409523Y-70657142D01*
X111457142Y-70561904D01*
X111457142Y-69752380D01*
X111838095Y-69752380D02*
X112457142Y-69752380D01*
X112123809Y-70133333D01*
X112266666Y-70133333D01*
X112361904Y-70180952D01*
X112409523Y-70228571D01*
X112457142Y-70323809D01*
X112457142Y-70561904D01*
X112409523Y-70657142D01*
X112361904Y-70704761D01*
X112266666Y-70752380D01*
X111980952Y-70752380D01*
X111885714Y-70704761D01*
X111838095Y-70657142D01*
X113076190Y-69752380D02*
X113171428Y-69752380D01*
X113266666Y-69800000D01*
X113314285Y-69847619D01*
X113361904Y-69942857D01*
X113409523Y-70133333D01*
X113409523Y-70371428D01*
X113361904Y-70561904D01*
X113314285Y-70657142D01*
X113266666Y-70704761D01*
X113171428Y-70752380D01*
X113076190Y-70752380D01*
X112980952Y-70704761D01*
X112933333Y-70657142D01*
X112885714Y-70561904D01*
X112838095Y-70371428D01*
X112838095Y-70133333D01*
X112885714Y-69942857D01*
X112933333Y-69847619D01*
X112980952Y-69800000D01*
X113076190Y-69752380D01*
X114361904Y-70752380D02*
X113790476Y-70752380D01*
X114076190Y-70752380D02*
X114076190Y-69752380D01*
X113980952Y-69895238D01*
X113885714Y-69990476D01*
X113790476Y-70038095D01*
G04 #@! TO.C,P307*
X78379523Y-65822380D02*
X78379523Y-64822380D01*
X78760476Y-64822380D01*
X78855714Y-64870000D01*
X78903333Y-64917619D01*
X78950952Y-65012857D01*
X78950952Y-65155714D01*
X78903333Y-65250952D01*
X78855714Y-65298571D01*
X78760476Y-65346190D01*
X78379523Y-65346190D01*
X79284285Y-64822380D02*
X79903333Y-64822380D01*
X79570000Y-65203333D01*
X79712857Y-65203333D01*
X79808095Y-65250952D01*
X79855714Y-65298571D01*
X79903333Y-65393809D01*
X79903333Y-65631904D01*
X79855714Y-65727142D01*
X79808095Y-65774761D01*
X79712857Y-65822380D01*
X79427142Y-65822380D01*
X79331904Y-65774761D01*
X79284285Y-65727142D01*
X80522380Y-64822380D02*
X80617619Y-64822380D01*
X80712857Y-64870000D01*
X80760476Y-64917619D01*
X80808095Y-65012857D01*
X80855714Y-65203333D01*
X80855714Y-65441428D01*
X80808095Y-65631904D01*
X80760476Y-65727142D01*
X80712857Y-65774761D01*
X80617619Y-65822380D01*
X80522380Y-65822380D01*
X80427142Y-65774761D01*
X80379523Y-65727142D01*
X80331904Y-65631904D01*
X80284285Y-65441428D01*
X80284285Y-65203333D01*
X80331904Y-65012857D01*
X80379523Y-64917619D01*
X80427142Y-64870000D01*
X80522380Y-64822380D01*
X81189047Y-64822380D02*
X81855714Y-64822380D01*
X81427142Y-65822380D01*
G04 #@! TO.C,C103*
X57180952Y-97777142D02*
X57133333Y-97824761D01*
X56990476Y-97872380D01*
X56895238Y-97872380D01*
X56752380Y-97824761D01*
X56657142Y-97729523D01*
X56609523Y-97634285D01*
X56561904Y-97443809D01*
X56561904Y-97300952D01*
X56609523Y-97110476D01*
X56657142Y-97015238D01*
X56752380Y-96920000D01*
X56895238Y-96872380D01*
X56990476Y-96872380D01*
X57133333Y-96920000D01*
X57180952Y-96967619D01*
X58133333Y-97872380D02*
X57561904Y-97872380D01*
X57847619Y-97872380D02*
X57847619Y-96872380D01*
X57752380Y-97015238D01*
X57657142Y-97110476D01*
X57561904Y-97158095D01*
X58752380Y-96872380D02*
X58847619Y-96872380D01*
X58942857Y-96920000D01*
X58990476Y-96967619D01*
X59038095Y-97062857D01*
X59085714Y-97253333D01*
X59085714Y-97491428D01*
X59038095Y-97681904D01*
X58990476Y-97777142D01*
X58942857Y-97824761D01*
X58847619Y-97872380D01*
X58752380Y-97872380D01*
X58657142Y-97824761D01*
X58609523Y-97777142D01*
X58561904Y-97681904D01*
X58514285Y-97491428D01*
X58514285Y-97253333D01*
X58561904Y-97062857D01*
X58609523Y-96967619D01*
X58657142Y-96920000D01*
X58752380Y-96872380D01*
X59419047Y-96872380D02*
X60038095Y-96872380D01*
X59704761Y-97253333D01*
X59847619Y-97253333D01*
X59942857Y-97300952D01*
X59990476Y-97348571D01*
X60038095Y-97443809D01*
X60038095Y-97681904D01*
X59990476Y-97777142D01*
X59942857Y-97824761D01*
X59847619Y-97872380D01*
X59561904Y-97872380D01*
X59466666Y-97824761D01*
X59419047Y-97777142D01*
G04 #@! TO.C,C104*
X56480952Y-114267142D02*
X56433333Y-114314761D01*
X56290476Y-114362380D01*
X56195238Y-114362380D01*
X56052380Y-114314761D01*
X55957142Y-114219523D01*
X55909523Y-114124285D01*
X55861904Y-113933809D01*
X55861904Y-113790952D01*
X55909523Y-113600476D01*
X55957142Y-113505238D01*
X56052380Y-113410000D01*
X56195238Y-113362380D01*
X56290476Y-113362380D01*
X56433333Y-113410000D01*
X56480952Y-113457619D01*
X57433333Y-114362380D02*
X56861904Y-114362380D01*
X57147619Y-114362380D02*
X57147619Y-113362380D01*
X57052380Y-113505238D01*
X56957142Y-113600476D01*
X56861904Y-113648095D01*
X58052380Y-113362380D02*
X58147619Y-113362380D01*
X58242857Y-113410000D01*
X58290476Y-113457619D01*
X58338095Y-113552857D01*
X58385714Y-113743333D01*
X58385714Y-113981428D01*
X58338095Y-114171904D01*
X58290476Y-114267142D01*
X58242857Y-114314761D01*
X58147619Y-114362380D01*
X58052380Y-114362380D01*
X57957142Y-114314761D01*
X57909523Y-114267142D01*
X57861904Y-114171904D01*
X57814285Y-113981428D01*
X57814285Y-113743333D01*
X57861904Y-113552857D01*
X57909523Y-113457619D01*
X57957142Y-113410000D01*
X58052380Y-113362380D01*
X59242857Y-113695714D02*
X59242857Y-114362380D01*
X59004761Y-113314761D02*
X58766666Y-114029047D01*
X59385714Y-114029047D01*
G04 #@! TO.C,U201*
X82384380Y-80200285D02*
X83193904Y-80200285D01*
X83289142Y-80152666D01*
X83336761Y-80105047D01*
X83384380Y-80009809D01*
X83384380Y-79819333D01*
X83336761Y-79724095D01*
X83289142Y-79676476D01*
X83193904Y-79628857D01*
X82384380Y-79628857D01*
X82479619Y-79200285D02*
X82432000Y-79152666D01*
X82384380Y-79057428D01*
X82384380Y-78819333D01*
X82432000Y-78724095D01*
X82479619Y-78676476D01*
X82574857Y-78628857D01*
X82670095Y-78628857D01*
X82812952Y-78676476D01*
X83384380Y-79247904D01*
X83384380Y-78628857D01*
X82384380Y-78009809D02*
X82384380Y-77914571D01*
X82432000Y-77819333D01*
X82479619Y-77771714D01*
X82574857Y-77724095D01*
X82765333Y-77676476D01*
X83003428Y-77676476D01*
X83193904Y-77724095D01*
X83289142Y-77771714D01*
X83336761Y-77819333D01*
X83384380Y-77914571D01*
X83384380Y-78009809D01*
X83336761Y-78105047D01*
X83289142Y-78152666D01*
X83193904Y-78200285D01*
X83003428Y-78247904D01*
X82765333Y-78247904D01*
X82574857Y-78200285D01*
X82479619Y-78152666D01*
X82432000Y-78105047D01*
X82384380Y-78009809D01*
X83384380Y-76724095D02*
X83384380Y-77295523D01*
X83384380Y-77009809D02*
X82384380Y-77009809D01*
X82527238Y-77105047D01*
X82622476Y-77200285D01*
X82670095Y-77295523D01*
G04 #@! TO.C,R302*
X117650952Y-96722380D02*
X117317619Y-96246190D01*
X117079523Y-96722380D02*
X117079523Y-95722380D01*
X117460476Y-95722380D01*
X117555714Y-95770000D01*
X117603333Y-95817619D01*
X117650952Y-95912857D01*
X117650952Y-96055714D01*
X117603333Y-96150952D01*
X117555714Y-96198571D01*
X117460476Y-96246190D01*
X117079523Y-96246190D01*
X117984285Y-95722380D02*
X118603333Y-95722380D01*
X118270000Y-96103333D01*
X118412857Y-96103333D01*
X118508095Y-96150952D01*
X118555714Y-96198571D01*
X118603333Y-96293809D01*
X118603333Y-96531904D01*
X118555714Y-96627142D01*
X118508095Y-96674761D01*
X118412857Y-96722380D01*
X118127142Y-96722380D01*
X118031904Y-96674761D01*
X117984285Y-96627142D01*
X119222380Y-95722380D02*
X119317619Y-95722380D01*
X119412857Y-95770000D01*
X119460476Y-95817619D01*
X119508095Y-95912857D01*
X119555714Y-96103333D01*
X119555714Y-96341428D01*
X119508095Y-96531904D01*
X119460476Y-96627142D01*
X119412857Y-96674761D01*
X119317619Y-96722380D01*
X119222380Y-96722380D01*
X119127142Y-96674761D01*
X119079523Y-96627142D01*
X119031904Y-96531904D01*
X118984285Y-96341428D01*
X118984285Y-96103333D01*
X119031904Y-95912857D01*
X119079523Y-95817619D01*
X119127142Y-95770000D01*
X119222380Y-95722380D01*
X119936666Y-95817619D02*
X119984285Y-95770000D01*
X120079523Y-95722380D01*
X120317619Y-95722380D01*
X120412857Y-95770000D01*
X120460476Y-95817619D01*
X120508095Y-95912857D01*
X120508095Y-96008095D01*
X120460476Y-96150952D01*
X119889047Y-96722380D01*
X120508095Y-96722380D01*
G04 #@! TO.C,R304*
X103510952Y-96432380D02*
X103177619Y-95956190D01*
X102939523Y-96432380D02*
X102939523Y-95432380D01*
X103320476Y-95432380D01*
X103415714Y-95480000D01*
X103463333Y-95527619D01*
X103510952Y-95622857D01*
X103510952Y-95765714D01*
X103463333Y-95860952D01*
X103415714Y-95908571D01*
X103320476Y-95956190D01*
X102939523Y-95956190D01*
X103844285Y-95432380D02*
X104463333Y-95432380D01*
X104130000Y-95813333D01*
X104272857Y-95813333D01*
X104368095Y-95860952D01*
X104415714Y-95908571D01*
X104463333Y-96003809D01*
X104463333Y-96241904D01*
X104415714Y-96337142D01*
X104368095Y-96384761D01*
X104272857Y-96432380D01*
X103987142Y-96432380D01*
X103891904Y-96384761D01*
X103844285Y-96337142D01*
X105082380Y-95432380D02*
X105177619Y-95432380D01*
X105272857Y-95480000D01*
X105320476Y-95527619D01*
X105368095Y-95622857D01*
X105415714Y-95813333D01*
X105415714Y-96051428D01*
X105368095Y-96241904D01*
X105320476Y-96337142D01*
X105272857Y-96384761D01*
X105177619Y-96432380D01*
X105082380Y-96432380D01*
X104987142Y-96384761D01*
X104939523Y-96337142D01*
X104891904Y-96241904D01*
X104844285Y-96051428D01*
X104844285Y-95813333D01*
X104891904Y-95622857D01*
X104939523Y-95527619D01*
X104987142Y-95480000D01*
X105082380Y-95432380D01*
X106272857Y-95765714D02*
X106272857Y-96432380D01*
X106034761Y-95384761D02*
X105796666Y-96099047D01*
X106415714Y-96099047D01*
G04 #@! TO.C,F101*
X85104285Y-138828571D02*
X84770952Y-138828571D01*
X84770952Y-139352380D02*
X84770952Y-138352380D01*
X85247142Y-138352380D01*
X86151904Y-139352380D02*
X85580476Y-139352380D01*
X85866190Y-139352380D02*
X85866190Y-138352380D01*
X85770952Y-138495238D01*
X85675714Y-138590476D01*
X85580476Y-138638095D01*
X86770952Y-138352380D02*
X86866190Y-138352380D01*
X86961428Y-138400000D01*
X87009047Y-138447619D01*
X87056666Y-138542857D01*
X87104285Y-138733333D01*
X87104285Y-138971428D01*
X87056666Y-139161904D01*
X87009047Y-139257142D01*
X86961428Y-139304761D01*
X86866190Y-139352380D01*
X86770952Y-139352380D01*
X86675714Y-139304761D01*
X86628095Y-139257142D01*
X86580476Y-139161904D01*
X86532857Y-138971428D01*
X86532857Y-138733333D01*
X86580476Y-138542857D01*
X86628095Y-138447619D01*
X86675714Y-138400000D01*
X86770952Y-138352380D01*
X88056666Y-139352380D02*
X87485238Y-139352380D01*
X87770952Y-139352380D02*
X87770952Y-138352380D01*
X87675714Y-138495238D01*
X87580476Y-138590476D01*
X87485238Y-138638095D01*
G04 #@! TO.C,R305*
X124482380Y-69826047D02*
X124006190Y-70159380D01*
X124482380Y-70397476D02*
X123482380Y-70397476D01*
X123482380Y-70016523D01*
X123530000Y-69921285D01*
X123577619Y-69873666D01*
X123672857Y-69826047D01*
X123815714Y-69826047D01*
X123910952Y-69873666D01*
X123958571Y-69921285D01*
X124006190Y-70016523D01*
X124006190Y-70397476D01*
X123482380Y-69492714D02*
X123482380Y-68873666D01*
X123863333Y-69207000D01*
X123863333Y-69064142D01*
X123910952Y-68968904D01*
X123958571Y-68921285D01*
X124053809Y-68873666D01*
X124291904Y-68873666D01*
X124387142Y-68921285D01*
X124434761Y-68968904D01*
X124482380Y-69064142D01*
X124482380Y-69349857D01*
X124434761Y-69445095D01*
X124387142Y-69492714D01*
X123482380Y-68254619D02*
X123482380Y-68159380D01*
X123530000Y-68064142D01*
X123577619Y-68016523D01*
X123672857Y-67968904D01*
X123863333Y-67921285D01*
X124101428Y-67921285D01*
X124291904Y-67968904D01*
X124387142Y-68016523D01*
X124434761Y-68064142D01*
X124482380Y-68159380D01*
X124482380Y-68254619D01*
X124434761Y-68349857D01*
X124387142Y-68397476D01*
X124291904Y-68445095D01*
X124101428Y-68492714D01*
X123863333Y-68492714D01*
X123672857Y-68445095D01*
X123577619Y-68397476D01*
X123530000Y-68349857D01*
X123482380Y-68254619D01*
X123482380Y-67016523D02*
X123482380Y-67492714D01*
X123958571Y-67540333D01*
X123910952Y-67492714D01*
X123863333Y-67397476D01*
X123863333Y-67159380D01*
X123910952Y-67064142D01*
X123958571Y-67016523D01*
X124053809Y-66968904D01*
X124291904Y-66968904D01*
X124387142Y-67016523D01*
X124434761Y-67064142D01*
X124482380Y-67159380D01*
X124482380Y-67397476D01*
X124434761Y-67492714D01*
X124387142Y-67540333D01*
G04 #@! TO.C,R306*
X131389380Y-68556047D02*
X130913190Y-68889380D01*
X131389380Y-69127476D02*
X130389380Y-69127476D01*
X130389380Y-68746523D01*
X130437000Y-68651285D01*
X130484619Y-68603666D01*
X130579857Y-68556047D01*
X130722714Y-68556047D01*
X130817952Y-68603666D01*
X130865571Y-68651285D01*
X130913190Y-68746523D01*
X130913190Y-69127476D01*
X130389380Y-68222714D02*
X130389380Y-67603666D01*
X130770333Y-67937000D01*
X130770333Y-67794142D01*
X130817952Y-67698904D01*
X130865571Y-67651285D01*
X130960809Y-67603666D01*
X131198904Y-67603666D01*
X131294142Y-67651285D01*
X131341761Y-67698904D01*
X131389380Y-67794142D01*
X131389380Y-68079857D01*
X131341761Y-68175095D01*
X131294142Y-68222714D01*
X130389380Y-66984619D02*
X130389380Y-66889380D01*
X130437000Y-66794142D01*
X130484619Y-66746523D01*
X130579857Y-66698904D01*
X130770333Y-66651285D01*
X131008428Y-66651285D01*
X131198904Y-66698904D01*
X131294142Y-66746523D01*
X131341761Y-66794142D01*
X131389380Y-66889380D01*
X131389380Y-66984619D01*
X131341761Y-67079857D01*
X131294142Y-67127476D01*
X131198904Y-67175095D01*
X131008428Y-67222714D01*
X130770333Y-67222714D01*
X130579857Y-67175095D01*
X130484619Y-67127476D01*
X130437000Y-67079857D01*
X130389380Y-66984619D01*
X130389380Y-65794142D02*
X130389380Y-65984619D01*
X130437000Y-66079857D01*
X130484619Y-66127476D01*
X130627476Y-66222714D01*
X130817952Y-66270333D01*
X131198904Y-66270333D01*
X131294142Y-66222714D01*
X131341761Y-66175095D01*
X131389380Y-66079857D01*
X131389380Y-65889380D01*
X131341761Y-65794142D01*
X131294142Y-65746523D01*
X131198904Y-65698904D01*
X130960809Y-65698904D01*
X130865571Y-65746523D01*
X130817952Y-65794142D01*
X130770333Y-65889380D01*
X130770333Y-66079857D01*
X130817952Y-66175095D01*
X130865571Y-66222714D01*
X130960809Y-66270333D01*
G04 #@! TO.C,R307*
X109905952Y-66127380D02*
X109572619Y-65651190D01*
X109334523Y-66127380D02*
X109334523Y-65127380D01*
X109715476Y-65127380D01*
X109810714Y-65175000D01*
X109858333Y-65222619D01*
X109905952Y-65317857D01*
X109905952Y-65460714D01*
X109858333Y-65555952D01*
X109810714Y-65603571D01*
X109715476Y-65651190D01*
X109334523Y-65651190D01*
X110239285Y-65127380D02*
X110858333Y-65127380D01*
X110525000Y-65508333D01*
X110667857Y-65508333D01*
X110763095Y-65555952D01*
X110810714Y-65603571D01*
X110858333Y-65698809D01*
X110858333Y-65936904D01*
X110810714Y-66032142D01*
X110763095Y-66079761D01*
X110667857Y-66127380D01*
X110382142Y-66127380D01*
X110286904Y-66079761D01*
X110239285Y-66032142D01*
X111477380Y-65127380D02*
X111572619Y-65127380D01*
X111667857Y-65175000D01*
X111715476Y-65222619D01*
X111763095Y-65317857D01*
X111810714Y-65508333D01*
X111810714Y-65746428D01*
X111763095Y-65936904D01*
X111715476Y-66032142D01*
X111667857Y-66079761D01*
X111572619Y-66127380D01*
X111477380Y-66127380D01*
X111382142Y-66079761D01*
X111334523Y-66032142D01*
X111286904Y-65936904D01*
X111239285Y-65746428D01*
X111239285Y-65508333D01*
X111286904Y-65317857D01*
X111334523Y-65222619D01*
X111382142Y-65175000D01*
X111477380Y-65127380D01*
X112144047Y-65127380D02*
X112810714Y-65127380D01*
X112382142Y-66127380D01*
G04 #@! TO.C,R308*
X114030952Y-68352380D02*
X113697619Y-67876190D01*
X113459523Y-68352380D02*
X113459523Y-67352380D01*
X113840476Y-67352380D01*
X113935714Y-67400000D01*
X113983333Y-67447619D01*
X114030952Y-67542857D01*
X114030952Y-67685714D01*
X113983333Y-67780952D01*
X113935714Y-67828571D01*
X113840476Y-67876190D01*
X113459523Y-67876190D01*
X114364285Y-67352380D02*
X114983333Y-67352380D01*
X114650000Y-67733333D01*
X114792857Y-67733333D01*
X114888095Y-67780952D01*
X114935714Y-67828571D01*
X114983333Y-67923809D01*
X114983333Y-68161904D01*
X114935714Y-68257142D01*
X114888095Y-68304761D01*
X114792857Y-68352380D01*
X114507142Y-68352380D01*
X114411904Y-68304761D01*
X114364285Y-68257142D01*
X115602380Y-67352380D02*
X115697619Y-67352380D01*
X115792857Y-67400000D01*
X115840476Y-67447619D01*
X115888095Y-67542857D01*
X115935714Y-67733333D01*
X115935714Y-67971428D01*
X115888095Y-68161904D01*
X115840476Y-68257142D01*
X115792857Y-68304761D01*
X115697619Y-68352380D01*
X115602380Y-68352380D01*
X115507142Y-68304761D01*
X115459523Y-68257142D01*
X115411904Y-68161904D01*
X115364285Y-67971428D01*
X115364285Y-67733333D01*
X115411904Y-67542857D01*
X115459523Y-67447619D01*
X115507142Y-67400000D01*
X115602380Y-67352380D01*
X116507142Y-67780952D02*
X116411904Y-67733333D01*
X116364285Y-67685714D01*
X116316666Y-67590476D01*
X116316666Y-67542857D01*
X116364285Y-67447619D01*
X116411904Y-67400000D01*
X116507142Y-67352380D01*
X116697619Y-67352380D01*
X116792857Y-67400000D01*
X116840476Y-67447619D01*
X116888095Y-67542857D01*
X116888095Y-67590476D01*
X116840476Y-67685714D01*
X116792857Y-67733333D01*
X116697619Y-67780952D01*
X116507142Y-67780952D01*
X116411904Y-67828571D01*
X116364285Y-67876190D01*
X116316666Y-67971428D01*
X116316666Y-68161904D01*
X116364285Y-68257142D01*
X116411904Y-68304761D01*
X116507142Y-68352380D01*
X116697619Y-68352380D01*
X116792857Y-68304761D01*
X116840476Y-68257142D01*
X116888095Y-68161904D01*
X116888095Y-67971428D01*
X116840476Y-67876190D01*
X116792857Y-67828571D01*
X116697619Y-67780952D01*
G04 #@! TO.C,R311*
X121522380Y-66619047D02*
X121046190Y-66952380D01*
X121522380Y-67190476D02*
X120522380Y-67190476D01*
X120522380Y-66809523D01*
X120570000Y-66714285D01*
X120617619Y-66666666D01*
X120712857Y-66619047D01*
X120855714Y-66619047D01*
X120950952Y-66666666D01*
X120998571Y-66714285D01*
X121046190Y-66809523D01*
X121046190Y-67190476D01*
X120522380Y-66285714D02*
X120522380Y-65666666D01*
X120903333Y-66000000D01*
X120903333Y-65857142D01*
X120950952Y-65761904D01*
X120998571Y-65714285D01*
X121093809Y-65666666D01*
X121331904Y-65666666D01*
X121427142Y-65714285D01*
X121474761Y-65761904D01*
X121522380Y-65857142D01*
X121522380Y-66142857D01*
X121474761Y-66238095D01*
X121427142Y-66285714D01*
X121522380Y-64714285D02*
X121522380Y-65285714D01*
X121522380Y-65000000D02*
X120522380Y-65000000D01*
X120665238Y-65095238D01*
X120760476Y-65190476D01*
X120808095Y-65285714D01*
X121522380Y-63761904D02*
X121522380Y-64333333D01*
X121522380Y-64047619D02*
X120522380Y-64047619D01*
X120665238Y-64142857D01*
X120760476Y-64238095D01*
X120808095Y-64333333D01*
G04 #@! TO.C,R313*
X103352380Y-80919047D02*
X102876190Y-81252380D01*
X103352380Y-81490476D02*
X102352380Y-81490476D01*
X102352380Y-81109523D01*
X102400000Y-81014285D01*
X102447619Y-80966666D01*
X102542857Y-80919047D01*
X102685714Y-80919047D01*
X102780952Y-80966666D01*
X102828571Y-81014285D01*
X102876190Y-81109523D01*
X102876190Y-81490476D01*
X102352380Y-80585714D02*
X102352380Y-79966666D01*
X102733333Y-80300000D01*
X102733333Y-80157142D01*
X102780952Y-80061904D01*
X102828571Y-80014285D01*
X102923809Y-79966666D01*
X103161904Y-79966666D01*
X103257142Y-80014285D01*
X103304761Y-80061904D01*
X103352380Y-80157142D01*
X103352380Y-80442857D01*
X103304761Y-80538095D01*
X103257142Y-80585714D01*
X103352380Y-79014285D02*
X103352380Y-79585714D01*
X103352380Y-79300000D02*
X102352380Y-79300000D01*
X102495238Y-79395238D01*
X102590476Y-79490476D01*
X102638095Y-79585714D01*
X102352380Y-78680952D02*
X102352380Y-78061904D01*
X102733333Y-78395238D01*
X102733333Y-78252380D01*
X102780952Y-78157142D01*
X102828571Y-78109523D01*
X102923809Y-78061904D01*
X103161904Y-78061904D01*
X103257142Y-78109523D01*
X103304761Y-78157142D01*
X103352380Y-78252380D01*
X103352380Y-78538095D01*
X103304761Y-78633333D01*
X103257142Y-78680952D01*
G04 #@! TO.C,R314*
X92680952Y-76902380D02*
X92347619Y-76426190D01*
X92109523Y-76902380D02*
X92109523Y-75902380D01*
X92490476Y-75902380D01*
X92585714Y-75950000D01*
X92633333Y-75997619D01*
X92680952Y-76092857D01*
X92680952Y-76235714D01*
X92633333Y-76330952D01*
X92585714Y-76378571D01*
X92490476Y-76426190D01*
X92109523Y-76426190D01*
X93014285Y-75902380D02*
X93633333Y-75902380D01*
X93300000Y-76283333D01*
X93442857Y-76283333D01*
X93538095Y-76330952D01*
X93585714Y-76378571D01*
X93633333Y-76473809D01*
X93633333Y-76711904D01*
X93585714Y-76807142D01*
X93538095Y-76854761D01*
X93442857Y-76902380D01*
X93157142Y-76902380D01*
X93061904Y-76854761D01*
X93014285Y-76807142D01*
X94585714Y-76902380D02*
X94014285Y-76902380D01*
X94300000Y-76902380D02*
X94300000Y-75902380D01*
X94204761Y-76045238D01*
X94109523Y-76140476D01*
X94014285Y-76188095D01*
X95442857Y-76235714D02*
X95442857Y-76902380D01*
X95204761Y-75854761D02*
X94966666Y-76569047D01*
X95585714Y-76569047D01*
G04 #@! TO.C,R315*
X96280952Y-71252380D02*
X95947619Y-70776190D01*
X95709523Y-71252380D02*
X95709523Y-70252380D01*
X96090476Y-70252380D01*
X96185714Y-70300000D01*
X96233333Y-70347619D01*
X96280952Y-70442857D01*
X96280952Y-70585714D01*
X96233333Y-70680952D01*
X96185714Y-70728571D01*
X96090476Y-70776190D01*
X95709523Y-70776190D01*
X96614285Y-70252380D02*
X97233333Y-70252380D01*
X96900000Y-70633333D01*
X97042857Y-70633333D01*
X97138095Y-70680952D01*
X97185714Y-70728571D01*
X97233333Y-70823809D01*
X97233333Y-71061904D01*
X97185714Y-71157142D01*
X97138095Y-71204761D01*
X97042857Y-71252380D01*
X96757142Y-71252380D01*
X96661904Y-71204761D01*
X96614285Y-71157142D01*
X98185714Y-71252380D02*
X97614285Y-71252380D01*
X97900000Y-71252380D02*
X97900000Y-70252380D01*
X97804761Y-70395238D01*
X97709523Y-70490476D01*
X97614285Y-70538095D01*
X99090476Y-70252380D02*
X98614285Y-70252380D01*
X98566666Y-70728571D01*
X98614285Y-70680952D01*
X98709523Y-70633333D01*
X98947619Y-70633333D01*
X99042857Y-70680952D01*
X99090476Y-70728571D01*
X99138095Y-70823809D01*
X99138095Y-71061904D01*
X99090476Y-71157142D01*
X99042857Y-71204761D01*
X98947619Y-71252380D01*
X98709523Y-71252380D01*
X98614285Y-71204761D01*
X98566666Y-71157142D01*
G04 #@! TO.C,Y301*
X91146428Y-78151190D02*
X91146428Y-78627380D01*
X90813095Y-77627380D02*
X91146428Y-78151190D01*
X91479761Y-77627380D01*
X91717857Y-77627380D02*
X92336904Y-77627380D01*
X92003571Y-78008333D01*
X92146428Y-78008333D01*
X92241666Y-78055952D01*
X92289285Y-78103571D01*
X92336904Y-78198809D01*
X92336904Y-78436904D01*
X92289285Y-78532142D01*
X92241666Y-78579761D01*
X92146428Y-78627380D01*
X91860714Y-78627380D01*
X91765476Y-78579761D01*
X91717857Y-78532142D01*
X92955952Y-77627380D02*
X93051190Y-77627380D01*
X93146428Y-77675000D01*
X93194047Y-77722619D01*
X93241666Y-77817857D01*
X93289285Y-78008333D01*
X93289285Y-78246428D01*
X93241666Y-78436904D01*
X93194047Y-78532142D01*
X93146428Y-78579761D01*
X93051190Y-78627380D01*
X92955952Y-78627380D01*
X92860714Y-78579761D01*
X92813095Y-78532142D01*
X92765476Y-78436904D01*
X92717857Y-78246428D01*
X92717857Y-78008333D01*
X92765476Y-77817857D01*
X92813095Y-77722619D01*
X92860714Y-77675000D01*
X92955952Y-77627380D01*
X94241666Y-78627380D02*
X93670238Y-78627380D01*
X93955952Y-78627380D02*
X93955952Y-77627380D01*
X93860714Y-77770238D01*
X93765476Y-77865476D01*
X93670238Y-77913095D01*
G04 #@! TO.C,Y302*
X88296428Y-71076190D02*
X88296428Y-71552380D01*
X87963095Y-70552380D02*
X88296428Y-71076190D01*
X88629761Y-70552380D01*
X88867857Y-70552380D02*
X89486904Y-70552380D01*
X89153571Y-70933333D01*
X89296428Y-70933333D01*
X89391666Y-70980952D01*
X89439285Y-71028571D01*
X89486904Y-71123809D01*
X89486904Y-71361904D01*
X89439285Y-71457142D01*
X89391666Y-71504761D01*
X89296428Y-71552380D01*
X89010714Y-71552380D01*
X88915476Y-71504761D01*
X88867857Y-71457142D01*
X90105952Y-70552380D02*
X90201190Y-70552380D01*
X90296428Y-70600000D01*
X90344047Y-70647619D01*
X90391666Y-70742857D01*
X90439285Y-70933333D01*
X90439285Y-71171428D01*
X90391666Y-71361904D01*
X90344047Y-71457142D01*
X90296428Y-71504761D01*
X90201190Y-71552380D01*
X90105952Y-71552380D01*
X90010714Y-71504761D01*
X89963095Y-71457142D01*
X89915476Y-71361904D01*
X89867857Y-71171428D01*
X89867857Y-70933333D01*
X89915476Y-70742857D01*
X89963095Y-70647619D01*
X90010714Y-70600000D01*
X90105952Y-70552380D01*
X90820238Y-70647619D02*
X90867857Y-70600000D01*
X90963095Y-70552380D01*
X91201190Y-70552380D01*
X91296428Y-70600000D01*
X91344047Y-70647619D01*
X91391666Y-70742857D01*
X91391666Y-70838095D01*
X91344047Y-70980952D01*
X90772619Y-71552380D01*
X91391666Y-71552380D01*
G04 #@! TO.C,RV101*
X66912380Y-131062380D02*
X66579047Y-130586190D01*
X66340952Y-131062380D02*
X66340952Y-130062380D01*
X66721904Y-130062380D01*
X66817142Y-130110000D01*
X66864761Y-130157619D01*
X66912380Y-130252857D01*
X66912380Y-130395714D01*
X66864761Y-130490952D01*
X66817142Y-130538571D01*
X66721904Y-130586190D01*
X66340952Y-130586190D01*
X67198095Y-130062380D02*
X67531428Y-131062380D01*
X67864761Y-130062380D01*
X68721904Y-131062380D02*
X68150476Y-131062380D01*
X68436190Y-131062380D02*
X68436190Y-130062380D01*
X68340952Y-130205238D01*
X68245714Y-130300476D01*
X68150476Y-130348095D01*
X69340952Y-130062380D02*
X69436190Y-130062380D01*
X69531428Y-130110000D01*
X69579047Y-130157619D01*
X69626666Y-130252857D01*
X69674285Y-130443333D01*
X69674285Y-130681428D01*
X69626666Y-130871904D01*
X69579047Y-130967142D01*
X69531428Y-131014761D01*
X69436190Y-131062380D01*
X69340952Y-131062380D01*
X69245714Y-131014761D01*
X69198095Y-130967142D01*
X69150476Y-130871904D01*
X69102857Y-130681428D01*
X69102857Y-130443333D01*
X69150476Y-130252857D01*
X69198095Y-130157619D01*
X69245714Y-130110000D01*
X69340952Y-130062380D01*
X70626666Y-131062380D02*
X70055238Y-131062380D01*
X70340952Y-131062380D02*
X70340952Y-130062380D01*
X70245714Y-130205238D01*
X70150476Y-130300476D01*
X70055238Y-130348095D01*
G04 #@! TO.C,Q303*
X131921380Y-91479619D02*
X131826142Y-91432000D01*
X131730904Y-91336761D01*
X131588047Y-91193904D01*
X131492809Y-91146285D01*
X131397571Y-91146285D01*
X131445190Y-91384380D02*
X131349952Y-91336761D01*
X131254714Y-91241523D01*
X131207095Y-91051047D01*
X131207095Y-90717714D01*
X131254714Y-90527238D01*
X131349952Y-90432000D01*
X131445190Y-90384380D01*
X131635666Y-90384380D01*
X131730904Y-90432000D01*
X131826142Y-90527238D01*
X131873761Y-90717714D01*
X131873761Y-91051047D01*
X131826142Y-91241523D01*
X131730904Y-91336761D01*
X131635666Y-91384380D01*
X131445190Y-91384380D01*
X132207095Y-90384380D02*
X132826142Y-90384380D01*
X132492809Y-90765333D01*
X132635666Y-90765333D01*
X132730904Y-90812952D01*
X132778523Y-90860571D01*
X132826142Y-90955809D01*
X132826142Y-91193904D01*
X132778523Y-91289142D01*
X132730904Y-91336761D01*
X132635666Y-91384380D01*
X132349952Y-91384380D01*
X132254714Y-91336761D01*
X132207095Y-91289142D01*
X133445190Y-90384380D02*
X133540428Y-90384380D01*
X133635666Y-90432000D01*
X133683285Y-90479619D01*
X133730904Y-90574857D01*
X133778523Y-90765333D01*
X133778523Y-91003428D01*
X133730904Y-91193904D01*
X133683285Y-91289142D01*
X133635666Y-91336761D01*
X133540428Y-91384380D01*
X133445190Y-91384380D01*
X133349952Y-91336761D01*
X133302333Y-91289142D01*
X133254714Y-91193904D01*
X133207095Y-91003428D01*
X133207095Y-90765333D01*
X133254714Y-90574857D01*
X133302333Y-90479619D01*
X133349952Y-90432000D01*
X133445190Y-90384380D01*
X134111857Y-90384380D02*
X134730904Y-90384380D01*
X134397571Y-90765333D01*
X134540428Y-90765333D01*
X134635666Y-90812952D01*
X134683285Y-90860571D01*
X134730904Y-90955809D01*
X134730904Y-91193904D01*
X134683285Y-91289142D01*
X134635666Y-91336761D01*
X134540428Y-91384380D01*
X134254714Y-91384380D01*
X134159476Y-91336761D01*
X134111857Y-91289142D01*
G04 #@! TO.C,R318*
X141592380Y-87349047D02*
X141116190Y-87682380D01*
X141592380Y-87920476D02*
X140592380Y-87920476D01*
X140592380Y-87539523D01*
X140640000Y-87444285D01*
X140687619Y-87396666D01*
X140782857Y-87349047D01*
X140925714Y-87349047D01*
X141020952Y-87396666D01*
X141068571Y-87444285D01*
X141116190Y-87539523D01*
X141116190Y-87920476D01*
X140592380Y-87015714D02*
X140592380Y-86396666D01*
X140973333Y-86730000D01*
X140973333Y-86587142D01*
X141020952Y-86491904D01*
X141068571Y-86444285D01*
X141163809Y-86396666D01*
X141401904Y-86396666D01*
X141497142Y-86444285D01*
X141544761Y-86491904D01*
X141592380Y-86587142D01*
X141592380Y-86872857D01*
X141544761Y-86968095D01*
X141497142Y-87015714D01*
X141592380Y-85444285D02*
X141592380Y-86015714D01*
X141592380Y-85730000D02*
X140592380Y-85730000D01*
X140735238Y-85825238D01*
X140830476Y-85920476D01*
X140878095Y-86015714D01*
X141020952Y-84872857D02*
X140973333Y-84968095D01*
X140925714Y-85015714D01*
X140830476Y-85063333D01*
X140782857Y-85063333D01*
X140687619Y-85015714D01*
X140640000Y-84968095D01*
X140592380Y-84872857D01*
X140592380Y-84682380D01*
X140640000Y-84587142D01*
X140687619Y-84539523D01*
X140782857Y-84491904D01*
X140830476Y-84491904D01*
X140925714Y-84539523D01*
X140973333Y-84587142D01*
X141020952Y-84682380D01*
X141020952Y-84872857D01*
X141068571Y-84968095D01*
X141116190Y-85015714D01*
X141211428Y-85063333D01*
X141401904Y-85063333D01*
X141497142Y-85015714D01*
X141544761Y-84968095D01*
X141592380Y-84872857D01*
X141592380Y-84682380D01*
X141544761Y-84587142D01*
X141497142Y-84539523D01*
X141401904Y-84491904D01*
X141211428Y-84491904D01*
X141116190Y-84539523D01*
X141068571Y-84587142D01*
X141020952Y-84682380D01*
G04 #@! TO.C,R320*
X129622380Y-86179047D02*
X129146190Y-86512380D01*
X129622380Y-86750476D02*
X128622380Y-86750476D01*
X128622380Y-86369523D01*
X128670000Y-86274285D01*
X128717619Y-86226666D01*
X128812857Y-86179047D01*
X128955714Y-86179047D01*
X129050952Y-86226666D01*
X129098571Y-86274285D01*
X129146190Y-86369523D01*
X129146190Y-86750476D01*
X128622380Y-85845714D02*
X128622380Y-85226666D01*
X129003333Y-85560000D01*
X129003333Y-85417142D01*
X129050952Y-85321904D01*
X129098571Y-85274285D01*
X129193809Y-85226666D01*
X129431904Y-85226666D01*
X129527142Y-85274285D01*
X129574761Y-85321904D01*
X129622380Y-85417142D01*
X129622380Y-85702857D01*
X129574761Y-85798095D01*
X129527142Y-85845714D01*
X128717619Y-84845714D02*
X128670000Y-84798095D01*
X128622380Y-84702857D01*
X128622380Y-84464761D01*
X128670000Y-84369523D01*
X128717619Y-84321904D01*
X128812857Y-84274285D01*
X128908095Y-84274285D01*
X129050952Y-84321904D01*
X129622380Y-84893333D01*
X129622380Y-84274285D01*
X128622380Y-83655238D02*
X128622380Y-83560000D01*
X128670000Y-83464761D01*
X128717619Y-83417142D01*
X128812857Y-83369523D01*
X129003333Y-83321904D01*
X129241428Y-83321904D01*
X129431904Y-83369523D01*
X129527142Y-83417142D01*
X129574761Y-83464761D01*
X129622380Y-83560000D01*
X129622380Y-83655238D01*
X129574761Y-83750476D01*
X129527142Y-83798095D01*
X129431904Y-83845714D01*
X129241428Y-83893333D01*
X129003333Y-83893333D01*
X128812857Y-83845714D01*
X128717619Y-83798095D01*
X128670000Y-83750476D01*
X128622380Y-83655238D01*
G04 #@! TO.C,P303*
X121832380Y-62450476D02*
X120832380Y-62450476D01*
X120832380Y-62069523D01*
X120880000Y-61974285D01*
X120927619Y-61926666D01*
X121022857Y-61879047D01*
X121165714Y-61879047D01*
X121260952Y-61926666D01*
X121308571Y-61974285D01*
X121356190Y-62069523D01*
X121356190Y-62450476D01*
X120832380Y-61545714D02*
X120832380Y-60926666D01*
X121213333Y-61260000D01*
X121213333Y-61117142D01*
X121260952Y-61021904D01*
X121308571Y-60974285D01*
X121403809Y-60926666D01*
X121641904Y-60926666D01*
X121737142Y-60974285D01*
X121784761Y-61021904D01*
X121832380Y-61117142D01*
X121832380Y-61402857D01*
X121784761Y-61498095D01*
X121737142Y-61545714D01*
X120832380Y-60307619D02*
X120832380Y-60212380D01*
X120880000Y-60117142D01*
X120927619Y-60069523D01*
X121022857Y-60021904D01*
X121213333Y-59974285D01*
X121451428Y-59974285D01*
X121641904Y-60021904D01*
X121737142Y-60069523D01*
X121784761Y-60117142D01*
X121832380Y-60212380D01*
X121832380Y-60307619D01*
X121784761Y-60402857D01*
X121737142Y-60450476D01*
X121641904Y-60498095D01*
X121451428Y-60545714D01*
X121213333Y-60545714D01*
X121022857Y-60498095D01*
X120927619Y-60450476D01*
X120880000Y-60402857D01*
X120832380Y-60307619D01*
X120832380Y-59640952D02*
X120832380Y-59021904D01*
X121213333Y-59355238D01*
X121213333Y-59212380D01*
X121260952Y-59117142D01*
X121308571Y-59069523D01*
X121403809Y-59021904D01*
X121641904Y-59021904D01*
X121737142Y-59069523D01*
X121784761Y-59117142D01*
X121832380Y-59212380D01*
X121832380Y-59498095D01*
X121784761Y-59593333D01*
X121737142Y-59640952D01*
G04 #@! TO.C,P304*
X106452380Y-61940476D02*
X105452380Y-61940476D01*
X105452380Y-61559523D01*
X105500000Y-61464285D01*
X105547619Y-61416666D01*
X105642857Y-61369047D01*
X105785714Y-61369047D01*
X105880952Y-61416666D01*
X105928571Y-61464285D01*
X105976190Y-61559523D01*
X105976190Y-61940476D01*
X105452380Y-61035714D02*
X105452380Y-60416666D01*
X105833333Y-60750000D01*
X105833333Y-60607142D01*
X105880952Y-60511904D01*
X105928571Y-60464285D01*
X106023809Y-60416666D01*
X106261904Y-60416666D01*
X106357142Y-60464285D01*
X106404761Y-60511904D01*
X106452380Y-60607142D01*
X106452380Y-60892857D01*
X106404761Y-60988095D01*
X106357142Y-61035714D01*
X105452380Y-59797619D02*
X105452380Y-59702380D01*
X105500000Y-59607142D01*
X105547619Y-59559523D01*
X105642857Y-59511904D01*
X105833333Y-59464285D01*
X106071428Y-59464285D01*
X106261904Y-59511904D01*
X106357142Y-59559523D01*
X106404761Y-59607142D01*
X106452380Y-59702380D01*
X106452380Y-59797619D01*
X106404761Y-59892857D01*
X106357142Y-59940476D01*
X106261904Y-59988095D01*
X106071428Y-60035714D01*
X105833333Y-60035714D01*
X105642857Y-59988095D01*
X105547619Y-59940476D01*
X105500000Y-59892857D01*
X105452380Y-59797619D01*
X105785714Y-58607142D02*
X106452380Y-58607142D01*
X105404761Y-58845238D02*
X106119047Y-59083333D01*
X106119047Y-58464285D01*
G04 #@! TO.C,P305*
X132167523Y-70810380D02*
X132167523Y-69810380D01*
X132548476Y-69810380D01*
X132643714Y-69858000D01*
X132691333Y-69905619D01*
X132738952Y-70000857D01*
X132738952Y-70143714D01*
X132691333Y-70238952D01*
X132643714Y-70286571D01*
X132548476Y-70334190D01*
X132167523Y-70334190D01*
X133072285Y-69810380D02*
X133691333Y-69810380D01*
X133358000Y-70191333D01*
X133500857Y-70191333D01*
X133596095Y-70238952D01*
X133643714Y-70286571D01*
X133691333Y-70381809D01*
X133691333Y-70619904D01*
X133643714Y-70715142D01*
X133596095Y-70762761D01*
X133500857Y-70810380D01*
X133215142Y-70810380D01*
X133119904Y-70762761D01*
X133072285Y-70715142D01*
X134310380Y-69810380D02*
X134405619Y-69810380D01*
X134500857Y-69858000D01*
X134548476Y-69905619D01*
X134596095Y-70000857D01*
X134643714Y-70191333D01*
X134643714Y-70429428D01*
X134596095Y-70619904D01*
X134548476Y-70715142D01*
X134500857Y-70762761D01*
X134405619Y-70810380D01*
X134310380Y-70810380D01*
X134215142Y-70762761D01*
X134167523Y-70715142D01*
X134119904Y-70619904D01*
X134072285Y-70429428D01*
X134072285Y-70191333D01*
X134119904Y-70000857D01*
X134167523Y-69905619D01*
X134215142Y-69858000D01*
X134310380Y-69810380D01*
X135548476Y-69810380D02*
X135072285Y-69810380D01*
X135024666Y-70286571D01*
X135072285Y-70238952D01*
X135167523Y-70191333D01*
X135405619Y-70191333D01*
X135500857Y-70238952D01*
X135548476Y-70286571D01*
X135596095Y-70381809D01*
X135596095Y-70619904D01*
X135548476Y-70715142D01*
X135500857Y-70762761D01*
X135405619Y-70810380D01*
X135167523Y-70810380D01*
X135072285Y-70762761D01*
X135024666Y-70715142D01*
G04 #@! TO.C,C309*
X71700952Y-66187142D02*
X71653333Y-66234761D01*
X71510476Y-66282380D01*
X71415238Y-66282380D01*
X71272380Y-66234761D01*
X71177142Y-66139523D01*
X71129523Y-66044285D01*
X71081904Y-65853809D01*
X71081904Y-65710952D01*
X71129523Y-65520476D01*
X71177142Y-65425238D01*
X71272380Y-65330000D01*
X71415238Y-65282380D01*
X71510476Y-65282380D01*
X71653333Y-65330000D01*
X71700952Y-65377619D01*
X72034285Y-65282380D02*
X72653333Y-65282380D01*
X72320000Y-65663333D01*
X72462857Y-65663333D01*
X72558095Y-65710952D01*
X72605714Y-65758571D01*
X72653333Y-65853809D01*
X72653333Y-66091904D01*
X72605714Y-66187142D01*
X72558095Y-66234761D01*
X72462857Y-66282380D01*
X72177142Y-66282380D01*
X72081904Y-66234761D01*
X72034285Y-66187142D01*
X73272380Y-65282380D02*
X73367619Y-65282380D01*
X73462857Y-65330000D01*
X73510476Y-65377619D01*
X73558095Y-65472857D01*
X73605714Y-65663333D01*
X73605714Y-65901428D01*
X73558095Y-66091904D01*
X73510476Y-66187142D01*
X73462857Y-66234761D01*
X73367619Y-66282380D01*
X73272380Y-66282380D01*
X73177142Y-66234761D01*
X73129523Y-66187142D01*
X73081904Y-66091904D01*
X73034285Y-65901428D01*
X73034285Y-65663333D01*
X73081904Y-65472857D01*
X73129523Y-65377619D01*
X73177142Y-65330000D01*
X73272380Y-65282380D01*
X74081904Y-66282380D02*
X74272380Y-66282380D01*
X74367619Y-66234761D01*
X74415238Y-66187142D01*
X74510476Y-66044285D01*
X74558095Y-65853809D01*
X74558095Y-65472857D01*
X74510476Y-65377619D01*
X74462857Y-65330000D01*
X74367619Y-65282380D01*
X74177142Y-65282380D01*
X74081904Y-65330000D01*
X74034285Y-65377619D01*
X73986666Y-65472857D01*
X73986666Y-65710952D01*
X74034285Y-65806190D01*
X74081904Y-65853809D01*
X74177142Y-65901428D01*
X74367619Y-65901428D01*
X74462857Y-65853809D01*
X74510476Y-65806190D01*
X74558095Y-65710952D01*
G04 #@! TO.C,C310*
X70760952Y-58517142D02*
X70713333Y-58564761D01*
X70570476Y-58612380D01*
X70475238Y-58612380D01*
X70332380Y-58564761D01*
X70237142Y-58469523D01*
X70189523Y-58374285D01*
X70141904Y-58183809D01*
X70141904Y-58040952D01*
X70189523Y-57850476D01*
X70237142Y-57755238D01*
X70332380Y-57660000D01*
X70475238Y-57612380D01*
X70570476Y-57612380D01*
X70713333Y-57660000D01*
X70760952Y-57707619D01*
X71094285Y-57612380D02*
X71713333Y-57612380D01*
X71380000Y-57993333D01*
X71522857Y-57993333D01*
X71618095Y-58040952D01*
X71665714Y-58088571D01*
X71713333Y-58183809D01*
X71713333Y-58421904D01*
X71665714Y-58517142D01*
X71618095Y-58564761D01*
X71522857Y-58612380D01*
X71237142Y-58612380D01*
X71141904Y-58564761D01*
X71094285Y-58517142D01*
X72665714Y-58612380D02*
X72094285Y-58612380D01*
X72380000Y-58612380D02*
X72380000Y-57612380D01*
X72284761Y-57755238D01*
X72189523Y-57850476D01*
X72094285Y-57898095D01*
X73284761Y-57612380D02*
X73380000Y-57612380D01*
X73475238Y-57660000D01*
X73522857Y-57707619D01*
X73570476Y-57802857D01*
X73618095Y-57993333D01*
X73618095Y-58231428D01*
X73570476Y-58421904D01*
X73522857Y-58517142D01*
X73475238Y-58564761D01*
X73380000Y-58612380D01*
X73284761Y-58612380D01*
X73189523Y-58564761D01*
X73141904Y-58517142D01*
X73094285Y-58421904D01*
X73046666Y-58231428D01*
X73046666Y-57993333D01*
X73094285Y-57802857D01*
X73141904Y-57707619D01*
X73189523Y-57660000D01*
X73284761Y-57612380D01*
G04 #@! TO.C,P306*
X131952380Y-75440476D02*
X130952380Y-75440476D01*
X130952380Y-75059523D01*
X131000000Y-74964285D01*
X131047619Y-74916666D01*
X131142857Y-74869047D01*
X131285714Y-74869047D01*
X131380952Y-74916666D01*
X131428571Y-74964285D01*
X131476190Y-75059523D01*
X131476190Y-75440476D01*
X130952380Y-74535714D02*
X130952380Y-73916666D01*
X131333333Y-74250000D01*
X131333333Y-74107142D01*
X131380952Y-74011904D01*
X131428571Y-73964285D01*
X131523809Y-73916666D01*
X131761904Y-73916666D01*
X131857142Y-73964285D01*
X131904761Y-74011904D01*
X131952380Y-74107142D01*
X131952380Y-74392857D01*
X131904761Y-74488095D01*
X131857142Y-74535714D01*
X130952380Y-73297619D02*
X130952380Y-73202380D01*
X131000000Y-73107142D01*
X131047619Y-73059523D01*
X131142857Y-73011904D01*
X131333333Y-72964285D01*
X131571428Y-72964285D01*
X131761904Y-73011904D01*
X131857142Y-73059523D01*
X131904761Y-73107142D01*
X131952380Y-73202380D01*
X131952380Y-73297619D01*
X131904761Y-73392857D01*
X131857142Y-73440476D01*
X131761904Y-73488095D01*
X131571428Y-73535714D01*
X131333333Y-73535714D01*
X131142857Y-73488095D01*
X131047619Y-73440476D01*
X131000000Y-73392857D01*
X130952380Y-73297619D01*
X130952380Y-72107142D02*
X130952380Y-72297619D01*
X131000000Y-72392857D01*
X131047619Y-72440476D01*
X131190476Y-72535714D01*
X131380952Y-72583333D01*
X131761904Y-72583333D01*
X131857142Y-72535714D01*
X131904761Y-72488095D01*
X131952380Y-72392857D01*
X131952380Y-72202380D01*
X131904761Y-72107142D01*
X131857142Y-72059523D01*
X131761904Y-72011904D01*
X131523809Y-72011904D01*
X131428571Y-72059523D01*
X131380952Y-72107142D01*
X131333333Y-72202380D01*
X131333333Y-72392857D01*
X131380952Y-72488095D01*
X131428571Y-72535714D01*
X131523809Y-72583333D01*
G04 #@! TO.C,TP102*
X67702380Y-63784285D02*
X67702380Y-63212857D01*
X68702380Y-63498571D02*
X67702380Y-63498571D01*
X68702380Y-62879523D02*
X67702380Y-62879523D01*
X67702380Y-62498571D01*
X67750000Y-62403333D01*
X67797619Y-62355714D01*
X67892857Y-62308095D01*
X68035714Y-62308095D01*
X68130952Y-62355714D01*
X68178571Y-62403333D01*
X68226190Y-62498571D01*
X68226190Y-62879523D01*
X68702380Y-61355714D02*
X68702380Y-61927142D01*
X68702380Y-61641428D02*
X67702380Y-61641428D01*
X67845238Y-61736666D01*
X67940476Y-61831904D01*
X67988095Y-61927142D01*
X67702380Y-60736666D02*
X67702380Y-60641428D01*
X67750000Y-60546190D01*
X67797619Y-60498571D01*
X67892857Y-60450952D01*
X68083333Y-60403333D01*
X68321428Y-60403333D01*
X68511904Y-60450952D01*
X68607142Y-60498571D01*
X68654761Y-60546190D01*
X68702380Y-60641428D01*
X68702380Y-60736666D01*
X68654761Y-60831904D01*
X68607142Y-60879523D01*
X68511904Y-60927142D01*
X68321428Y-60974761D01*
X68083333Y-60974761D01*
X67892857Y-60927142D01*
X67797619Y-60879523D01*
X67750000Y-60831904D01*
X67702380Y-60736666D01*
X67797619Y-60022380D02*
X67750000Y-59974761D01*
X67702380Y-59879523D01*
X67702380Y-59641428D01*
X67750000Y-59546190D01*
X67797619Y-59498571D01*
X67892857Y-59450952D01*
X67988095Y-59450952D01*
X68130952Y-59498571D01*
X68702380Y-60070000D01*
X68702380Y-59450952D01*
G04 #@! TO.C,TP103*
X85112380Y-87464285D02*
X85112380Y-86892857D01*
X86112380Y-87178571D02*
X85112380Y-87178571D01*
X86112380Y-86559523D02*
X85112380Y-86559523D01*
X85112380Y-86178571D01*
X85160000Y-86083333D01*
X85207619Y-86035714D01*
X85302857Y-85988095D01*
X85445714Y-85988095D01*
X85540952Y-86035714D01*
X85588571Y-86083333D01*
X85636190Y-86178571D01*
X85636190Y-86559523D01*
X86112380Y-85035714D02*
X86112380Y-85607142D01*
X86112380Y-85321428D02*
X85112380Y-85321428D01*
X85255238Y-85416666D01*
X85350476Y-85511904D01*
X85398095Y-85607142D01*
X85112380Y-84416666D02*
X85112380Y-84321428D01*
X85160000Y-84226190D01*
X85207619Y-84178571D01*
X85302857Y-84130952D01*
X85493333Y-84083333D01*
X85731428Y-84083333D01*
X85921904Y-84130952D01*
X86017142Y-84178571D01*
X86064761Y-84226190D01*
X86112380Y-84321428D01*
X86112380Y-84416666D01*
X86064761Y-84511904D01*
X86017142Y-84559523D01*
X85921904Y-84607142D01*
X85731428Y-84654761D01*
X85493333Y-84654761D01*
X85302857Y-84607142D01*
X85207619Y-84559523D01*
X85160000Y-84511904D01*
X85112380Y-84416666D01*
X85112380Y-83750000D02*
X85112380Y-83130952D01*
X85493333Y-83464285D01*
X85493333Y-83321428D01*
X85540952Y-83226190D01*
X85588571Y-83178571D01*
X85683809Y-83130952D01*
X85921904Y-83130952D01*
X86017142Y-83178571D01*
X86064761Y-83226190D01*
X86112380Y-83321428D01*
X86112380Y-83607142D01*
X86064761Y-83702380D01*
X86017142Y-83750000D01*
G04 #@! TO.C,TP105*
X104412380Y-92384285D02*
X104412380Y-91812857D01*
X105412380Y-92098571D02*
X104412380Y-92098571D01*
X105412380Y-91479523D02*
X104412380Y-91479523D01*
X104412380Y-91098571D01*
X104460000Y-91003333D01*
X104507619Y-90955714D01*
X104602857Y-90908095D01*
X104745714Y-90908095D01*
X104840952Y-90955714D01*
X104888571Y-91003333D01*
X104936190Y-91098571D01*
X104936190Y-91479523D01*
X105412380Y-89955714D02*
X105412380Y-90527142D01*
X105412380Y-90241428D02*
X104412380Y-90241428D01*
X104555238Y-90336666D01*
X104650476Y-90431904D01*
X104698095Y-90527142D01*
X104412380Y-89336666D02*
X104412380Y-89241428D01*
X104460000Y-89146190D01*
X104507619Y-89098571D01*
X104602857Y-89050952D01*
X104793333Y-89003333D01*
X105031428Y-89003333D01*
X105221904Y-89050952D01*
X105317142Y-89098571D01*
X105364761Y-89146190D01*
X105412380Y-89241428D01*
X105412380Y-89336666D01*
X105364761Y-89431904D01*
X105317142Y-89479523D01*
X105221904Y-89527142D01*
X105031428Y-89574761D01*
X104793333Y-89574761D01*
X104602857Y-89527142D01*
X104507619Y-89479523D01*
X104460000Y-89431904D01*
X104412380Y-89336666D01*
X104412380Y-88098571D02*
X104412380Y-88574761D01*
X104888571Y-88622380D01*
X104840952Y-88574761D01*
X104793333Y-88479523D01*
X104793333Y-88241428D01*
X104840952Y-88146190D01*
X104888571Y-88098571D01*
X104983809Y-88050952D01*
X105221904Y-88050952D01*
X105317142Y-88098571D01*
X105364761Y-88146190D01*
X105412380Y-88241428D01*
X105412380Y-88479523D01*
X105364761Y-88574761D01*
X105317142Y-88622380D01*
G04 #@! TO.C,TP106*
X125085714Y-88098380D02*
X125657142Y-88098380D01*
X125371428Y-89098380D02*
X125371428Y-88098380D01*
X125990476Y-89098380D02*
X125990476Y-88098380D01*
X126371428Y-88098380D01*
X126466666Y-88146000D01*
X126514285Y-88193619D01*
X126561904Y-88288857D01*
X126561904Y-88431714D01*
X126514285Y-88526952D01*
X126466666Y-88574571D01*
X126371428Y-88622190D01*
X125990476Y-88622190D01*
X127514285Y-89098380D02*
X126942857Y-89098380D01*
X127228571Y-89098380D02*
X127228571Y-88098380D01*
X127133333Y-88241238D01*
X127038095Y-88336476D01*
X126942857Y-88384095D01*
X128133333Y-88098380D02*
X128228571Y-88098380D01*
X128323809Y-88146000D01*
X128371428Y-88193619D01*
X128419047Y-88288857D01*
X128466666Y-88479333D01*
X128466666Y-88717428D01*
X128419047Y-88907904D01*
X128371428Y-89003142D01*
X128323809Y-89050761D01*
X128228571Y-89098380D01*
X128133333Y-89098380D01*
X128038095Y-89050761D01*
X127990476Y-89003142D01*
X127942857Y-88907904D01*
X127895238Y-88717428D01*
X127895238Y-88479333D01*
X127942857Y-88288857D01*
X127990476Y-88193619D01*
X128038095Y-88146000D01*
X128133333Y-88098380D01*
X129323809Y-88098380D02*
X129133333Y-88098380D01*
X129038095Y-88146000D01*
X128990476Y-88193619D01*
X128895238Y-88336476D01*
X128847619Y-88526952D01*
X128847619Y-88907904D01*
X128895238Y-89003142D01*
X128942857Y-89050761D01*
X129038095Y-89098380D01*
X129228571Y-89098380D01*
X129323809Y-89050761D01*
X129371428Y-89003142D01*
X129419047Y-88907904D01*
X129419047Y-88669809D01*
X129371428Y-88574571D01*
X129323809Y-88526952D01*
X129228571Y-88479333D01*
X129038095Y-88479333D01*
X128942857Y-88526952D01*
X128895238Y-88574571D01*
X128847619Y-88669809D01*
G04 #@! TO.C,TP107*
X65502380Y-63784285D02*
X65502380Y-63212857D01*
X66502380Y-63498571D02*
X65502380Y-63498571D01*
X66502380Y-62879523D02*
X65502380Y-62879523D01*
X65502380Y-62498571D01*
X65550000Y-62403333D01*
X65597619Y-62355714D01*
X65692857Y-62308095D01*
X65835714Y-62308095D01*
X65930952Y-62355714D01*
X65978571Y-62403333D01*
X66026190Y-62498571D01*
X66026190Y-62879523D01*
X66502380Y-61355714D02*
X66502380Y-61927142D01*
X66502380Y-61641428D02*
X65502380Y-61641428D01*
X65645238Y-61736666D01*
X65740476Y-61831904D01*
X65788095Y-61927142D01*
X65502380Y-60736666D02*
X65502380Y-60641428D01*
X65550000Y-60546190D01*
X65597619Y-60498571D01*
X65692857Y-60450952D01*
X65883333Y-60403333D01*
X66121428Y-60403333D01*
X66311904Y-60450952D01*
X66407142Y-60498571D01*
X66454761Y-60546190D01*
X66502380Y-60641428D01*
X66502380Y-60736666D01*
X66454761Y-60831904D01*
X66407142Y-60879523D01*
X66311904Y-60927142D01*
X66121428Y-60974761D01*
X65883333Y-60974761D01*
X65692857Y-60927142D01*
X65597619Y-60879523D01*
X65550000Y-60831904D01*
X65502380Y-60736666D01*
X65502380Y-60070000D02*
X65502380Y-59403333D01*
X66502380Y-59831904D01*
G04 #@! TO.C,TP109*
X83682380Y-87434285D02*
X83682380Y-86862857D01*
X84682380Y-87148571D02*
X83682380Y-87148571D01*
X84682380Y-86529523D02*
X83682380Y-86529523D01*
X83682380Y-86148571D01*
X83730000Y-86053333D01*
X83777619Y-86005714D01*
X83872857Y-85958095D01*
X84015714Y-85958095D01*
X84110952Y-86005714D01*
X84158571Y-86053333D01*
X84206190Y-86148571D01*
X84206190Y-86529523D01*
X84682380Y-85005714D02*
X84682380Y-85577142D01*
X84682380Y-85291428D02*
X83682380Y-85291428D01*
X83825238Y-85386666D01*
X83920476Y-85481904D01*
X83968095Y-85577142D01*
X83682380Y-84386666D02*
X83682380Y-84291428D01*
X83730000Y-84196190D01*
X83777619Y-84148571D01*
X83872857Y-84100952D01*
X84063333Y-84053333D01*
X84301428Y-84053333D01*
X84491904Y-84100952D01*
X84587142Y-84148571D01*
X84634761Y-84196190D01*
X84682380Y-84291428D01*
X84682380Y-84386666D01*
X84634761Y-84481904D01*
X84587142Y-84529523D01*
X84491904Y-84577142D01*
X84301428Y-84624761D01*
X84063333Y-84624761D01*
X83872857Y-84577142D01*
X83777619Y-84529523D01*
X83730000Y-84481904D01*
X83682380Y-84386666D01*
X84682380Y-83577142D02*
X84682380Y-83386666D01*
X84634761Y-83291428D01*
X84587142Y-83243809D01*
X84444285Y-83148571D01*
X84253809Y-83100952D01*
X83872857Y-83100952D01*
X83777619Y-83148571D01*
X83730000Y-83196190D01*
X83682380Y-83291428D01*
X83682380Y-83481904D01*
X83730000Y-83577142D01*
X83777619Y-83624761D01*
X83872857Y-83672380D01*
X84110952Y-83672380D01*
X84206190Y-83624761D01*
X84253809Y-83577142D01*
X84301428Y-83481904D01*
X84301428Y-83291428D01*
X84253809Y-83196190D01*
X84206190Y-83148571D01*
X84110952Y-83100952D01*
G04 #@! TO.C,TP301*
X103830714Y-84161380D02*
X104402142Y-84161380D01*
X104116428Y-85161380D02*
X104116428Y-84161380D01*
X104735476Y-85161380D02*
X104735476Y-84161380D01*
X105116428Y-84161380D01*
X105211666Y-84209000D01*
X105259285Y-84256619D01*
X105306904Y-84351857D01*
X105306904Y-84494714D01*
X105259285Y-84589952D01*
X105211666Y-84637571D01*
X105116428Y-84685190D01*
X104735476Y-84685190D01*
X105640238Y-84161380D02*
X106259285Y-84161380D01*
X105925952Y-84542333D01*
X106068809Y-84542333D01*
X106164047Y-84589952D01*
X106211666Y-84637571D01*
X106259285Y-84732809D01*
X106259285Y-84970904D01*
X106211666Y-85066142D01*
X106164047Y-85113761D01*
X106068809Y-85161380D01*
X105783095Y-85161380D01*
X105687857Y-85113761D01*
X105640238Y-85066142D01*
X106878333Y-84161380D02*
X106973571Y-84161380D01*
X107068809Y-84209000D01*
X107116428Y-84256619D01*
X107164047Y-84351857D01*
X107211666Y-84542333D01*
X107211666Y-84780428D01*
X107164047Y-84970904D01*
X107116428Y-85066142D01*
X107068809Y-85113761D01*
X106973571Y-85161380D01*
X106878333Y-85161380D01*
X106783095Y-85113761D01*
X106735476Y-85066142D01*
X106687857Y-84970904D01*
X106640238Y-84780428D01*
X106640238Y-84542333D01*
X106687857Y-84351857D01*
X106735476Y-84256619D01*
X106783095Y-84209000D01*
X106878333Y-84161380D01*
X108164047Y-85161380D02*
X107592619Y-85161380D01*
X107878333Y-85161380D02*
X107878333Y-84161380D01*
X107783095Y-84304238D01*
X107687857Y-84399476D01*
X107592619Y-84447095D01*
G04 #@! TO.C,TP302*
X103860714Y-67852380D02*
X104432142Y-67852380D01*
X104146428Y-68852380D02*
X104146428Y-67852380D01*
X104765476Y-68852380D02*
X104765476Y-67852380D01*
X105146428Y-67852380D01*
X105241666Y-67900000D01*
X105289285Y-67947619D01*
X105336904Y-68042857D01*
X105336904Y-68185714D01*
X105289285Y-68280952D01*
X105241666Y-68328571D01*
X105146428Y-68376190D01*
X104765476Y-68376190D01*
X105670238Y-67852380D02*
X106289285Y-67852380D01*
X105955952Y-68233333D01*
X106098809Y-68233333D01*
X106194047Y-68280952D01*
X106241666Y-68328571D01*
X106289285Y-68423809D01*
X106289285Y-68661904D01*
X106241666Y-68757142D01*
X106194047Y-68804761D01*
X106098809Y-68852380D01*
X105813095Y-68852380D01*
X105717857Y-68804761D01*
X105670238Y-68757142D01*
X106908333Y-67852380D02*
X107003571Y-67852380D01*
X107098809Y-67900000D01*
X107146428Y-67947619D01*
X107194047Y-68042857D01*
X107241666Y-68233333D01*
X107241666Y-68471428D01*
X107194047Y-68661904D01*
X107146428Y-68757142D01*
X107098809Y-68804761D01*
X107003571Y-68852380D01*
X106908333Y-68852380D01*
X106813095Y-68804761D01*
X106765476Y-68757142D01*
X106717857Y-68661904D01*
X106670238Y-68471428D01*
X106670238Y-68233333D01*
X106717857Y-68042857D01*
X106765476Y-67947619D01*
X106813095Y-67900000D01*
X106908333Y-67852380D01*
X107622619Y-67947619D02*
X107670238Y-67900000D01*
X107765476Y-67852380D01*
X108003571Y-67852380D01*
X108098809Y-67900000D01*
X108146428Y-67947619D01*
X108194047Y-68042857D01*
X108194047Y-68138095D01*
X108146428Y-68280952D01*
X107575000Y-68852380D01*
X108194047Y-68852380D01*
G04 #@! TO.C,TP305*
X125252380Y-80814285D02*
X125252380Y-80242857D01*
X126252380Y-80528571D02*
X125252380Y-80528571D01*
X126252380Y-79909523D02*
X125252380Y-79909523D01*
X125252380Y-79528571D01*
X125300000Y-79433333D01*
X125347619Y-79385714D01*
X125442857Y-79338095D01*
X125585714Y-79338095D01*
X125680952Y-79385714D01*
X125728571Y-79433333D01*
X125776190Y-79528571D01*
X125776190Y-79909523D01*
X125252380Y-79004761D02*
X125252380Y-78385714D01*
X125633333Y-78719047D01*
X125633333Y-78576190D01*
X125680952Y-78480952D01*
X125728571Y-78433333D01*
X125823809Y-78385714D01*
X126061904Y-78385714D01*
X126157142Y-78433333D01*
X126204761Y-78480952D01*
X126252380Y-78576190D01*
X126252380Y-78861904D01*
X126204761Y-78957142D01*
X126157142Y-79004761D01*
X125252380Y-77766666D02*
X125252380Y-77671428D01*
X125300000Y-77576190D01*
X125347619Y-77528571D01*
X125442857Y-77480952D01*
X125633333Y-77433333D01*
X125871428Y-77433333D01*
X126061904Y-77480952D01*
X126157142Y-77528571D01*
X126204761Y-77576190D01*
X126252380Y-77671428D01*
X126252380Y-77766666D01*
X126204761Y-77861904D01*
X126157142Y-77909523D01*
X126061904Y-77957142D01*
X125871428Y-78004761D01*
X125633333Y-78004761D01*
X125442857Y-77957142D01*
X125347619Y-77909523D01*
X125300000Y-77861904D01*
X125252380Y-77766666D01*
X125252380Y-76528571D02*
X125252380Y-77004761D01*
X125728571Y-77052380D01*
X125680952Y-77004761D01*
X125633333Y-76909523D01*
X125633333Y-76671428D01*
X125680952Y-76576190D01*
X125728571Y-76528571D01*
X125823809Y-76480952D01*
X126061904Y-76480952D01*
X126157142Y-76528571D01*
X126204761Y-76576190D01*
X126252380Y-76671428D01*
X126252380Y-76909523D01*
X126204761Y-77004761D01*
X126157142Y-77052380D01*
G04 #@! TO.C,U102*
X93365714Y-88962380D02*
X93365714Y-89771904D01*
X93413333Y-89867142D01*
X93460952Y-89914761D01*
X93556190Y-89962380D01*
X93746666Y-89962380D01*
X93841904Y-89914761D01*
X93889523Y-89867142D01*
X93937142Y-89771904D01*
X93937142Y-88962380D01*
X94937142Y-89962380D02*
X94365714Y-89962380D01*
X94651428Y-89962380D02*
X94651428Y-88962380D01*
X94556190Y-89105238D01*
X94460952Y-89200476D01*
X94365714Y-89248095D01*
X95556190Y-88962380D02*
X95651428Y-88962380D01*
X95746666Y-89010000D01*
X95794285Y-89057619D01*
X95841904Y-89152857D01*
X95889523Y-89343333D01*
X95889523Y-89581428D01*
X95841904Y-89771904D01*
X95794285Y-89867142D01*
X95746666Y-89914761D01*
X95651428Y-89962380D01*
X95556190Y-89962380D01*
X95460952Y-89914761D01*
X95413333Y-89867142D01*
X95365714Y-89771904D01*
X95318095Y-89581428D01*
X95318095Y-89343333D01*
X95365714Y-89152857D01*
X95413333Y-89057619D01*
X95460952Y-89010000D01*
X95556190Y-88962380D01*
X96270476Y-89057619D02*
X96318095Y-89010000D01*
X96413333Y-88962380D01*
X96651428Y-88962380D01*
X96746666Y-89010000D01*
X96794285Y-89057619D01*
X96841904Y-89152857D01*
X96841904Y-89248095D01*
X96794285Y-89390952D01*
X96222857Y-89962380D01*
X96841904Y-89962380D01*
G04 #@! TO.C,U101*
X84815714Y-88392380D02*
X84815714Y-89201904D01*
X84863333Y-89297142D01*
X84910952Y-89344761D01*
X85006190Y-89392380D01*
X85196666Y-89392380D01*
X85291904Y-89344761D01*
X85339523Y-89297142D01*
X85387142Y-89201904D01*
X85387142Y-88392380D01*
X86387142Y-89392380D02*
X85815714Y-89392380D01*
X86101428Y-89392380D02*
X86101428Y-88392380D01*
X86006190Y-88535238D01*
X85910952Y-88630476D01*
X85815714Y-88678095D01*
X87006190Y-88392380D02*
X87101428Y-88392380D01*
X87196666Y-88440000D01*
X87244285Y-88487619D01*
X87291904Y-88582857D01*
X87339523Y-88773333D01*
X87339523Y-89011428D01*
X87291904Y-89201904D01*
X87244285Y-89297142D01*
X87196666Y-89344761D01*
X87101428Y-89392380D01*
X87006190Y-89392380D01*
X86910952Y-89344761D01*
X86863333Y-89297142D01*
X86815714Y-89201904D01*
X86768095Y-89011428D01*
X86768095Y-88773333D01*
X86815714Y-88582857D01*
X86863333Y-88487619D01*
X86910952Y-88440000D01*
X87006190Y-88392380D01*
X88291904Y-89392380D02*
X87720476Y-89392380D01*
X88006190Y-89392380D02*
X88006190Y-88392380D01*
X87910952Y-88535238D01*
X87815714Y-88630476D01*
X87720476Y-88678095D01*
G04 #@! TO.C,D101*
X65569523Y-85732380D02*
X65569523Y-84732380D01*
X65807619Y-84732380D01*
X65950476Y-84780000D01*
X66045714Y-84875238D01*
X66093333Y-84970476D01*
X66140952Y-85160952D01*
X66140952Y-85303809D01*
X66093333Y-85494285D01*
X66045714Y-85589523D01*
X65950476Y-85684761D01*
X65807619Y-85732380D01*
X65569523Y-85732380D01*
X67093333Y-85732380D02*
X66521904Y-85732380D01*
X66807619Y-85732380D02*
X66807619Y-84732380D01*
X66712380Y-84875238D01*
X66617142Y-84970476D01*
X66521904Y-85018095D01*
X67712380Y-84732380D02*
X67807619Y-84732380D01*
X67902857Y-84780000D01*
X67950476Y-84827619D01*
X67998095Y-84922857D01*
X68045714Y-85113333D01*
X68045714Y-85351428D01*
X67998095Y-85541904D01*
X67950476Y-85637142D01*
X67902857Y-85684761D01*
X67807619Y-85732380D01*
X67712380Y-85732380D01*
X67617142Y-85684761D01*
X67569523Y-85637142D01*
X67521904Y-85541904D01*
X67474285Y-85351428D01*
X67474285Y-85113333D01*
X67521904Y-84922857D01*
X67569523Y-84827619D01*
X67617142Y-84780000D01*
X67712380Y-84732380D01*
X68998095Y-85732380D02*
X68426666Y-85732380D01*
X68712380Y-85732380D02*
X68712380Y-84732380D01*
X68617142Y-84875238D01*
X68521904Y-84970476D01*
X68426666Y-85018095D01*
G04 #@! TO.C,D102*
X68822380Y-89700476D02*
X67822380Y-89700476D01*
X67822380Y-89462380D01*
X67870000Y-89319523D01*
X67965238Y-89224285D01*
X68060476Y-89176666D01*
X68250952Y-89129047D01*
X68393809Y-89129047D01*
X68584285Y-89176666D01*
X68679523Y-89224285D01*
X68774761Y-89319523D01*
X68822380Y-89462380D01*
X68822380Y-89700476D01*
X68822380Y-88176666D02*
X68822380Y-88748095D01*
X68822380Y-88462380D02*
X67822380Y-88462380D01*
X67965238Y-88557619D01*
X68060476Y-88652857D01*
X68108095Y-88748095D01*
X67822380Y-87557619D02*
X67822380Y-87462380D01*
X67870000Y-87367142D01*
X67917619Y-87319523D01*
X68012857Y-87271904D01*
X68203333Y-87224285D01*
X68441428Y-87224285D01*
X68631904Y-87271904D01*
X68727142Y-87319523D01*
X68774761Y-87367142D01*
X68822380Y-87462380D01*
X68822380Y-87557619D01*
X68774761Y-87652857D01*
X68727142Y-87700476D01*
X68631904Y-87748095D01*
X68441428Y-87795714D01*
X68203333Y-87795714D01*
X68012857Y-87748095D01*
X67917619Y-87700476D01*
X67870000Y-87652857D01*
X67822380Y-87557619D01*
X67917619Y-86843333D02*
X67870000Y-86795714D01*
X67822380Y-86700476D01*
X67822380Y-86462380D01*
X67870000Y-86367142D01*
X67917619Y-86319523D01*
X68012857Y-86271904D01*
X68108095Y-86271904D01*
X68250952Y-86319523D01*
X68822380Y-86890952D01*
X68822380Y-86271904D01*
G04 #@! TO.C,D302*
X120609523Y-91052380D02*
X120609523Y-90052380D01*
X120847619Y-90052380D01*
X120990476Y-90100000D01*
X121085714Y-90195238D01*
X121133333Y-90290476D01*
X121180952Y-90480952D01*
X121180952Y-90623809D01*
X121133333Y-90814285D01*
X121085714Y-90909523D01*
X120990476Y-91004761D01*
X120847619Y-91052380D01*
X120609523Y-91052380D01*
X121514285Y-90052380D02*
X122133333Y-90052380D01*
X121800000Y-90433333D01*
X121942857Y-90433333D01*
X122038095Y-90480952D01*
X122085714Y-90528571D01*
X122133333Y-90623809D01*
X122133333Y-90861904D01*
X122085714Y-90957142D01*
X122038095Y-91004761D01*
X121942857Y-91052380D01*
X121657142Y-91052380D01*
X121561904Y-91004761D01*
X121514285Y-90957142D01*
X122752380Y-90052380D02*
X122847619Y-90052380D01*
X122942857Y-90100000D01*
X122990476Y-90147619D01*
X123038095Y-90242857D01*
X123085714Y-90433333D01*
X123085714Y-90671428D01*
X123038095Y-90861904D01*
X122990476Y-90957142D01*
X122942857Y-91004761D01*
X122847619Y-91052380D01*
X122752380Y-91052380D01*
X122657142Y-91004761D01*
X122609523Y-90957142D01*
X122561904Y-90861904D01*
X122514285Y-90671428D01*
X122514285Y-90433333D01*
X122561904Y-90242857D01*
X122609523Y-90147619D01*
X122657142Y-90100000D01*
X122752380Y-90052380D01*
X123466666Y-90147619D02*
X123514285Y-90100000D01*
X123609523Y-90052380D01*
X123847619Y-90052380D01*
X123942857Y-90100000D01*
X123990476Y-90147619D01*
X124038095Y-90242857D01*
X124038095Y-90338095D01*
X123990476Y-90480952D01*
X123419047Y-91052380D01*
X124038095Y-91052380D01*
G04 #@! TO.C,D303*
X106709523Y-91152380D02*
X106709523Y-90152380D01*
X106947619Y-90152380D01*
X107090476Y-90200000D01*
X107185714Y-90295238D01*
X107233333Y-90390476D01*
X107280952Y-90580952D01*
X107280952Y-90723809D01*
X107233333Y-90914285D01*
X107185714Y-91009523D01*
X107090476Y-91104761D01*
X106947619Y-91152380D01*
X106709523Y-91152380D01*
X107614285Y-90152380D02*
X108233333Y-90152380D01*
X107900000Y-90533333D01*
X108042857Y-90533333D01*
X108138095Y-90580952D01*
X108185714Y-90628571D01*
X108233333Y-90723809D01*
X108233333Y-90961904D01*
X108185714Y-91057142D01*
X108138095Y-91104761D01*
X108042857Y-91152380D01*
X107757142Y-91152380D01*
X107661904Y-91104761D01*
X107614285Y-91057142D01*
X108852380Y-90152380D02*
X108947619Y-90152380D01*
X109042857Y-90200000D01*
X109090476Y-90247619D01*
X109138095Y-90342857D01*
X109185714Y-90533333D01*
X109185714Y-90771428D01*
X109138095Y-90961904D01*
X109090476Y-91057142D01*
X109042857Y-91104761D01*
X108947619Y-91152380D01*
X108852380Y-91152380D01*
X108757142Y-91104761D01*
X108709523Y-91057142D01*
X108661904Y-90961904D01*
X108614285Y-90771428D01*
X108614285Y-90533333D01*
X108661904Y-90342857D01*
X108709523Y-90247619D01*
X108757142Y-90200000D01*
X108852380Y-90152380D01*
X109519047Y-90152380D02*
X110138095Y-90152380D01*
X109804761Y-90533333D01*
X109947619Y-90533333D01*
X110042857Y-90580952D01*
X110090476Y-90628571D01*
X110138095Y-90723809D01*
X110138095Y-90961904D01*
X110090476Y-91057142D01*
X110042857Y-91104761D01*
X109947619Y-91152380D01*
X109661904Y-91152380D01*
X109566666Y-91104761D01*
X109519047Y-91057142D01*
G04 #@! TD*
M02*
