M48
;DRILL file {KiCad (5.0.0)} date 01/02/20 15:26:40
;FORMAT={-:-/ absolute / metric / decimal}
FMAT,2
METRIC,TZ
T1C0.400
T2C0.500
T3C0.600
T4C0.800
T5C0.900
T6C1.000
T7C1.001
T8C1.143
T9C1.500
T10C1.999
T11C4.300
T12C4.300
%
G90
G05
M71
T1
X54.6Y-96.55
X54.61Y-65.786
X54.61Y-74.676
X54.61Y-85.09
X63.462Y-65.694
X63.5Y-57.404
X66.136Y-72.144
X66.136Y-75.192
X66.136Y-78.24
X66.136Y-81.288
X66.156Y-83.345
X68.48Y-91.12
X68.498Y-83.549
X68.5Y-68.55
X69.75Y-101.9
X69.9Y-60.35
X69.9Y-63.5
X70.36Y-76.73
X70.36Y-79.74
X70.39Y-73.73
X71.997Y-69.999
X73.435Y-91.089
X74.1Y-93.95
X74.25Y-97.7
X75.05Y-69.98
X75.184Y-57.404
X75.57Y-83.49
X75.7Y-86.7
X76.125Y-65.575
X77.725Y-89.45
X78.65Y-83.46
X80.375Y-86.
X80.45Y-94.15
X80.5Y-97.7
X81.04Y-70.09
X81.65Y-83.65
X81.65Y-84.85
X82.775Y-83.413
X83.001Y-65.407
X83.36Y-67.62
X84.036Y-102.016
X84.201Y-93.345
X84.798Y-90.332
X85.598Y-66.294
X86.6Y-71.29
X86.848Y-67.31
X87.084Y-102.016
X87.428Y-76.129
X88.101Y-68.536
X89.4Y-67.5
X89.6Y-88.7
X89.94Y-92.31
X90.619Y-69.415
X92.6Y-70.2
X92.964Y-57.404
X93.1Y-71.75
X93.52Y-63.1
X94.61Y-97.31
X94.81Y-100.82
X96.774Y-103.175
X98.3Y-91.8
X98.726Y-76.292
X99.033Y-78.763
X99.173Y-90.55
X100.203Y-76.523
X102.33Y-90.71
X103.34Y-72.806
X103.34Y-78.902
X103.684Y-63.031
X103.9Y-69.8
X104.14Y-57.404
X104.23Y-97.49
X104.412Y-73.73
X104.854Y-80.174
X104.864Y-81.696
X105.4Y-78.1
X105.69Y-93.53
X106.828Y-72.473
X108.45Y-70.2
X108.454Y-62.792
X109.25Y-73.3
X109.271Y-101.854
X109.35Y-84.658
X109.622Y-79.706
X110.8Y-81.25
X110.95Y-89.05
X110.96Y-90.586
X111.415Y-63.822
X112.4Y-87.5
X114.046Y-78.486
X114.3Y-93.98
X114.45Y-68.95
X115.5Y-70.
X115.57Y-84.709
X115.723Y-86.222
X115.8Y-73.975
X115.824Y-103.175
X115.925Y-78.125
X116.15Y-97.51
X116.577Y-76.114
X116.8Y-81.15
X116.877Y-78.791
X117.044Y-74.817
X117.31Y-69.885
X117.818Y-84.744
X117.856Y-68.072
X117.856Y-93.98
X119.126Y-71.374
X120.Y-72.8
X120.142Y-79.248
X120.396Y-83.566
X120.825Y-75.4
X120.828Y-73.889
X121.158Y-57.404
X121.628Y-81.696
X121.657Y-68.128
X121.727Y-79.935
X122.174Y-65.382
X122.174Y-87.757
X122.593Y-69.905
X122.645Y-80.727
X122.706Y-71.83
X122.936Y-84.074
X123.25Y-66.5
X123.444Y-101.6
X123.825Y-76.962
X124.676Y-90.586
X126.77Y-84.097
X127.43Y-67.15
X127.762Y-87.122
X128.925Y-79.75
X129.Y-77.34
X129.Y-81.675
X129.051Y-75.575
X130.303Y-71.765
X131.318Y-93.218
X131.318Y-98.552
X131.318Y-103.124
X132.969Y-84.836
X133.096Y-57.404
X133.146Y-63.588
X135.661Y-90.754
X137.033Y-84.836
X140.716Y-93.218
X140.716Y-98.552
X140.716Y-103.124
X141.732Y-72.644
X141.732Y-83.312
X141.732Y-89.154
X141.986Y-64.516
T2
X94.65Y-72.776
X94.65Y-74.676
T3
X73.654Y-128.656
X78.654Y-129.956
T4
X89.776Y-81.515
X94.676Y-81.515
T5
X54.5Y-115.4
X54.61Y-140.208
X54.9Y-124.8
X63.3Y-138.4
X64.25Y-119.93
X65.786Y-150.368
X71.87Y-113.61
X75.832Y-116.051
X82.042Y-150.368
X82.931Y-140.589
X83.804Y-113.81
X87.63Y-140.716
X92.592Y-150.442
X93.98Y-115.57
X93.98Y-120.904
X93.98Y-126.238
X93.98Y-131.572
X98.521Y-131.634
X98.548Y-126.246
X98.682Y-120.806
X98.806Y-115.57
X106.934Y-150.622
X115.824Y-139.954
X118.618Y-150.622
X131.572Y-150.622
X133.096Y-127.508
X133.096Y-139.7
X134.366Y-114.3
X140.462Y-127.508
X140.462Y-139.7
X141.224Y-114.554
X70.18Y-93.4
X70.18Y-98.48
X87.96Y-93.4
X87.96Y-118.8
X87.96Y-123.88
X77.56Y-72.86
X77.56Y-75.4
X77.56Y-77.94
X77.56Y-80.48
X80.1Y-72.86
X80.1Y-75.4
X80.1Y-77.94
X80.1Y-80.48
T6
X80.48Y-60.36
X80.48Y-62.9
X83.02Y-60.36
X83.02Y-62.9
X85.56Y-60.36
X85.56Y-62.9
X88.1Y-60.36
X88.1Y-62.9
X90.64Y-60.36
X90.64Y-62.9
X63.119Y-96.647
X63.119Y-104.147
X63.119Y-107.054
X63.119Y-114.554
X133.82Y-67.98
X136.36Y-67.98
X133.82Y-73.06
X133.82Y-75.6
X133.82Y-78.14
X133.82Y-80.68
X136.36Y-73.06
X136.36Y-75.6
X136.36Y-78.14
X136.36Y-80.68
X123.66Y-60.36
X123.66Y-62.9
X126.2Y-60.36
X126.2Y-62.9
X128.74Y-60.36
X128.74Y-62.9
X108.42Y-60.36
X110.96Y-60.36
X113.5Y-60.36
X116.04Y-60.36
X118.58Y-60.36
T7
X86.322Y-134.782
X86.332Y-129.702
T8
X99.314Y-93.888
X99.314Y-96.428
X99.314Y-98.968
T9
X119.462Y-100.638
X119.462Y-115.638
X119.462Y-120.638
X119.462Y-125.638
X127.062Y-100.638
X127.062Y-115.638
X127.062Y-120.638
X127.062Y-125.638
X105.118Y-100.638
X105.118Y-115.638
X105.118Y-120.638
X105.118Y-125.638
X112.718Y-100.638
X112.718Y-115.638
X112.718Y-120.638
X112.718Y-125.638
T10
X95.72Y-134.782
X108.928Y-132.242
X122.898Y-132.242
X78.486Y-136.312
X73.654Y-136.312
X68.834Y-136.312
T11
X61.176Y-129.702
X61.176Y-90.078
T12
X58.Y-148.
X98.Y-61.
X58.Y-61.
X138.Y-61.
X138.Y-120.
X58.Y-120.
X98.Y-148.
X138.Y-148.
T0
M30
