G04 #@! TF.GenerationSoftware,KiCad,Pcbnew,(5.0.0)*
G04 #@! TF.CreationDate,2018-10-12T21:11:17+03:00*
G04 #@! TF.ProjectId,Pistoke,506973746F6B652E6B696361645F7063,rev?*
G04 #@! TF.SameCoordinates,Original*
G04 #@! TF.FileFunction,Profile,NP*
%FSLAX46Y46*%
G04 Gerber Fmt 4.6, Leading zero omitted, Abs format (unit mm)*
G04 Created by KiCad (PCBNEW (5.0.0)) date 10/12/18 21:11:17*
%MOMM*%
%LPD*%
G01*
G04 APERTURE LIST*
%ADD10C,0.600000*%
%ADD11C,0.150000*%
G04 APERTURE END LIST*
D10*
X54000000Y-55000000D02*
G75*
G03X52000000Y-57000000I0J-2000000D01*
G01*
X142000000Y-154000000D02*
G75*
G03X144000000Y-152000000I0J2000000D01*
G01*
X52000000Y-152000000D02*
G75*
G03X54000000Y-154000000I2000000J0D01*
G01*
X144000000Y-57000000D02*
G75*
G03X142000000Y-55000000I-2000000J0D01*
G01*
D11*
X69954000Y-143082000D02*
G75*
G03X68454000Y-143082000I-750000J0D01*
G01*
X69954000Y-145082000D02*
G75*
G02X68454000Y-145082000I-750000J0D01*
G01*
X69954000Y-143082000D02*
X69954000Y-145082000D01*
X68454000Y-145082000D02*
X68454000Y-143082000D01*
X78154000Y-145082000D02*
X78154000Y-143082000D01*
X79654000Y-143082000D02*
G75*
G03X78154000Y-143082000I-750000J0D01*
G01*
X79654000Y-145082000D02*
G75*
G02X78154000Y-145082000I-750000J0D01*
G01*
X79654000Y-143082000D02*
X79654000Y-145082000D01*
X86982000Y-143082000D02*
G75*
G03X85482000Y-143082000I-750000J0D01*
G01*
X86982000Y-145082000D02*
G75*
G02X85482000Y-145082000I-750000J0D01*
G01*
X86982000Y-143082000D02*
X86982000Y-145082000D01*
X85482000Y-145082000D02*
X85482000Y-143082000D01*
X91432000Y-145082000D02*
X91432000Y-143082000D01*
X92932000Y-143082000D02*
G75*
G03X91432000Y-143082000I-750000J0D01*
G01*
X92932000Y-145082000D02*
G75*
G02X91432000Y-145082000I-750000J0D01*
G01*
X92932000Y-143082000D02*
X92932000Y-145082000D01*
X106630000Y-143082000D02*
G75*
G03X105130000Y-143082000I-750000J0D01*
G01*
X106630000Y-145082000D02*
G75*
G02X105130000Y-145082000I-750000J0D01*
G01*
X106630000Y-143082000D02*
X106630000Y-145082000D01*
X105130000Y-145082000D02*
X105130000Y-143082000D01*
X111080000Y-145082000D02*
X111080000Y-143082000D01*
X112580000Y-143082000D02*
G75*
G03X111080000Y-143082000I-750000J0D01*
G01*
X112580000Y-145082000D02*
G75*
G02X111080000Y-145082000I-750000J0D01*
G01*
X112580000Y-143082000D02*
X112580000Y-145082000D01*
X126920000Y-143082000D02*
X126920000Y-145082000D01*
X126920000Y-145082000D02*
G75*
G02X125420000Y-145082000I-750000J0D01*
G01*
X120970000Y-143082000D02*
X120970000Y-145082000D01*
X126920000Y-143082000D02*
G75*
G03X125420000Y-143082000I-750000J0D01*
G01*
X125420000Y-145082000D02*
X125420000Y-143082000D01*
X119470000Y-145082000D02*
X119470000Y-143082000D01*
X120970000Y-145082000D02*
G75*
G02X119470000Y-145082000I-750000J0D01*
G01*
X120970000Y-143082000D02*
G75*
G03X119470000Y-143082000I-750000J0D01*
G01*
D10*
X144000000Y-57000000D02*
X144000000Y-152000000D01*
X54000000Y-55000000D02*
X142000000Y-55000000D01*
X52000000Y-152000000D02*
X52000000Y-57000000D01*
X142000000Y-154000000D02*
X54000000Y-154000000D01*
M02*
